  0
SECTION
  2
HEADER
  9
$ACADVER
  1
AC1024
  9
$ACADMAINTVER
 70
6
  9
$DWGCODEPAGE
  3
ANSI_1252
  9
$LASTSAVEDBY
  1
ezdxf
  9
$INSBASE
 10
0.0
 20
0.0
 30
0.0
  9
$EXTMIN
 10
1e+20
 20
1e+20
 30
1e+20
  9
$EXTMAX
 10
-1e+20
 20
-1e+20
 30
-1e+20
  9
$LIMMIN
 10
0.0
 20
0.0
  9
$LIMMAX
 10
420.0
 20
297.0
  9
$ORTHOMODE
 70
0
  9
$REGENMODE
 70
1
  9
$FILLMODE
 70
1
  9
$QTEXTMODE
 70
0
  9
$MIRRTEXT
 70
1
  9
$LTSCALE
 40
1.0
  9
$ATTMODE
 70
1
  9
$TEXTSIZE
 40
2.5
  9
$TRACEWID
 40
1.0
  9
$TEXTSTYLE
  7
OpenSans
  9
$CLAYER
  8
0
  9
$CELTYPE
  6
ByLayer
  9
$CECOLOR
 62
256
  9
$CELTSCALE
 40
1.0
  9
$DISPSILH
 70
0
  9
$DIMSCALE
 40
1.0
  9
$DIMASZ
 40
0.175
  9
$DIMEXO
 40
0.125
  9
$DIMDLI
 40
3.75
  9
$DIMRND
 40
0.0
  9
$DIMDLE
 40
0.0
  9
$DIMEXE
 40
0.375
  9
$DIMTP
 40
0.0
  9
$DIMTM
 40
0.0
  9
$DIMTXT
 40
0.25
  9
$DIMCEN
 40
2.5
  9
$DIMTSZ
 40
0.0
  9
$DIMTOL
 70
0
  9
$DIMLIM
 70
0
  9
$DIMTIH
 70
0
  9
$DIMTOH
 70
0
  9
$DIMSE1
 70
0
  9
$DIMSE2
 70
0
  9
$DIMTAD
 70
1
  9
$DIMZIN
 70
12
  9
$DIMBLK
  1
ARCHTICK
  9
$DIMASO
 70
1
  9
$DIMSHO
 70
1
  9
$DIMPOST
  1

  9
$DIMAPOST
  1

  9
$DIMALT
 70
0
  9
$DIMALTD
 70
3
  9
$DIMALTF
 40
0.03937007874
  9
$DIMLFAC
 40
100.0
  9
$DIMTOFL
 70
1
  9
$DIMTVP
 40
0.0
  9
$DIMTIX
 70
0
  9
$DIMSOXD
 70
0
  9
$DIMSAH
 70
0
  9
$DIMBLK1
  1

  9
$DIMBLK2
  1

  9
$DIMSTYLE
  2
EZDXF
  9
$DIMCLRD
 70
0
  9
$DIMCLRE
 70
0
  9
$DIMCLRT
 70
0
  9
$DIMTFAC
 40
0.5
  9
$DIMGAP
 40
0.1
  9
$DIMJUST
 70
0
  9
$DIMSD1
 70
0
  9
$DIMSD2
 70
0
  9
$DIMTOLJ
 70
0
  9
$DIMTZIN
 70
8
  9
$DIMALTZ
 70
0
  9
$DIMALTTZ
 70
0
  9
$DIMUPT
 70
1
  9
$DIMDEC
 70
2
  9
$DIMTDEC
 70
2
  9
$DIMALTU
 70
2
  9
$DIMALTTD
 70
3
  9
$DIMTXSTY
  7
OpenSansCondensed-Light
  9
$DIMAUNIT
 70
0
  9
$DIMADEC
 70
2
  9
$DIMALTRND
 40
0.0
  9
$DIMAZIN
 70
3
  9
$DIMDSEP
 70
46
  9
$DIMATFIT
 70
3
  9
$DIMFRAC
 70
0
  9
$DIMLDRBLK
  1

  9
$DIMLUNIT
 70
2
  9
$DIMLWD
 70
-2
  9
$DIMLWE
 70
-2
  9
$DIMTMOVE
 70
2
  9
$DIMFXL
 40
1.0
  9
$DIMFXLON
 70
0
  9
$DIMJOGANG
 40
0.785398163397
  9
$DIMTFILL
 70
0
  9
$DIMTFILLCLR
 70
0
  9
$DIMARCSYM
 70
0
  9
$DIMLTYPE
  6

  9
$DIMLTEX1
  6

  9
$DIMLTEX2
  6

  9
$DIMTXTDIRECTION
 70
0
  9
$LUNITS
 70
2
  9
$LUPREC
 70
4
  9
$SKETCHINC
 40
1.0
  9
$FILLETRAD
 40
10.0
  9
$AUNITS
 70
0
  9
$AUPREC
 70
2
  9
$MENU
  1
.
  9
$ELEVATION
 40
0.0
  9
$PELEVATION
 40
0.0
  9
$THICKNESS
 40
0.0
  9
$LIMCHECK
 70
0
  9
$CHAMFERA
 40
0.0
  9
$CHAMFERB
 40
0.0
  9
$CHAMFERC
 40
0.0
  9
$CHAMFERD
 40
0.0
  9
$SKPOLY
 70
0
  9
$TDCREATE
 40
2461297.060196759
  9
$TDUCREATE
 40
2458532.153996898
  9
$TDUPDATE
 40
2461297.060196759
  9
$TDUUPDATE
 40
2458532.1544311
  9
$TDINDWG
 40
0.0
  9
$TDUSRTIMER
 40
0.0
  9
$USRTIMER
 70
1
  9
$ANGBASE
 50
0.0
  9
$ANGDIR
 70
0
  9
$PDMODE
 70
0
  9
$PDSIZE
 40
0.0
  9
$PLINEWID
 40
0.0
  9
$SPLFRAME
 70
0
  9
$SPLINETYPE
 70
6
  9
$SPLINESEGS
 70
8
  9
$HANDSEED
  5
21A
  9
$SURFTAB1
 70
6
  9
$SURFTAB2
 70
6
  9
$SURFTYPE
 70
6
  9
$SURFU
 70
6
  9
$SURFV
 70
6
  9
$UCSBASE
  2

  9
$UCSNAME
  2

  9
$UCSORG
 10
0.0
 20
0.0
 30
0.0
  9
$UCSXDIR
 10
1.0
 20
0.0
 30
0.0
  9
$UCSYDIR
 10
0.0
 20
1.0
 30
0.0
  9
$UCSORTHOREF
  2

  9
$UCSORTHOVIEW
 70
0
  9
$UCSORGTOP
 10
0.0
 20
0.0
 30
0.0
  9
$UCSORGBOTTOM
 10
0.0
 20
0.0
 30
0.0
  9
$UCSORGLEFT
 10
0.0
 20
0.0
 30
0.0
  9
$UCSORGRIGHT
 10
0.0
 20
0.0
 30
0.0
  9
$UCSORGFRONT
 10
0.0
 20
0.0
 30
0.0
  9
$UCSORGBACK
 10
0.0
 20
0.0
 30
0.0
  9
$PUCSBASE
  2

  9
$PUCSNAME
  2

  9
$PUCSORG
 10
0.0
 20
0.0
 30
0.0
  9
$PUCSXDIR
 10
1.0
 20
0.0
 30
0.0
  9
$PUCSYDIR
 10
0.0
 20
1.0
 30
0.0
  9
$PUCSORTHOREF
  2

  9
$PUCSORTHOVIEW
 70
0
  9
$PUCSORGTOP
 10
0.0
 20
0.0
 30
0.0
  9
$PUCSORGBOTTOM
 10
0.0
 20
0.0
 30
0.0
  9
$PUCSORGLEFT
 10
0.0
 20
0.0
 30
0.0
  9
$PUCSORGRIGHT
 10
0.0
 20
0.0
 30
0.0
  9
$PUCSORGFRONT
 10
0.0
 20
0.0
 30
0.0
  9
$PUCSORGBACK
 10
0.0
 20
0.0
 30
0.0
  9
$USERI1
 70
0
  9
$USERI2
 70
0
  9
$USERI3
 70
0
  9
$USERI4
 70
0
  9
$USERI5
 70
0
  9
$USERR1
 40
0.0
  9
$USERR2
 40
0.0
  9
$USERR3
 40
0.0
  9
$USERR4
 40
0.0
  9
$USERR5
 40
0.0
  9
$WORLDVIEW
 70
1
  9
$SHADEDGE
 70
3
  9
$SHADEDIF
 70
70
  9
$TILEMODE
 70
1
  9
$MAXACTVP
 70
64
  9
$PINSBASE
 10
0.0
 20
0.0
 30
0.0
  9
$PLIMCHECK
 70
0
  9
$PEXTMIN
 10
1e+20
 20
1e+20
 30
1e+20
  9
$PEXTMAX
 10
-1e+20
 20
-1e+20
 30
-1e+20
  9
$PLIMMIN
 10
0.0
 20
0.0
  9
$PLIMMAX
 10
420.0
 20
297.0
  9
$UNITMODE
 70
0
  9
$VISRETAIN
 70
1
  9
$PLINEGEN
 70
0
  9
$PSLTSCALE
 70
1
  9
$TREEDEPTH
 70
3020
  9
$CMLSTYLE
  2
Standard
  9
$CMLJUST
 70
0
  9
$CMLSCALE
 40
20.0
  9
$PROXYGRAPHICS
 70
1
  9
$MEASUREMENT
 70
1
  9
$CELWEIGHT
370
-1
  9
$ENDCAPS
280
0
  9
$JOINSTYLE
280
0
  9
$LWDISPLAY
290
0
  9
$INSUNITS
 70
4
  9
$HYPERLINKBASE
  1

  9
$STYLESHEET
  1

  9
$XEDIT
290
1
  9
$CEPSNTYPE
380
0
  9
$PSTYLEMODE
290
1
  9
$FINGERPRINTGUID
  2
{02926431-C56A-4777-92B9-EFAEEBA215A3}
  9
$VERSIONGUID
  2
{4186DC92-BEE3-4711-A206-6AAEC4E3E579}
  9
$EXTNAMES
290
1
  9
$PSVPSCALE
 40
0.0
  9
$OLESTARTUP
290
0
  9
$SORTENTS
280
127
  9
$INDEXCTL
280
0
  9
$HIDETEXT
280
1
  9
$XCLIPFRAME
280
1
  9
$HALOGAP
280
0
  9
$OBSCOLOR
 70
257
  9
$OBSLTYPE
280
0
  9
$INTERSECTIONDISPLAY
280
0
  9
$INTERSECTIONCOLOR
 70
257
  9
$DIMASSOC
280
2
  9
$PROJECTNAME
  1

  9
$CAMERADISPLAY
290
0
  9
$LENSLENGTH
 40
50.0
  9
$CAMERAHEIGHT
 40
0.0
  9
$STEPSPERSEC
 40
24.0
  9
$STEPSIZE
 40
100.0
  9
$3DDWFPREC
 40
2.0
  9
$PSOLWIDTH
 40
0.005
  9
$PSOLHEIGHT
 40
0.08
  9
$LOFTANG1
 40
1.570796326795
  9
$LOFTANG2
 40
1.570796326795
  9
$LOFTMAG1
 40
0.0
  9
$LOFTMAG2
 40
0.0
  9
$LOFTPARAM
 70
7
  9
$LOFTNORMALS
280
1
  9
$LATITUDE
 40
37.795
  9
$LONGITUDE
 40
-122.394
  9
$NORTHDIRECTION
 40
0.0
  9
$TIMEZONE
 70
-8000
  9
$LIGHTGLYPHDISPLAY
280
1
  9
$TILEMODELIGHTSYNCH
280
1
  9
$CMATERIAL
347
20
  9
$SOLIDHIST
280
0
  9
$SHOWHIST
280
1
  9
$DWFFRAME
280
2
  9
$DGNFRAME
280
2
  9
$REALWORLDSCALE
290
1
  9
$INTERFERECOLOR
 62
256
  9
$CSHADOW
280
0
  9
$SHADOWPLANELOCATION
 40
0.0
  0
ENDSEC
  0
SECTION
  2
CLASSES
  0
CLASS
  1
ACDBDICTIONARYWDFLT
  2
AcDbDictionaryWithDefault
  3
ObjectDBX Classes
 90
0
 91
0
280
0
281
0
  0
CLASS
  1
SUN
  2
AcDbSun
  3
SCENEOE
 90
1153
 91
0
280
0
281
0
  0
CLASS
  1
VISUALSTYLE
  2
AcDbVisualStyle
  3
ObjectDBX Classes
 90
4095
 91
0
280
0
281
0
  0
CLASS
  1
MATERIAL
  2
AcDbMaterial
  3
ObjectDBX Classes
 90
1153
 91
0
280
0
281
0
  0
CLASS
  1
SCALE
  2
AcDbScale
  3
ObjectDBX Classes
 90
1153
 91
0
280
0
281
0
  0
CLASS
  1
TABLESTYLE
  2
AcDbTableStyle
  3
ObjectDBX Classes
 90
4095
 91
0
280
0
281
0
  0
CLASS
  1
MLEADERSTYLE
  2
AcDbMLeaderStyle
  3
ACDB_MLEADERSTYLE_CLASS
 90
4095
 91
0
280
0
281
0
  0
CLASS
  1
DICTIONARYVAR
  2
AcDbDictionaryVar
  3
ObjectDBX Classes
 90
0
 91
0
280
0
281
0
  0
CLASS
  1
CELLSTYLEMAP
  2
AcDbCellStyleMap
  3
ObjectDBX Classes
 90
1152
 91
0
280
0
281
0
  0
CLASS
  1
MENTALRAYRENDERSETTINGS
  2
AcDbMentalRayRenderSettings
  3
SCENEOE
 90
1024
 91
0
280
0
281
0
  0
CLASS
  1
ACDBDETAILVIEWSTYLE
  2
AcDbDetailViewStyle
  3
ObjectDBX Classes
 90
1025
 91
0
280
0
281
0
  0
CLASS
  1
ACDBSECTIONVIEWSTYLE
  2
AcDbSectionViewStyle
  3
ObjectDBX Classes
 90
1025
 91
0
280
0
281
0
  0
CLASS
  1
RASTERVARIABLES
  2
AcDbRasterVariables
  3
ISM
 90
0
 91
0
280
0
281
0
  0
CLASS
  1
LAYOUT
  2
AcDbLayout
  3
ObjectDBX Classes
 90
0
 91
0
280
0
281
0
  0
CLASS
  1
ACDBPLACEHOLDER
  2
AcDbPlaceHolder
  3
ObjectDBX Classes
 90
0
 91
0
280
0
281
0
  0
ENDSEC
  0
SECTION
  2
TABLES
  0
TABLE
  2
VPORT
  5
8
330
0
100
AcDbSymbolTable
 70
1
  0
VPORT
  5
23
330
8
100
AcDbSymbolTableRecord
100
AcDbViewportTableRecord
  2
*Active
 70
0
 10
0.0
 20
0.0
 11
1.0
 21
1.0
 12
0.0
 22
0.0
 13
0.0
 23
0.0
 14
0.5
 24
0.5
 15
0.5
 25
0.5
 16
0.0
 26
0.0
 36
1.0
 17
0.0
 27
0.0
 37
0.0
 40
1000.0
 41
1.34
 42
50.0
 43
0.0
 44
0.0
 50
0.0
 51
0.0
 71
0
 72
1000
 73
1
 74
3
 75
0
 76
0
 77
0
 78
0
281
0
 65
0
146
0.0
  0
ENDTAB
  0
TABLE
  2
LTYPE
  5
2
330
0
100
AcDbSymbolTable
 70
21
  0
LTYPE
  5
24
330
2
100
AcDbSymbolTableRecord
100
AcDbLinetypeTableRecord
  2
ByBlock
 70
0
  3

 72
65
 73
0
 40
0.0
  0
LTYPE
  5
25
330
2
100
AcDbSymbolTableRecord
100
AcDbLinetypeTableRecord
  2
ByLayer
 70
0
  3

 72
65
 73
0
 40
0.0
  0
LTYPE
  5
26
330
2
100
AcDbSymbolTableRecord
100
AcDbLinetypeTableRecord
  2
Continuous
 70
0
  3

 72
65
 73
0
 40
0.0
  0
LTYPE
  5
2F
330
2
100
AcDbSymbolTableRecord
100
AcDbLinetypeTableRecord
  2
CENTER
 70
0
  3
Center ____ _ ____ _ ____ _ ____ _ ____ _ ____
 72
65
 73
4
 40
5.08
 49
3.175
 74
0
 49
-0.635
 74
0
 49
0.635
 74
0
 49
-0.635
 74
0
  0
LTYPE
  5
30
330
2
100
AcDbSymbolTableRecord
100
AcDbLinetypeTableRecord
  2
CENTERX2
 70
0
  3
Center (2x) ________  __  ________  __  ________
 72
65
 73
4
 40
8.89
 49
6.35
 74
0
 49
-0.635
 74
0
 49
1.27
 74
0
 49
-0.635
 74
0
  0
LTYPE
  5
31
330
2
100
AcDbSymbolTableRecord
100
AcDbLinetypeTableRecord
  2
CENTER2
 70
0
  3
Center (.5x) ____ _ ____ _ ____ _ ____ _ ____
 72
65
 73
4
 40
2.54
 49
1.587
 74
0
 49
-0.318
 74
0
 49
0.318
 74
0
 49
-0.318
 74
0
  0
LTYPE
  5
32
330
2
100
AcDbSymbolTableRecord
100
AcDbLinetypeTableRecord
  2
DASHED
 70
0
  3
Dashed __ __ __ __ __ __ __ __ __ __ __ __ __ _
 72
65
 73
2
 40
1.524
 49
1.27
 74
0
 49
-0.254
 74
0
  0
LTYPE
  5
33
330
2
100
AcDbSymbolTableRecord
100
AcDbLinetypeTableRecord
  2
DASHEDX2
 70
0
  3
Dashed (2x) ____  ____  ____  ____  ____  ____
 72
65
 73
2
 40
3.048
 49
2.54
 74
0
 49
-0.508
 74
0
  0
LTYPE
  5
34
330
2
100
AcDbSymbolTableRecord
100
AcDbLinetypeTableRecord
  2
DASHED2
 70
0
  3
Dashed (.5x) _ _ _ _ _ _ _ _ _ _ _ _ _ _
 72
65
 73
2
 40
0.762
 49
0.635
 74
0
 49
-0.127
 74
0
  0
LTYPE
  5
35
330
2
100
AcDbSymbolTableRecord
100
AcDbLinetypeTableRecord
  2
PHANTOM
 70
0
  3
Phantom ______  __  __  ______  __  __  ______
 72
65
 73
6
 40
6.35
 49
3.175
 74
0
 49
-0.635
 74
0
 49
0.635
 74
0
 49
-0.635
 74
0
 49
0.635
 74
0
 49
-0.635
 74
0
  0
LTYPE
  5
36
330
2
100
AcDbSymbolTableRecord
100
AcDbLinetypeTableRecord
  2
PHANTOMX2
 70
0
  3
Phantom (2x)____________    ____    ____    ____________
 72
65
 73
6
 40
10.795
 49
6.35
 74
0
 49
-0.635
 74
0
 49
1.27
 74
0
 49
-0.635
 74
0
 49
1.27
 74
0
 49
-0.635
 74
0
  0
LTYPE
  5
37
330
2
100
AcDbSymbolTableRecord
100
AcDbLinetypeTableRecord
  2
PHANTOM2
 70
0
  3
Phantom (.5x) ___ _ _ ___ _ _ ___ _ _ ___ _ _ ___
 72
65
 73
6
 40
3.175
 49
1.587
 74
0
 49
-0.318
 74
0
 49
0.318
 74
0
 49
-0.318
 74
0
 49
0.318
 74
0
 49
-0.318
 74
0
  0
LTYPE
  5
38
330
2
100
AcDbSymbolTableRecord
100
AcDbLinetypeTableRecord
  2
DASHDOT
 70
0
  3
Dash dot __ . __ . __ . __ . __ . __ . __ . __
 72
65
 73
4
 40
3.556
 49
2.54
 74
0
 49
-0.508
 74
0
 49
0.0
 74
0
 49
-0.508
 74
0
  0
LTYPE
  5
39
330
2
100
AcDbSymbolTableRecord
100
AcDbLinetypeTableRecord
  2
DASHDOTX2
 70
0
  3
Dash dot (2x) ____  .  ____  .  ____  .  ____
 72
65
 73
4
 40
6.096
 49
5.08
 74
0
 49
-0.508
 74
0
 49
0.0
 74
0
 49
-0.508
 74
0
  0
LTYPE
  5
3A
330
2
100
AcDbSymbolTableRecord
100
AcDbLinetypeTableRecord
  2
DASHDOT2
 70
0
  3
Dash dot (.5x) _ . _ . _ . _ . _ . _ . _ . _
 72
65
 73
4
 40
1.778
 49
1.27
 74
0
 49
-0.254
 74
0
 49
0.0
 74
0
 49
-0.254
 74
0
  0
LTYPE
  5
3B
330
2
100
AcDbSymbolTableRecord
100
AcDbLinetypeTableRecord
  2
DOT
 70
0
  3
Dot .  .  .  .  .  .  .  .  .  .  .  .  .  .  .  .
 72
65
 73
2
 40
0.508
 49
0.0
 74
0
 49
-0.508
 74
0
  0
LTYPE
  5
3C
330
2
100
AcDbSymbolTableRecord
100
AcDbLinetypeTableRecord
  2
DOTX2
 70
0
  3
Dot (2x) .    .    .    .    .    .    .    . 
 72
65
 73
2
 40
1.016
 49
0.0
 74
0
 49
-1.016
 74
0
  0
LTYPE
  5
3D
330
2
100
AcDbSymbolTableRecord
100
AcDbLinetypeTableRecord
  2
DOT2
 70
0
  3
Dot (.5) . . . . . . . . . . . . . . . . . . . 
 72
65
 73
2
 40
0.254
 49
0.0
 74
0
 49
-0.254
 74
0
  0
LTYPE
  5
3E
330
2
100
AcDbSymbolTableRecord
100
AcDbLinetypeTableRecord
  2
DIVIDE
 70
0
  3
Divide __ . . __ . . __ . . __ . . __ . . __
 72
65
 73
6
 40
4.064
 49
2.54
 74
0
 49
-0.508
 74
0
 49
0.0
 74
0
 49
-0.508
 74
0
 49
0.0
 74
0
 49
-0.508
 74
0
  0
LTYPE
  5
3F
330
2
100
AcDbSymbolTableRecord
100
AcDbLinetypeTableRecord
  2
DIVIDEX2
 70
0
  3
Divide (2x) ____  . .  ____  . .  ____  . .  ____
 72
65
 73
6
 40
6.604
 49
5.08
 74
0
 49
-0.508
 74
0
 49
0.0
 74
0
 49
-0.508
 74
0
 49
0.0
 74
0
 49
-0.508
 74
0
  0
LTYPE
  5
40
330
2
100
AcDbSymbolTableRecord
100
AcDbLinetypeTableRecord
  2
DIVIDE2
 70
0
  3
Divide(.5x) _ . _ . _ . _ . _ . _ . _ . _
 72
65
 73
6
 40
2.032
 49
1.27
 74
0
 49
-0.254
 74
0
 49
0.0
 74
0
 49
-0.254
 74
0
 49
0.0
 74
0
 49
-0.254
 74
0
  0
ENDTAB
  0
TABLE
  2
LAYER
  5
1
330
0
100
AcDbSymbolTable
 70
7
  0
LAYER
  5
27
330
1
100
AcDbSymbolTableRecord
100
AcDbLayerTableRecord
  2
0
 70
0
 62
7
  6
Continuous
370
-3
390
13
347
21
  0
LAYER
  5
28
330
1
100
AcDbSymbolTableRecord
100
AcDbLayerTableRecord
  2
Defpoints
 70
0
 62
7
  6
Continuous
290
0
370
-3
390
13
347
21
  0
LAYER
  5
8A
330
1
100
AcDbSymbolTableRecord
100
AcDbLayerTableRecord
  2
OUTLINE
 70
0
 62
7
  6
Continuous
370
-3
390
13
347
21
  0
LAYER
  5
8B
330
1
100
AcDbSymbolTableRecord
100
AcDbLayerTableRecord
  2
HIDDEN
 70
0
 62
8
  6
DASHED
370
-3
390
13
347
21
  0
LAYER
  5
8C
330
1
100
AcDbSymbolTableRecord
100
AcDbLayerTableRecord
  2
DIM
 70
0
 62
1
  6
Continuous
370
-3
390
13
347
21
  0
LAYER
  5
8D
330
1
100
AcDbSymbolTableRecord
100
AcDbLayerTableRecord
  2
TEXT
 70
0
 62
3
  6
Continuous
370
-3
390
13
347
21
  0
LAYER
  5
8E
330
1
100
AcDbSymbolTableRecord
100
AcDbLayerTableRecord
  2
CENTER
 70
0
 62
4
  6
CENTER
370
-3
390
13
347
21
  0
ENDTAB
  0
TABLE
  2
STYLE
  5
5
330
0
100
AcDbSymbolTable
 70
26
  0
STYLE
  5
29
330
5
100
AcDbSymbolTableRecord
100
AcDbTextStyleTableRecord
  2
Standard
 70
0
 40
0.0
 41
1.0
 50
0.0
 71
0
 42
2.5
  3
txt
  4

  0
STYLE
  5
41
330
5
100
AcDbSymbolTableRecord
100
AcDbTextStyleTableRecord
  2
OpenSans-Light
 70
0
 40
0.0
 41
1.0
 50
0.0
 71
0
 42
2.5
  3
OpenSans-Light.ttf
  4

  0
STYLE
  5
42
330
5
100
AcDbSymbolTableRecord
100
AcDbTextStyleTableRecord
  2
OpenSans-Light-Italic
 70
0
 40
0.0
 41
1.0
 50
0.0
 71
0
 42
2.5
  3
OpenSans-LightItalic.ttf
  4

  0
STYLE
  5
43
330
5
100
AcDbSymbolTableRecord
100
AcDbTextStyleTableRecord
  2
OpenSans
 70
0
 40
0.0
 41
1.0
 50
0.0
 71
0
 42
2.5
  3
OpenSans-Regular.ttf
  4

  0
STYLE
  5
44
330
5
100
AcDbSymbolTableRecord
100
AcDbTextStyleTableRecord
  2
OpenSans-Italic
 70
0
 40
0.0
 41
1.0
 50
0.0
 71
0
 42
2.5
  3
OpenSans-Italic.ttf
  4

  0
STYLE
  5
45
330
5
100
AcDbSymbolTableRecord
100
AcDbTextStyleTableRecord
  2
OpenSans-SemiBold
 70
0
 40
0.0
 41
1.0
 50
0.0
 71
0
 42
2.5
  3
OpenSans-SemiBold.ttf
  4

  0
STYLE
  5
46
330
5
100
AcDbSymbolTableRecord
100
AcDbTextStyleTableRecord
  2
OpenSans-SemiBoldItalic
 70
0
 40
0.0
 41
1.0
 50
0.0
 71
0
 42
2.5
  3
OpenSans-SemiBoldItalic.ttf
  4

  0
STYLE
  5
47
330
5
100
AcDbSymbolTableRecord
100
AcDbTextStyleTableRecord
  2
OpenSans-Bold
 70
0
 40
0.0
 41
1.0
 50
0.0
 71
0
 42
2.5
  3
OpenSans-Bold.ttf
  4

  0
STYLE
  5
48
330
5
100
AcDbSymbolTableRecord
100
AcDbTextStyleTableRecord
  2
OpenSans-BoldItalic
 70
0
 40
0.0
 41
1.0
 50
0.0
 71
0
 42
2.5
  3
OpenSans-BoldItalic.ttf
  4

  0
STYLE
  5
49
330
5
100
AcDbSymbolTableRecord
100
AcDbTextStyleTableRecord
  2
OpenSans-ExtraBold
 70
0
 40
0.0
 41
1.0
 50
0.0
 71
0
 42
2.5
  3
OpenSans-ExtraBold.ttf
  4

  0
STYLE
  5
4A
330
5
100
AcDbSymbolTableRecord
100
AcDbTextStyleTableRecord
  2
OpenSans-ExtraBoldItalic
 70
0
 40
0.0
 41
1.0
 50
0.0
 71
0
 42
2.5
  3
OpenSans-ExtraBoldItalic.ttf
  4

  0
STYLE
  5
4B
330
5
100
AcDbSymbolTableRecord
100
AcDbTextStyleTableRecord
  2
OpenSansCondensed-Bold
 70
0
 40
0.0
 41
1.0
 50
0.0
 71
0
 42
2.5
  3
OpenSansCondensed-Bold.ttf
  4

  0
STYLE
  5
4C
330
5
100
AcDbSymbolTableRecord
100
AcDbTextStyleTableRecord
  2
OpenSansCondensed-Light
 70
0
 40
0.0
 41
1.0
 50
0.0
 71
0
 42
2.5
  3
OpenSansCondensed-Light.ttf
  4

  0
STYLE
  5
4D
330
5
100
AcDbSymbolTableRecord
100
AcDbTextStyleTableRecord
  2
OpenSansCondensed-Italic
 70
0
 40
0.0
 41
1.0
 50
0.0
 71
0
 42
2.5
  3
OpenSansCondensed-LightItalic.ttf
  4

  0
STYLE
  5
4E
330
5
100
AcDbSymbolTableRecord
100
AcDbTextStyleTableRecord
  2
LiberationSans
 70
0
 40
0.0
 41
1.0
 50
0.0
 71
0
 42
2.5
  3
LiberationSans-Regular.ttf
  4

  0
STYLE
  5
4F
330
5
100
AcDbSymbolTableRecord
100
AcDbTextStyleTableRecord
  2
LiberationSans-Bold
 70
0
 40
0.0
 41
1.0
 50
0.0
 71
0
 42
2.5
  3
LiberationSans-Bold.ttf
  4

  0
STYLE
  5
50
330
5
100
AcDbSymbolTableRecord
100
AcDbTextStyleTableRecord
  2
LiberationSans-BoldItalic
 70
0
 40
0.0
 41
1.0
 50
0.0
 71
0
 42
2.5
  3
LiberationSans-BoldItalic.ttf
  4

  0
STYLE
  5
51
330
5
100
AcDbSymbolTableRecord
100
AcDbTextStyleTableRecord
  2
LiberationSans-Italic
 70
0
 40
0.0
 41
1.0
 50
0.0
 71
0
 42
2.5
  3
LiberationSans-Italic.ttf
  4

  0
STYLE
  5
52
330
5
100
AcDbSymbolTableRecord
100
AcDbTextStyleTableRecord
  2
LiberationSerif
 70
0
 40
0.0
 41
1.0
 50
0.0
 71
0
 42
2.5
  3
LiberationSerif-Regular.ttf
  4

  0
STYLE
  5
53
330
5
100
AcDbSymbolTableRecord
100
AcDbTextStyleTableRecord
  2
LiberationSerif-Bold
 70
0
 40
0.0
 41
1.0
 50
0.0
 71
0
 42
2.5
  3
LiberationSerif-Bold.ttf
  4

  0
STYLE
  5
54
330
5
100
AcDbSymbolTableRecord
100
AcDbTextStyleTableRecord
  2
LiberationSerif-BoldItalic
 70
0
 40
0.0
 41
1.0
 50
0.0
 71
0
 42
2.5
  3
LiberationSerif-BoldItalic.ttf
  4

  0
STYLE
  5
55
330
5
100
AcDbSymbolTableRecord
100
AcDbTextStyleTableRecord
  2
LiberationSerif-Italic
 70
0
 40
0.0
 41
1.0
 50
0.0
 71
0
 42
2.5
  3
LiberationSerif-Italic.ttf
  4

  0
STYLE
  5
56
330
5
100
AcDbSymbolTableRecord
100
AcDbTextStyleTableRecord
  2
LiberationMono
 70
0
 40
0.0
 41
1.0
 50
0.0
 71
0
 42
2.5
  3
LiberationMono-Regular.ttf
  4

  0
STYLE
  5
57
330
5
100
AcDbSymbolTableRecord
100
AcDbTextStyleTableRecord
  2
LiberationMono-Bold
 70
0
 40
0.0
 41
1.0
 50
0.0
 71
0
 42
2.5
  3
LiberationMono-Bold.ttf
  4

  0
STYLE
  5
58
330
5
100
AcDbSymbolTableRecord
100
AcDbTextStyleTableRecord
  2
LiberationMono-BoldItalic
 70
0
 40
0.0
 41
1.0
 50
0.0
 71
0
 42
2.5
  3
LiberationMono-BoldItalic.ttf
  4

  0
STYLE
  5
59
330
5
100
AcDbSymbolTableRecord
100
AcDbTextStyleTableRecord
  2
LiberationMono-Italic
 70
0
 40
0.0
 41
1.0
 50
0.0
 71
0
 42
2.5
  3
LiberationMono-Italic.ttf
  4

  0
ENDTAB
  0
TABLE
  2
VIEW
  5
7
330
0
100
AcDbSymbolTable
 70
0
  0
ENDTAB
  0
TABLE
  2
UCS
  5
6
330
0
100
AcDbSymbolTable
 70
0
  0
ENDTAB
  0
TABLE
  2
APPID
  5
3
330
0
100
AcDbSymbolTable
 70
3
  0
APPID
  5
2A
330
3
100
AcDbSymbolTableRecord
100
AcDbRegAppTableRecord
  2
ACAD
 70
0
  0
APPID
  5
217
330
3
100
AcDbSymbolTableRecord
100
AcDbRegAppTableRecord
  2
HATCHBACKGROUNDCOLOR
 70
0
  0
APPID
  5
218
330
3
100
AcDbSymbolTableRecord
100
AcDbRegAppTableRecord
  2
EZDXF
 70
0
  0
ENDTAB
  0
TABLE
  2
DIMSTYLE
  5
4
330
0
100
AcDbSymbolTable
 70
12
100
AcDbDimStyleTable
  0
DIMSTYLE
105
2B
330
4
100
AcDbSymbolTableRecord
100
AcDbDimStyleTableRecord
  2
Standard
 70
0
 40
1.0
 41
2.5
 42
0.625
 43
3.75
 44
1.25
 45
0.0
 46
0.0
 47
0.0
 48
0.0
 49
2.5
140
2.5
141
2.5
142
0.0
143
0.03937007874
144
1.0
145
0.0
146
1.0
147
0.625
148
0.0
 69
0
 70
0
 71
0
 72
0
 73
0
 74
0
 75
0
 76
0
 77
1
 78
8
 79
3
170
0
171
3
172
1
173
0
174
0
175
0
176
0
177
0
178
0
179
2
271
2
272
2
273
2
274
3
275
0
276
0
277
2
278
44
279
0
280
0
281
0
282
0
283
0
284
8
285
0
286
0
288
0
289
3
290
0
371
-2
372
-2
  0
DIMSTYLE
105
73
330
4
100
AcDbSymbolTableRecord
100
AcDbDimStyleTableRecord
  2
EZDXF
 70
0
 40
1.0
 41
0.175
 42
0.125
 43
3.75
 44
0.375
 45
0.0
 46
0.0
 47
0.0
 48
0.0
 49
2.5
140
0.25
141
2.5
142
0.0
143
0.03937007874
144
100.0
145
0.0
146
0.5
147
0.1
148
0.0
 69
0
 70
0
 71
0
 72
0
 73
0
 74
0
 75
0
 76
0
 77
1
 78
12
 79
3
170
0
171
3
172
1
173
0
174
0
175
0
176
0
177
0
178
0
179
2
271
2
272
2
273
2
274
3
275
0
276
0
277
2
278
46
279
2
280
0
281
0
282
0
283
0
284
8
285
0
286
0
288
1
289
3
290
0
340
4C
342
74
371
-2
372
-2
  0
DIMSTYLE
105
7C
330
4
100
AcDbSymbolTableRecord
100
AcDbDimStyleTableRecord
  2
EZ_M_100_H25_CM
 70
0
 40
1.0
 41
0.25
 42
0.125
 43
3.75
 44
0.375
 45
0.0
 46
0.0
 47
0.0
 48
0.0
 49
2.5
140
0.25
141
2.5
142
0.125
143
0.03937007874
144
100.0
145
0.0
146
0.5
147
0.1
148
0.0
 69
0
 70
0
 71
0
 72
0
 73
0
 74
0
 75
0
 76
0
 77
1
 78
12
 79
3
170
0
171
3
172
1
173
0
174
0
175
0
176
0
177
0
178
0
179
2
271
2
272
2
273
2
274
3
275
0
276
0
277
2
278
46
279
2
280
0
281
0
282
0
283
0
284
8
285
0
286
0
288
1
289
3
290
0
340
4C
371
-2
372
-2
  0
DIMSTYLE
105
7D
330
4
100
AcDbSymbolTableRecord
100
AcDbDimStyleTableRecord
  2
EZ_M_50_H25_CM
 70
0
 40
1.0
 41
0.125
 42
0.0625
 43
3.75
 44
0.1875
 45
0.0
 46
0.0
 47
0.0
 48
0.0
 49
2.5
140
0.125
141
2.5
142
0.0625
143
0.03937007874
144
100.0
145
0.0
146
0.5
147
0.05
148
0.0
 69
0
 70
0
 71
0
 72
0
 73
0
 74
0
 75
0
 76
0
 77
1
 78
12
 79
3
170
0
171
3
172
1
173
0
174
0
175
0
176
0
177
0
178
0
179
2
271
2
272
2
273
2
274
3
275
0
276
0
277
2
278
46
279
2
280
0
281
0
282
0
283
0
284
8
285
0
286
0
288
1
289
3
290
0
340
4C
371
-2
372
-2
  0
DIMSTYLE
105
7E
330
4
100
AcDbSymbolTableRecord
100
AcDbDimStyleTableRecord
  2
EZ_M_25_H25_CM
 70
0
 40
1.0
 41
0.0625
 42
0.03125
 43
3.75
 44
0.09375
 45
0.0
 46
0.0
 47
0.0
 48
0.0
 49
2.5
140
0.0625
141
2.5
142
0.03125
143
0.03937007874
144
100.0
145
0.0
146
0.5
147
0.025
148
0.0
 69
0
 70
0
 71
0
 72
0
 73
0
 74
0
 75
0
 76
0
 77
1
 78
12
 79
3
170
0
171
3
172
1
173
0
174
0
175
0
176
0
177
0
178
0
179
2
271
2
272
2
273
2
274
3
275
0
276
0
277
2
278
46
279
2
280
0
281
0
282
0
283
0
284
8
285
0
286
0
288
1
289
3
290
0
340
4C
371
-2
372
-2
  0
DIMSTYLE
105
7F
330
4
100
AcDbSymbolTableRecord
100
AcDbDimStyleTableRecord
  2
EZ_M_20_H25_CM
 70
0
 40
1.0
 41
0.05
 42
0.025
 43
3.75
 44
0.07500000000000001
 45
0.0
 46
0.0
 47
0.0
 48
0.0
 49
2.5
140
0.05
141
2.5
142
0.025
143
0.03937007874
144
100.0
145
0.0
146
0.5
147
0.020000000000000004
148
0.0
 69
0
 70
0
 71
0
 72
0
 73
0
 74
0
 75
0
 76
0
 77
1
 78
12
 79
3
170
0
171
3
172
1
173
0
174
0
175
0
176
0
177
0
178
0
179
2
271
2
272
2
273
2
274
3
275
0
276
0
277
2
278
46
279
2
280
0
281
0
282
0
283
0
284
8
285
0
286
0
288
1
289
3
290
0
340
4C
371
-2
372
-2
  0
DIMSTYLE
105
80
330
4
100
AcDbSymbolTableRecord
100
AcDbDimStyleTableRecord
  2
EZ_M_10_H25_CM
 70
0
 40
1.0
 41
0.025
 42
0.0125
 43
3.75
 44
0.037500000000000006
 45
0.0
 46
0.0
 47
0.0
 48
0.0
 49
2.5
140
0.025
141
2.5
142
0.0125
143
0.03937007874
144
100.0
145
0.0
146
0.5
147
0.010000000000000002
148
0.0
 69
0
 70
0
 71
0
 72
0
 73
0
 74
0
 75
0
 76
0
 77
1
 78
12
 79
3
170
0
171
3
172
1
173
0
174
0
175
0
176
0
177
0
178
0
179
2
271
2
272
2
273
2
274
3
275
0
276
0
277
2
278
46
279
2
280
0
281
0
282
0
283
0
284
8
285
0
286
0
288
1
289
3
290
0
340
4C
371
-2
372
-2
  0
DIMSTYLE
105
81
330
4
100
AcDbSymbolTableRecord
100
AcDbDimStyleTableRecord
  2
EZ_M_5_H25_CM
 70
0
 40
1.0
 41
0.0125
 42
0.00625
 43
3.75
 44
0.018750000000000003
 45
0.0
 46
0.0
 47
0.0
 48
0.0
 49
2.5
140
0.0125
141
2.5
142
0.00625
143
0.03937007874
144
100.0
145
0.0
146
0.5
147
0.005000000000000001
148
0.0
 69
0
 70
0
 71
0
 72
0
 73
0
 74
0
 75
0
 76
0
 77
1
 78
12
 79
3
170
0
171
3
172
1
173
0
174
0
175
0
176
0
177
0
178
0
179
2
271
2
272
2
273
2
274
3
275
0
276
0
277
2
278
46
279
2
280
0
281
0
282
0
283
0
284
8
285
0
286
0
288
1
289
3
290
0
340
4C
371
-2
372
-2
  0
DIMSTYLE
105
82
330
4
100
AcDbSymbolTableRecord
100
AcDbDimStyleTableRecord
  2
EZ_M_1_H25_CM
 70
0
 40
1.0
 41
0.0025
 42
0.00125
 43
3.75
 44
0.00375
 45
0.0
 46
0.0
 47
0.0
 48
0.0
 49
2.5
140
0.0025
141
2.5
142
0.00125
143
0.03937007874
144
100.0
145
0.0
146
0.5
147
0.001
148
0.0
 69
0
 70
0
 71
0
 72
0
 73
0
 74
0
 75
0
 76
0
 77
1
 78
12
 79
3
170
0
171
3
172
1
173
0
174
0
175
0
176
0
177
0
178
0
179
2
271
2
272
2
273
2
274
3
275
0
276
0
277
2
278
46
279
2
280
0
281
0
282
0
283
0
284
8
285
0
286
0
288
1
289
3
290
0
340
4C
371
-2
372
-2
  0
DIMSTYLE
105
83
330
4
100
AcDbSymbolTableRecord
100
AcDbDimStyleTableRecord
  2
EZ_RADIUS
 70
0
 40
1.0
 41
0.25
 42
0.125
 43
3.75
 44
0.375
 45
0.0
 46
0.0
 47
0.0
 48
0.0
 49
2.5
140
0.25
141
0.0
142
0.0
143
0.03937007874
144
100.0
145
0.0
146
0.5
147
0.1
148
0.0
 69
0
 70
0
 71
0
 72
0
 73
0
 74
0
 75
0
 76
0
 77
1
 78
12
 79
3
170
0
171
3
172
0
173
0
174
0
175
0
176
0
177
0
178
0
179
2
271
2
272
2
273
2
274
3
275
0
276
0
277
2
278
46
279
1
280
0
281
0
282
0
283
0
284
8
285
0
286
0
288
1
289
3
290
0
340
4C
342
84
371
-2
372
-2
  0
DIMSTYLE
105
88
330
4
100
AcDbSymbolTableRecord
100
AcDbDimStyleTableRecord
  2
EZ_RADIUS_INSIDE
 70
0
 40
1.0
 41
0.25
 42
0.125
 43
3.75
 44
0.375
 45
0.0
 46
0.0
 47
0.0
 48
0.0
 49
2.5
140
0.25
141
0.0
142
0.0
143
0.03937007874
144
100.0
145
0.0
146
0.5
147
0.1
148
0.0
 69
0
 70
0
 71
0
 72
0
 73
0
 74
0
 75
0
 76
0
 77
0
 78
12
 79
3
170
0
171
3
172
0
173
0
174
1
175
0
176
0
177
0
178
0
179
2
271
2
272
2
273
2
274
3
275
0
276
0
277
2
278
46
279
0
280
0
281
0
282
0
283
0
284
8
285
0
286
0
288
1
289
0
290
0
340
4C
342
84
371
-2
372
-2
  0
DIMSTYLE
105
89
330
4
100
AcDbSymbolTableRecord
100
AcDbDimStyleTableRecord
  2
EZ_CURVED
 70
0
 40
1.0
 41
0.25
 42
0.125
 43
3.75
 44
0.375
 45
0.0
 46
0.0
 47
0.0
 48
0.0
 49
2.5
140
0.25
141
2.5
142
0.0
143
0.03937007874
144
100.0
145
0.0
146
0.5
147
0.1
148
0.0
 69
0
 70
0
 71
0
 72
0
 73
0
 74
0
 75
0
 76
0
 77
1
 78
12
 79
2
 90
2
170
0
171
3
172
1
173
0
174
0
175
0
176
0
177
0
178
0
179
2
271
2
272
2
273
2
274
3
275
0
276
0
277
2
278
46
279
2
280
0
281
0
282
0
283
0
284
8
285
0
286
0
288
1
289
3
290
0
340
4C
371
-2
372
-2
  0
ENDTAB
  0
TABLE
  2
BLOCK_RECORD
  5
9
330
0
100
AcDbSymbolTable
 70
23
  0
BLOCK_RECORD
  5
17
330
9
100
AcDbSymbolTableRecord
100
AcDbBlockTableRecord
  2
*Model_Space
340
1A
 70
0
280
1
281
0
  0
BLOCK_RECORD
  5
1B
330
9
100
AcDbSymbolTableRecord
100
AcDbBlockTableRecord
  2
*Paper_Space
340
1E
 70
0
280
1
281
0
  0
BLOCK_RECORD
  5
74
330
9
100
AcDbSymbolTableRecord
100
AcDbBlockTableRecord
  2
_ARCHTICK
340
0
 70
0
280
1
281
0
  0
BLOCK_RECORD
  5
78
330
9
100
AcDbSymbolTableRecord
100
AcDbBlockTableRecord
  2
_CLOSEDFILLED
340
0
 70
0
280
1
281
0
  0
BLOCK_RECORD
  5
84
330
9
100
AcDbSymbolTableRecord
100
AcDbBlockTableRecord
  2
_CLOSEDBLANK
340
0
 70
0
280
1
281
0
  0
BLOCK_RECORD
  5
C0
330
9
100
AcDbSymbolTableRecord
100
AcDbBlockTableRecord
  2
*D1
340
0
 70
0
280
1
281
0
  0
BLOCK_RECORD
  5
CF
330
9
100
AcDbSymbolTableRecord
100
AcDbBlockTableRecord
  2
*D2
340
0
 70
0
280
1
281
0
  0
BLOCK_RECORD
  5
DE
330
9
100
AcDbSymbolTableRecord
100
AcDbBlockTableRecord
  2
*D3
340
0
 70
0
280
1
281
0
  0
BLOCK_RECORD
  5
ED
330
9
100
AcDbSymbolTableRecord
100
AcDbBlockTableRecord
  2
*D4
340
0
 70
0
280
1
281
0
  0
BLOCK_RECORD
  5
FC
330
9
100
AcDbSymbolTableRecord
100
AcDbBlockTableRecord
  2
*D5
340
0
 70
0
280
1
281
0
  0
BLOCK_RECORD
  5
10B
330
9
100
AcDbSymbolTableRecord
100
AcDbBlockTableRecord
  2
*D6
340
0
 70
0
280
1
281
0
  0
BLOCK_RECORD
  5
11A
330
9
100
AcDbSymbolTableRecord
100
AcDbBlockTableRecord
  2
*D7
340
0
 70
0
280
1
281
0
  0
BLOCK_RECORD
  5
129
330
9
100
AcDbSymbolTableRecord
100
AcDbBlockTableRecord
  2
*D8
340
0
 70
0
280
1
281
0
  0
BLOCK_RECORD
  5
154
330
9
100
AcDbSymbolTableRecord
100
AcDbBlockTableRecord
  2
*D9
340
0
 70
0
280
1
281
0
  0
BLOCK_RECORD
  5
163
330
9
100
AcDbSymbolTableRecord
100
AcDbBlockTableRecord
  2
*D10
340
0
 70
0
280
1
281
0
  0
BLOCK_RECORD
  5
172
330
9
100
AcDbSymbolTableRecord
100
AcDbBlockTableRecord
  2
*D11
340
0
 70
0
280
1
281
0
  0
BLOCK_RECORD
  5
181
330
9
100
AcDbSymbolTableRecord
100
AcDbBlockTableRecord
  2
*D12
340
0
 70
0
280
1
281
0
  0
BLOCK_RECORD
  5
190
330
9
100
AcDbSymbolTableRecord
100
AcDbBlockTableRecord
  2
*D13
340
0
 70
0
280
1
281
0
  0
BLOCK_RECORD
  5
19F
330
9
100
AcDbSymbolTableRecord
100
AcDbBlockTableRecord
  2
*D14
340
0
 70
0
280
1
281
0
  0
BLOCK_RECORD
  5
1D1
330
9
100
AcDbSymbolTableRecord
100
AcDbBlockTableRecord
  2
*D15
340
0
 70
0
280
1
281
0
  0
BLOCK_RECORD
  5
1E0
330
9
100
AcDbSymbolTableRecord
100
AcDbBlockTableRecord
  2
*D16
340
0
 70
0
280
1
281
0
  0
BLOCK_RECORD
  5
1EF
330
9
100
AcDbSymbolTableRecord
100
AcDbBlockTableRecord
  2
*D17
340
0
 70
0
280
1
281
0
  0
BLOCK_RECORD
  5
1FE
330
9
100
AcDbSymbolTableRecord
100
AcDbBlockTableRecord
  2
*D18
340
0
 70
0
280
1
281
0
  0
ENDTAB
  0
ENDSEC
  0
SECTION
  2
BLOCKS
  0
BLOCK
  5
18
330
17
100
AcDbEntity
  8
0
100
AcDbBlockBegin
  2
*Model_Space
 70
0
 10
0.0
 20
0.0
 30
0.0
  3
*Model_Space
  1

  0
ENDBLK
  5
19
330
17
100
AcDbEntity
  8
0
100
AcDbBlockEnd
  0
BLOCK
  5
1C
330
1B
100
AcDbEntity
  8
0
100
AcDbBlockBegin
  2
*Paper_Space
 70
0
 10
0.0
 20
0.0
 30
0.0
  3
*Paper_Space
  1

  0
ENDBLK
  5
1D
330
1B
100
AcDbEntity
  8
0
100
AcDbBlockEnd
  0
BLOCK
  5
75
330
74
100
AcDbEntity
  8
0
100
AcDbBlockBegin
  2
_ARCHTICK
 70
0
 10
0.0
 20
0.0
 30
0.0
  3
_ARCHTICK
  1

  0
LWPOLYLINE
  5
77
330
74
100
AcDbEntity
  8
0
  6
BYBLOCK
 62
0
100
AcDbPolyline
 90
2
 70
0
 43
0.15
 10
-0.5
 20
-0.5
 10
0.5
 20
0.5
  0
ENDBLK
  5
76
330
74
100
AcDbEntity
  8
0
100
AcDbBlockEnd
  0
BLOCK
  5
79
330
78
100
AcDbEntity
  8
0
100
AcDbBlockBegin
  2
_CLOSEDFILLED
 70
0
 10
0.0
 20
0.0
 30
0.0
  3
_CLOSEDFILLED
  1

  0
SOLID
  5
7B
330
78
100
AcDbEntity
  8
0
  6
BYBLOCK
 62
0
100
AcDbTrace
 10
-1.0
 20
0.16439898372402537
 30
0.0
 11
0.0
 21
0.0
 31
0.0
 12
-1.0
 22
-0.16439898372402537
 32
0.0
 13
-1.0
 23
-0.16439898372402537
 33
0.0
  0
ENDBLK
  5
7A
330
78
100
AcDbEntity
  8
0
100
AcDbBlockEnd
  0
BLOCK
  5
85
330
84
100
AcDbEntity
  8
0
100
AcDbBlockBegin
  2
_CLOSEDBLANK
 70
0
 10
0.0
 20
0.0
 30
0.0
  3
_CLOSEDBLANK
  1

  0
LWPOLYLINE
  5
87
330
84
100
AcDbEntity
  8
0
  6
BYBLOCK
 62
0
100
AcDbPolyline
 90
3
 70
1
 10
-1.0
 20
0.16439898372402537
 10
0.0
 20
0.0
 10
-1.0
 20
-0.16439898372402537
  0
ENDBLK
  5
86
330
84
100
AcDbEntity
  8
0
100
AcDbBlockEnd
  0
BLOCK
  5
C1
330
C0
100
AcDbEntity
  8
0
100
AcDbBlockBegin
  2
*D1
 70
1
 10
0.0
 20
0.0
 30
0.0
  3
*D1
  1

  0
LINE
  5
C3
330
C0
100
AcDbEntity
  8
0
100
AcDbLine
 10
-227.7
 20
-0.125
 30
0.0
 11
-227.7
 21
-70.375
 31
0.0
  0
LINE
  5
C4
330
C0
100
AcDbEntity
  8
0
100
AcDbLine
 10
227.7
 20
-0.125
 30
0.0
 11
227.7
 21
-70.375
 31
0.0
  0
INSERT
  5
C5
330
C0
100
AcDbEntity
  8
DIM
100
AcDbBlockReference
  2
_ARCHTICK
 10
-227.7
 20
-70.0
 30
0.0
 41
0.175
 42
0.175
 50
180.0
  0
INSERT
  5
C7
330
C0
100
AcDbEntity
  8
DIM
100
AcDbBlockReference
  2
_ARCHTICK
 10
227.7
 20
-70.0
 30
0.0
 41
0.175
 42
0.175
  0
LINE
  5
C9
330
C0
100
AcDbEntity
  8
0
100
AcDbLine
 10
-227.7
 20
-70.0
 30
0.0
 11
227.7
 21
-70.0
 31
0.0
  0
MTEXT
  5
CA
330
C0
100
AcDbEntity
  8
DIM
100
AcDbMText
 10
0.0
 20
-69.775
 30
0.0
 40
0.25
 71
5
  1
OVERALL DEPTH 455 mm [17.93"]
  7
OpenSansCondensed-Light
  0
POINT
  5
CB
330
C0
100
AcDbEntity
  8
Defpoints
100
AcDbPoint
 10
-227.7
 20
-70.0
 30
0.0
  0
POINT
  5
CC
330
C0
100
AcDbEntity
  8
Defpoints
100
AcDbPoint
 10
-227.7
 20
0.0
 30
0.0
  0
POINT
  5
CD
330
C0
100
AcDbEntity
  8
Defpoints
100
AcDbPoint
 10
227.7
 20
0.0
 30
0.0
  0
ENDBLK
  5
C2
330
C0
100
AcDbEntity
  8
0
100
AcDbBlockEnd
  0
BLOCK
  5
D0
330
CF
100
AcDbEntity
  8
0
100
AcDbBlockBegin
  2
*D2
 70
1
 10
0.0
 20
0.0
 30
0.0
  3
*D2
  1

  0
LINE
  5
D2
330
CF
100
AcDbEntity
  8
0
100
AcDbLine
 10
-215.0
 20
-0.125
 30
0.0
 11
-215.0
 21
-40.375
 31
0.0
  0
LINE
  5
D3
330
CF
100
AcDbEntity
  8
0
100
AcDbLine
 10
215.0
 20
-0.125
 30
0.0
 11
215.0
 21
-40.375
 31
0.0
  0
INSERT
  5
D4
330
CF
100
AcDbEntity
  8
DIM
100
AcDbBlockReference
  2
_ARCHTICK
 10
-215.0
 20
-40.0
 30
0.0
 41
0.175
 42
0.175
 50
180.0
  0
INSERT
  5
D6
330
CF
100
AcDbEntity
  8
DIM
100
AcDbBlockReference
  2
_ARCHTICK
 10
215.0
 20
-40.0
 30
0.0
 41
0.175
 42
0.175
  0
LINE
  5
D8
330
CF
100
AcDbEntity
  8
0
100
AcDbLine
 10
-215.0
 20
-40.0
 30
0.0
 11
215.0
 21
-40.0
 31
0.0
  0
MTEXT
  5
D9
330
CF
100
AcDbEntity
  8
DIM
100
AcDbMText
 10
0.0
 20
-39.775
 30
0.0
 40
0.25
 71
5
  1
LEG C/C 430 mm [16.93"]
  7
OpenSansCondensed-Light
  0
POINT
  5
DA
330
CF
100
AcDbEntity
  8
Defpoints
100
AcDbPoint
 10
-215.0
 20
-40.0
 30
0.0
  0
POINT
  5
DB
330
CF
100
AcDbEntity
  8
Defpoints
100
AcDbPoint
 10
-215.0
 20
0.0
 30
0.0
  0
POINT
  5
DC
330
CF
100
AcDbEntity
  8
Defpoints
100
AcDbPoint
 10
215.0
 20
0.0
 30
0.0
  0
ENDBLK
  5
D1
330
CF
100
AcDbEntity
  8
0
100
AcDbBlockEnd
  0
BLOCK
  5
DF
330
DE
100
AcDbEntity
  8
0
100
AcDbBlockBegin
  2
*D3
 70
1
 10
0.0
 20
0.0
 30
0.0
  3
*D3
  1

  0
LINE
  5
E1
330
DE
100
AcDbEntity
  8
0
100
AcDbLine
 10
-267.825
 20
1.5308084989341915e-17
 30
0.0
 11
-268.075
 21
4.592425496802574e-17
 31
0.0
  0
LINE
  5
E2
330
DE
100
AcDbEntity
  8
0
100
AcDbLine
 10
-267.825
 20
470.0
 30
0.0
 11
-268.075
 21
470.0
 31
0.0
  0
INSERT
  5
E3
330
DE
100
AcDbEntity
  8
DIM
100
AcDbBlockReference
  2
_ARCHTICK
 10
-267.7
 20
0.0
 30
0.0
 41
0.175
 42
0.175
 50
270.0
  0
INSERT
  5
E5
330
DE
100
AcDbEntity
  8
DIM
100
AcDbBlockReference
  2
_ARCHTICK
 10
-267.7
 20
470.0
 30
0.0
 41
0.175
 42
0.175
 50
90.0
  0
LINE
  5
E7
330
DE
100
AcDbEntity
  8
0
100
AcDbLine
 10
-267.7
 20
0.0
 30
0.0
 11
-267.7
 21
470.0
 31
0.0
  0
MTEXT
  5
E8
330
DE
100
AcDbEntity
  8
DIM
100
AcDbMText
 10
-267.925
 20
235.0
 30
0.0
 40
0.25
 71
5
  1
SEAT HEIGHT 470 mm [18.50"] (adj. 16.5"-22.5")
  7
OpenSansCondensed-Light
 50
90.0
  0
POINT
  5
E9
330
DE
100
AcDbEntity
  8
Defpoints
100
AcDbPoint
 10
-267.7
 20
0.0
 30
0.0
  0
POINT
  5
EA
330
DE
100
AcDbEntity
  8
Defpoints
100
AcDbPoint
 10
-267.7
 20
0.0
 30
0.0
  0
POINT
  5
EB
330
DE
100
AcDbEntity
  8
Defpoints
100
AcDbPoint
 10
-267.7
 20
470.0
 30
0.0
  0
ENDBLK
  5
E0
330
DE
100
AcDbEntity
  8
0
100
AcDbBlockEnd
  0
BLOCK
  5
EE
330
ED
100
AcDbEntity
  8
0
100
AcDbBlockBegin
  2
*D4
 70
1
 10
0.0
 20
0.0
 30
0.0
  3
*D4
  1

  0
LINE
  5
F0
330
ED
100
AcDbEntity
  8
0
100
AcDbLine
 10
-397.825
 20
1.5308084989341915e-17
 30
0.0
 11
-398.075
 21
4.592425496802574e-17
 31
0.0
  0
LINE
  5
F1
330
ED
100
AcDbEntity
  8
0
100
AcDbLine
 10
-397.825
 20
276.0
 30
0.0
 11
-398.075
 21
276.0
 31
0.0
  0
INSERT
  5
F2
330
ED
100
AcDbEntity
  8
DIM
100
AcDbBlockReference
  2
_ARCHTICK
 10
-397.7
 20
0.0
 30
0.0
 41
0.175
 42
0.175
 50
270.0
  0
INSERT
  5
F4
330
ED
100
AcDbEntity
  8
DIM
100
AcDbBlockReference
  2
_ARCHTICK
 10
-397.7
 20
276.0
 30
0.0
 41
0.175
 42
0.175
 50
90.0
  0
LINE
  5
F6
330
ED
100
AcDbEntity
  8
0
100
AcDbLine
 10
-397.7
 20
0.0
 30
0.0
 11
-397.7
 21
276.0
 31
0.0
  0
MTEXT
  5
F7
330
ED
100
AcDbEntity
  8
DIM
100
AcDbMText
 10
-397.925
 20
138.0
 30
0.0
 40
0.25
 71
5
  1
PAN CLEARANCE TO FLOOR 276 mm [10.87"]
  7
OpenSansCondensed-Light
 50
90.0
  0
POINT
  5
F8
330
ED
100
AcDbEntity
  8
Defpoints
100
AcDbPoint
 10
-397.7
 20
0.0
 30
0.0
  0
POINT
  5
F9
330
ED
100
AcDbEntity
  8
Defpoints
100
AcDbPoint
 10
-397.7
 20
0.0
 30
0.0
  0
POINT
  5
FA
330
ED
100
AcDbEntity
  8
Defpoints
100
AcDbPoint
 10
-397.7
 20
276.0
 30
0.0
  0
ENDBLK
  5
EF
330
ED
100
AcDbEntity
  8
0
100
AcDbBlockEnd
  0
BLOCK
  5
FD
330
FC
100
AcDbEntity
  8
0
100
AcDbBlockBegin
  2
*D5
 70
1
 10
0.0
 20
0.0
 30
0.0
  3
*D5
  1

  0
LINE
  5
FF
330
FC
100
AcDbEntity
  8
0
100
AcDbLine
 10
-527.825
 20
1.5308084989341915e-17
 30
0.0
 11
-528.075
 21
4.592425496802574e-17
 31
0.0
  0
LINE
  5
100
330
FC
100
AcDbEntity
  8
0
100
AcDbLine
 10
-527.825
 20
375.0
 30
0.0
 11
-528.075
 21
375.0
 31
0.0
  0
INSERT
  5
101
330
FC
100
AcDbEntity
  8
DIM
100
AcDbBlockReference
  2
_ARCHTICK
 10
-527.7
 20
0.0
 30
0.0
 41
0.175
 42
0.175
 50
270.0
  0
INSERT
  5
103
330
FC
100
AcDbEntity
  8
DIM
100
AcDbBlockReference
  2
_ARCHTICK
 10
-527.7
 20
375.0
 30
0.0
 41
0.175
 42
0.175
 50
90.0
  0
LINE
  5
105
330
FC
100
AcDbEntity
  8
0
100
AcDbLine
 10
-527.7
 20
0.0
 30
0.0
 11
-527.7
 21
375.0
 31
0.0
  0
MTEXT
  5
106
330
FC
100
AcDbEntity
  8
DIM
100
AcDbMText
 10
-527.9250000000001
 20
187.5
 30
0.0
 40
0.25
 71
5
  1
SLIDE UNDERSIDE 375 mm [14.76"]
  7
OpenSansCondensed-Light
 50
90.0
  0
POINT
  5
107
330
FC
100
AcDbEntity
  8
Defpoints
100
AcDbPoint
 10
-527.7
 20
0.0
 30
0.0
  0
POINT
  5
108
330
FC
100
AcDbEntity
  8
Defpoints
100
AcDbPoint
 10
-527.7
 20
0.0
 30
0.0
  0
POINT
  5
109
330
FC
100
AcDbEntity
  8
Defpoints
100
AcDbPoint
 10
-527.7
 20
375.0
 30
0.0
  0
ENDBLK
  5
FE
330
FC
100
AcDbEntity
  8
0
100
AcDbBlockEnd
  0
BLOCK
  5
10C
330
10B
100
AcDbEntity
  8
0
100
AcDbBlockBegin
  2
*D6
 70
1
 10
0.0
 20
0.0
 30
0.0
  3
*D6
  1

  0
LINE
  5
10E
330
10B
100
AcDbEntity
  8
0
100
AcDbLine
 10
7.654042494670958e-18
 20
740.125
 30
0.0
 11
2.296212748401287e-17
 21
740.375
 31
0.0
  0
LINE
  5
10F
330
10B
100
AcDbEntity
  8
0
100
AcDbLine
 10
508.0
 20
740.125
 30
0.0
 11
508.0
 21
740.375
 31
0.0
  0
INSERT
  5
110
330
10B
100
AcDbEntity
  8
DIM
100
AcDbBlockReference
  2
_ARCHTICK
 10
0.0
 20
740.0
 30
0.0
 41
0.175
 42
0.175
 50
180.0
  0
INSERT
  5
112
330
10B
100
AcDbEntity
  8
DIM
100
AcDbBlockReference
  2
_ARCHTICK
 10
508.0
 20
740.0
 30
0.0
 41
0.175
 42
0.175
  0
LINE
  5
114
330
10B
100
AcDbEntity
  8
0
100
AcDbLine
 10
0.0
 20
740.0
 30
0.0
 11
508.0
 21
740.0
 31
0.0
  0
MTEXT
  5
115
330
10B
100
AcDbEntity
  8
DIM
100
AcDbMText
 10
254.0
 20
740.225
 30
0.0
 40
0.25
 71
5
  1
SLIDE TRAVEL 508 mm [20.00"] (to REAR)
  7
OpenSansCondensed-Light
  0
POINT
  5
116
330
10B
100
AcDbEntity
  8
Defpoints
100
AcDbPoint
 10
0.0
 20
740.0
 30
0.0
  0
POINT
  5
117
330
10B
100
AcDbEntity
  8
Defpoints
100
AcDbPoint
 10
0.0
 20
740.0
 30
0.0
  0
POINT
  5
118
330
10B
100
AcDbEntity
  8
Defpoints
100
AcDbPoint
 10
508.0
 20
740.0
 30
0.0
  0
ENDBLK
  5
10D
330
10B
100
AcDbEntity
  8
0
100
AcDbBlockEnd
  0
BLOCK
  5
11B
330
11A
100
AcDbEntity
  8
0
100
AcDbBlockBegin
  2
*D7
 70
1
 10
0.0
 20
0.0
 30
0.0
  3
*D7
  1

  0
LINE
  5
11D
330
11A
100
AcDbEntity
  8
0
100
AcDbLine
 10
227.7
 20
216.125
 30
0.0
 11
227.7
 21
216.375
 31
0.0
  0
LINE
  5
11E
330
11A
100
AcDbEntity
  8
0
100
AcDbLine
 10
338.0
 20
216.125
 30
0.0
 11
338.0
 21
216.375
 31
0.0
  0
INSERT
  5
11F
330
11A
100
AcDbEntity
  8
DIM
100
AcDbBlockReference
  2
_ARCHTICK
 10
227.7
 20
216.0
 30
0.0
 41
0.175
 42
0.175
 50
180.0
  0
INSERT
  5
121
330
11A
100
AcDbEntity
  8
DIM
100
AcDbBlockReference
  2
_ARCHTICK
 10
338.0
 20
216.0
 30
0.0
 41
0.175
 42
0.175
  0
LINE
  5
123
330
11A
100
AcDbEntity
  8
0
100
AcDbLine
 10
227.7
 20
216.0
 30
0.0
 11
338.0
 21
216.0
 31
0.0
  0
MTEXT
  5
124
330
11A
100
AcDbEntity
  8
DIM
100
AcDbMText
 10
282.85
 20
216.225
 30
0.0
 40
0.25
 71
5
  1
lift-out clearance 110 mm [4.34"]
  7
OpenSansCondensed-Light
  0
POINT
  5
125
330
11A
100
AcDbEntity
  8
Defpoints
100
AcDbPoint
 10
227.7
 20
216.0
 30
0.0
  0
POINT
  5
126
330
11A
100
AcDbEntity
  8
Defpoints
100
AcDbPoint
 10
227.7
 20
216.0
 30
0.0
  0
POINT
  5
127
330
11A
100
AcDbEntity
  8
Defpoints
100
AcDbPoint
 10
338.0
 20
216.0
 30
0.0
  0
ENDBLK
  5
11C
330
11A
100
AcDbEntity
  8
0
100
AcDbBlockEnd
  0
BLOCK
  5
12A
330
129
100
AcDbEntity
  8
0
100
AcDbBlockBegin
  2
*D8
 70
1
 10
0.0
 20
0.0
 30
0.0
  3
*D8
  1

  0
LINE
  5
12C
330
129
100
AcDbEntity
  8
0
100
AcDbLine
 10
717.875
 20
426.0
 30
0.0
 11
717.625
 21
426.0
 31
0.0
  0
LINE
  5
12D
330
129
100
AcDbEntity
  8
0
100
AcDbLine
 10
717.875
 20
448.0
 30
0.0
 11
717.625
 21
448.0
 31
0.0
  0
INSERT
  5
12E
330
129
100
AcDbEntity
  8
DIM
100
AcDbBlockReference
  2
_ARCHTICK
 10
718.0
 20
426.0
 30
0.0
 41
0.175
 42
0.175
 50
270.0
  0
INSERT
  5
130
330
129
100
AcDbEntity
  8
DIM
100
AcDbBlockReference
  2
_ARCHTICK
 10
718.0
 20
448.0
 30
0.0
 41
0.175
 42
0.175
 50
90.0
  0
LINE
  5
132
330
129
100
AcDbEntity
  8
0
100
AcDbLine
 10
718.0
 20
426.0
 30
0.0
 11
718.0
 21
448.0
 31
0.0
  0
MTEXT
  5
133
330
129
100
AcDbEntity
  8
DIM
100
AcDbMText
 10
717.775
 20
437.0
 30
0.0
 40
0.25
 71
5
  1
GAP 22 mm [0.87"]
  7
OpenSansCondensed-Light
 50
90.0
  0
POINT
  5
134
330
129
100
AcDbEntity
  8
Defpoints
100
AcDbPoint
 10
718.0
 20
426.0
 30
0.0
  0
POINT
  5
135
330
129
100
AcDbEntity
  8
Defpoints
100
AcDbPoint
 10
718.0
 20
426.0
 30
0.0
  0
POINT
  5
136
330
129
100
AcDbEntity
  8
Defpoints
100
AcDbPoint
 10
718.0
 20
448.0
 30
0.0
  0
ENDBLK
  5
12B
330
129
100
AcDbEntity
  8
0
100
AcDbBlockEnd
  0
BLOCK
  5
155
330
154
100
AcDbEntity
  8
0
100
AcDbBlockBegin
  2
*D9
 70
1
 10
0.0
 20
0.0
 30
0.0
  3
*D9
  1

  0
LINE
  5
157
330
154
100
AcDbEntity
  8
0
100
AcDbLine
 10
1098.0
 20
-0.125
 30
0.0
 11
1098.0
 21
-70.375
 31
0.0
  0
LINE
  5
158
330
154
100
AcDbEntity
  8
0
100
AcDbLine
 10
1683.4
 20
-0.125
 30
0.0
 11
1683.4
 21
-70.375
 31
0.0
  0
INSERT
  5
159
330
154
100
AcDbEntity
  8
DIM
100
AcDbBlockReference
  2
_ARCHTICK
 10
1098.0
 20
-70.0
 30
0.0
 41
0.175
 42
0.175
 50
180.0
  0
INSERT
  5
15B
330
154
100
AcDbEntity
  8
DIM
100
AcDbBlockReference
  2
_ARCHTICK
 10
1683.4
 20
-70.0
 30
0.0
 41
0.175
 42
0.175
  0
LINE
  5
15D
330
154
100
AcDbEntity
  8
0
100
AcDbLine
 10
1098.0
 20
-70.0
 30
0.0
 11
1683.4
 21
-70.0
 31
0.0
  0
MTEXT
  5
15E
330
154
100
AcDbEntity
  8
DIM
100
AcDbMText
 10
1390.7
 20
-69.775
 30
0.0
 40
0.25
 71
5
  1
OVERALL WIDTH 585 mm [23.05"]
  7
OpenSansCondensed-Light
  0
POINT
  5
15F
330
154
100
AcDbEntity
  8
Defpoints
100
AcDbPoint
 10
1098.0
 20
-70.0
 30
0.0
  0
POINT
  5
160
330
154
100
AcDbEntity
  8
Defpoints
100
AcDbPoint
 10
1098.0
 20
0.0
 30
0.0
  0
POINT
  5
161
330
154
100
AcDbEntity
  8
Defpoints
100
AcDbPoint
 10
1683.4
 20
0.0
 30
0.0
  0
ENDBLK
  5
156
330
154
100
AcDbEntity
  8
0
100
AcDbBlockEnd
  0
BLOCK
  5
164
330
163
100
AcDbEntity
  8
0
100
AcDbBlockBegin
  2
*D10
 70
1
 10
0.0
 20
0.0
 30
0.0
  3
*D10
  1

  0
LINE
  5
166
330
163
100
AcDbEntity
  8
0
100
AcDbLine
 10
1110.7
 20
-0.125
 30
0.0
 11
1110.7
 21
-40.375
 31
0.0
  0
LINE
  5
167
330
163
100
AcDbEntity
  8
0
100
AcDbLine
 10
1670.7
 20
-0.125
 30
0.0
 11
1670.7
 21
-40.375
 31
0.0
  0
INSERT
  5
168
330
163
100
AcDbEntity
  8
DIM
100
AcDbBlockReference
  2
_ARCHTICK
 10
1110.7
 20
-40.0
 30
0.0
 41
0.175
 42
0.175
 50
180.0
  0
INSERT
  5
16A
330
163
100
AcDbEntity
  8
DIM
100
AcDbBlockReference
  2
_ARCHTICK
 10
1670.7
 20
-40.0
 30
0.0
 41
0.175
 42
0.175
  0
LINE
  5
16C
330
163
100
AcDbEntity
  8
0
100
AcDbLine
 10
1110.7
 20
-40.0
 30
0.0
 11
1670.7
 21
-40.0
 31
0.0
  0
MTEXT
  5
16D
330
163
100
AcDbEntity
  8
DIM
100
AcDbMText
 10
1390.7
 20
-39.775
 30
0.0
 40
0.25
 71
5
  1
LEG C/C 560 mm [22.05"]
  7
OpenSansCondensed-Light
  0
POINT
  5
16E
330
163
100
AcDbEntity
  8
Defpoints
100
AcDbPoint
 10
1110.7
 20
-40.0
 30
0.0
  0
POINT
  5
16F
330
163
100
AcDbEntity
  8
Defpoints
100
AcDbPoint
 10
1110.7
 20
0.0
 30
0.0
  0
POINT
  5
170
330
163
100
AcDbEntity
  8
Defpoints
100
AcDbPoint
 10
1670.7
 20
0.0
 30
0.0
  0
ENDBLK
  5
165
330
163
100
AcDbEntity
  8
0
100
AcDbBlockEnd
  0
BLOCK
  5
173
330
172
100
AcDbEntity
  8
0
100
AcDbBlockBegin
  2
*D11
 70
1
 10
0.0
 20
0.0
 30
0.0
  3
*D11
  1

  0
LINE
  5
175
330
172
100
AcDbEntity
  8
0
100
AcDbLine
 10
1190.7
 20
344.875
 30
0.0
 11
1190.7
 21
314.625
 31
0.0
  0
LINE
  5
176
330
172
100
AcDbEntity
  8
0
100
AcDbLine
 10
1590.7
 20
344.875
 30
0.0
 11
1590.7
 21
314.625
 31
0.0
  0
INSERT
  5
177
330
172
100
AcDbEntity
  8
DIM
100
AcDbBlockReference
  2
_ARCHTICK
 10
1190.7
 20
315.0
 30
0.0
 41
0.175
 42
0.175
 50
180.0
  0
INSERT
  5
179
330
172
100
AcDbEntity
  8
DIM
100
AcDbBlockReference
  2
_ARCHTICK
 10
1590.7
 20
315.0
 30
0.0
 41
0.175
 42
0.175
  0
LINE
  5
17B
330
172
100
AcDbEntity
  8
0
100
AcDbLine
 10
1190.7
 20
315.0
 30
0.0
 11
1590.7
 21
315.0
 31
0.0
  0
MTEXT
  5
17C
330
172
100
AcDbEntity
  8
DIM
100
AcDbMText
 10
1390.7
 20
315.225
 30
0.0
 40
0.25
 71
5
  1
RAIL C/C 400 mm [15.75"]
  7
OpenSansCondensed-Light
  0
POINT
  5
17D
330
172
100
AcDbEntity
  8
Defpoints
100
AcDbPoint
 10
1190.7
 20
315.0
 30
0.0
  0
POINT
  5
17E
330
172
100
AcDbEntity
  8
Defpoints
100
AcDbPoint
 10
1190.7
 20
345.0
 30
0.0
  0
POINT
  5
17F
330
172
100
AcDbEntity
  8
Defpoints
100
AcDbPoint
 10
1590.7
 20
345.0
 30
0.0
  0
ENDBLK
  5
174
330
172
100
AcDbEntity
  8
0
100
AcDbBlockEnd
  0
BLOCK
  5
182
330
181
100
AcDbEntity
  8
0
100
AcDbBlockBegin
  2
*D12
 70
1
 10
0.0
 20
0.0
 30
0.0
  3
*D12
  1

  0
LINE
  5
184
330
181
100
AcDbEntity
  8
0
100
AcDbLine
 10
1203.4
 20
480.125
 30
0.0
 11
1203.4
 21
480.375
 31
0.0
  0
LINE
  5
185
330
181
100
AcDbEntity
  8
0
100
AcDbLine
 10
1578.0
 20
480.125
 30
0.0
 11
1578.0
 21
480.375
 31
0.0
  0
INSERT
  5
186
330
181
100
AcDbEntity
  8
DIM
100
AcDbBlockReference
  2
_ARCHTICK
 10
1203.4
 20
480.0
 30
0.0
 41
0.175
 42
0.175
 50
180.0
  0
INSERT
  5
188
330
181
100
AcDbEntity
  8
DIM
100
AcDbBlockReference
  2
_ARCHTICK
 10
1578.0
 20
480.0
 30
0.0
 41
0.175
 42
0.175
  0
LINE
  5
18A
330
181
100
AcDbEntity
  8
0
100
AcDbLine
 10
1203.4
 20
480.0
 30
0.0
 11
1578.0
 21
480.0
 31
0.0
  0
MTEXT
  5
18B
330
181
100
AcDbEntity
  8
DIM
100
AcDbMText
 10
1390.7
 20
480.225
 30
0.0
 40
0.25
 71
5
  1
CARRIER WIDTH 375 mm [14.75"]
  7
OpenSansCondensed-Light
  0
POINT
  5
18C
330
181
100
AcDbEntity
  8
Defpoints
100
AcDbPoint
 10
1203.4
 20
480.0
 30
0.0
  0
POINT
  5
18D
330
181
100
AcDbEntity
  8
Defpoints
100
AcDbPoint
 10
1203.4
 20
480.0
 30
0.0
  0
POINT
  5
18E
330
181
100
AcDbEntity
  8
Defpoints
100
AcDbPoint
 10
1578.0
 20
480.0
 30
0.0
  0
ENDBLK
  5
183
330
181
100
AcDbEntity
  8
0
100
AcDbBlockEnd
  0
BLOCK
  5
191
330
190
100
AcDbEntity
  8
0
100
AcDbBlockBegin
  2
*D13
 70
1
 10
0.0
 20
0.0
 30
0.0
  3
*D13
  1

  0
LINE
  5
193
330
190
100
AcDbEntity
  8
0
100
AcDbLine
 10
1713.275
 20
1.5308084989341915e-17
 30
0.0
 11
1713.025
 21
4.592425496802574e-17
 31
0.0
  0
LINE
  5
194
330
190
100
AcDbEntity
  8
0
100
AcDbLine
 10
1713.275
 20
440.0
 30
0.0
 11
1713.025
 21
440.0
 31
0.0
  0
INSERT
  5
195
330
190
100
AcDbEntity
  8
DIM
100
AcDbBlockReference
  2
_ARCHTICK
 10
1713.4
 20
0.0
 30
0.0
 41
0.175
 42
0.175
 50
270.0
  0
INSERT
  5
197
330
190
100
AcDbEntity
  8
DIM
100
AcDbBlockReference
  2
_ARCHTICK
 10
1713.4
 20
440.0
 30
0.0
 41
0.175
 42
0.175
 50
90.0
  0
LINE
  5
199
330
190
100
AcDbEntity
  8
0
100
AcDbLine
 10
1713.4
 20
0.0
 30
0.0
 11
1713.4
 21
440.0
 31
0.0
  0
MTEXT
  5
19A
330
190
100
AcDbEntity
  8
DIM
100
AcDbMText
 10
1713.1750000000002
 20
220.0
 30
0.0
 40
0.25
 71
5
  1
CROSS BAR C/L 440 mm [17.32"]
  7
OpenSansCondensed-Light
 50
90.0
  0
POINT
  5
19B
330
190
100
AcDbEntity
  8
Defpoints
100
AcDbPoint
 10
1713.4
 20
0.0
 30
0.0
  0
POINT
  5
19C
330
190
100
AcDbEntity
  8
Defpoints
100
AcDbPoint
 10
1713.4
 20
0.0
 30
0.0
  0
POINT
  5
19D
330
190
100
AcDbEntity
  8
Defpoints
100
AcDbPoint
 10
1713.4
 20
440.0
 30
0.0
  0
ENDBLK
  5
192
330
190
100
AcDbEntity
  8
0
100
AcDbBlockEnd
  0
BLOCK
  5
1A0
330
19F
100
AcDbEntity
  8
0
100
AcDbBlockBegin
  2
*D14
 70
1
 10
0.0
 20
0.0
 30
0.0
  3
*D14
  1

  0
LINE
  5
1A2
330
19F
100
AcDbEntity
  8
0
100
AcDbLine
 10
1783.275
 20
1.5308084989341915e-17
 30
0.0
 11
1783.025
 21
4.592425496802574e-17
 31
0.0
  0
LINE
  5
1A3
330
19F
100
AcDbEntity
  8
0
100
AcDbLine
 10
1783.275
 20
733.0
 30
0.0
 11
1783.025
 21
733.0
 31
0.0
  0
INSERT
  5
1A4
330
19F
100
AcDbEntity
  8
DIM
100
AcDbBlockReference
  2
_ARCHTICK
 10
1783.4
 20
0.0
 30
0.0
 41
0.175
 42
0.175
 50
270.0
  0
INSERT
  5
1A6
330
19F
100
AcDbEntity
  8
DIM
100
AcDbBlockReference
  2
_ARCHTICK
 10
1783.4
 20
733.0
 30
0.0
 41
0.175
 42
0.175
 50
90.0
  0
LINE
  5
1A8
330
19F
100
AcDbEntity
  8
0
100
AcDbLine
 10
1783.4
 20
0.0
 30
0.0
 11
1783.4
 21
733.0
 31
0.0
  0
MTEXT
  5
1A9
330
19F
100
AcDbEntity
  8
DIM
100
AcDbMText
 10
1783.1750000000002
 20
366.5
 30
0.0
 40
0.25
 71
5
  1
OVERALL HEIGHT 733 mm [28.86"]
  7
OpenSansCondensed-Light
 50
90.0
  0
POINT
  5
1AA
330
19F
100
AcDbEntity
  8
Defpoints
100
AcDbPoint
 10
1783.4
 20
0.0
 30
0.0
  0
POINT
  5
1AB
330
19F
100
AcDbEntity
  8
Defpoints
100
AcDbPoint
 10
1783.4
 20
0.0
 30
0.0
  0
POINT
  5
1AC
330
19F
100
AcDbEntity
  8
Defpoints
100
AcDbPoint
 10
1783.4
 20
733.0
 30
0.0
  0
ENDBLK
  5
1A1
330
19F
100
AcDbEntity
  8
0
100
AcDbBlockEnd
  0
BLOCK
  5
1D2
330
1D1
100
AcDbEntity
  8
0
100
AcDbBlockBegin
  2
*D15
 70
1
 10
0.0
 20
0.0
 30
0.0
  3
*D15
  1

  0
LINE
  5
1D4
330
1D1
100
AcDbEntity
  8
0
100
AcDbLine
 10
2183.275
 20
-1509.7
 30
0.0
 11
2183.025
 21
-1509.7
 31
0.0
  0
LINE
  5
1D5
330
1D1
100
AcDbEntity
  8
0
100
AcDbLine
 10
2183.275
 20
-1001.7
 30
0.0
 11
2183.025
 21
-1001.7
 31
0.0
  0
INSERT
  5
1D6
330
1D1
100
AcDbEntity
  8
DIM
100
AcDbBlockReference
  2
_ARCHTICK
 10
2183.4
 20
-1509.7
 30
0.0
 41
0.175
 42
0.175
 50
270.0
  0
INSERT
  5
1D8
330
1D1
100
AcDbEntity
  8
DIM
100
AcDbBlockReference
  2
_ARCHTICK
 10
2183.4
 20
-1001.7
 30
0.0
 41
0.175
 42
0.175
 50
90.0
  0
LINE
  5
1DA
330
1D1
100
AcDbEntity
  8
0
100
AcDbLine
 10
2183.4
 20
-1509.7
 30
0.0
 11
2183.4
 21
-1001.7
 31
0.0
  0
MTEXT
  5
1DB
330
1D1
100
AcDbEntity
  8
DIM
100
AcDbMText
 10
2183.175
 20
-1255.7
 30
0.0
 40
0.25
 71
5
  1
SLIDE / RAIL LENGTH 508 mm [20.00"] (20 in, 100 lb/pair)
  7
OpenSansCondensed-Light
 50
90.0
  0
POINT
  5
1DC
330
1D1
100
AcDbEntity
  8
Defpoints
100
AcDbPoint
 10
2183.4
 20
-1509.7
 30
0.0
  0
POINT
  5
1DD
330
1D1
100
AcDbEntity
  8
Defpoints
100
AcDbPoint
 10
2183.4
 20
-1509.7
 30
0.0
  0
POINT
  5
1DE
330
1D1
100
AcDbEntity
  8
Defpoints
100
AcDbPoint
 10
2183.4
 20
-1001.7
 30
0.0
  0
ENDBLK
  5
1D3
330
1D1
100
AcDbEntity
  8
0
100
AcDbBlockEnd
  0
BLOCK
  5
1E1
330
1E0
100
AcDbEntity
  8
0
100
AcDbBlockBegin
  2
*D16
 70
1
 10
0.0
 20
0.0
 30
0.0
  3
*D16
  1

  0
LINE
  5
1E3
330
1E0
100
AcDbEntity
  8
0
100
AcDbLine
 10
2003.525
 20
-1455.7
 30
0.0
 11
2033.775
 21
-1455.7
 31
0.0
  0
LINE
  5
1E4
330
1E0
100
AcDbEntity
  8
0
100
AcDbLine
 10
2003.525
 20
-1055.7
 30
0.0
 11
2033.775
 21
-1055.7
 31
0.0
  0
INSERT
  5
1E5
330
1E0
100
AcDbEntity
  8
DIM
100
AcDbBlockReference
  2
_ARCHTICK
 10
2033.4
 20
-1455.7
 30
0.0
 41
0.175
 42
0.175
 50
270.0
  0
INSERT
  5
1E7
330
1E0
100
AcDbEntity
  8
DIM
100
AcDbBlockReference
  2
_ARCHTICK
 10
2033.4
 20
-1055.7
 30
0.0
 41
0.175
 42
0.175
 50
90.0
  0
LINE
  5
1E9
330
1E0
100
AcDbEntity
  8
0
100
AcDbLine
 10
2033.4
 20
-1455.7
 30
0.0
 11
2033.4
 21
-1055.7
 31
0.0
  0
MTEXT
  5
1EA
330
1E0
100
AcDbEntity
  8
DIM
100
AcDbMText
 10
2033.1750000000002
 20
-1255.7
 30
0.0
 40
0.25
 71
5
  1
CARRIER LENGTH 400 mm [15.75"]
  7
OpenSansCondensed-Light
 50
90.0
  0
POINT
  5
1EB
330
1E0
100
AcDbEntity
  8
Defpoints
100
AcDbPoint
 10
2033.4
 20
-1455.7
 30
0.0
  0
POINT
  5
1EC
330
1E0
100
AcDbEntity
  8
Defpoints
100
AcDbPoint
 10
2003.4
 20
-1455.7
 30
0.0
  0
POINT
  5
1ED
330
1E0
100
AcDbEntity
  8
Defpoints
100
AcDbPoint
 10
2003.4
 20
-1055.7
 30
0.0
  0
ENDBLK
  5
1E2
330
1E0
100
AcDbEntity
  8
0
100
AcDbBlockEnd
  0
BLOCK
  5
1F0
330
1EF
100
AcDbEntity
  8
0
100
AcDbBlockBegin
  2
*D17
 70
1
 10
0.0
 20
0.0
 30
0.0
  3
*D17
  1

  0
LINE
  5
1F2
330
1EF
100
AcDbEntity
  8
0
100
AcDbLine
 10
2093.275
 20
-1028.0
 30
0.0
 11
2093.025
 21
-1028.0
 31
0.0
  0
LINE
  5
1F3
330
1EF
100
AcDbEntity
  8
0
100
AcDbLine
 10
2093.275
 20
-577.7
 30
0.0
 11
2093.025
 21
-577.7
 31
0.0
  0
INSERT
  5
1F4
330
1EF
100
AcDbEntity
  8
DIM
100
AcDbBlockReference
  2
_ARCHTICK
 10
2093.4
 20
-1028.0
 30
0.0
 41
0.175
 42
0.175
 50
270.0
  0
INSERT
  5
1F6
330
1EF
100
AcDbEntity
  8
DIM
100
AcDbBlockReference
  2
_ARCHTICK
 10
2093.4
 20
-577.7
 30
0.0
 41
0.175
 42
0.175
 50
90.0
  0
LINE
  5
1F8
330
1EF
100
AcDbEntity
  8
0
100
AcDbLine
 10
2093.4
 20
-1028.0
 30
0.0
 11
2093.4
 21
-577.7
 31
0.0
  0
MTEXT
  5
1F9
330
1EF
100
AcDbEntity
  8
DIM
100
AcDbMText
 10
2093.175
 20
-802.85
 30
0.0
 40
0.25
 71
5
  1
pan overhang past rear leg 450 mm [17.73"]
  7
OpenSansCondensed-Light
 50
90.0
  0
POINT
  5
1FA
330
1EF
100
AcDbEntity
  8
Defpoints
100
AcDbPoint
 10
2093.4
 20
-1028.0
 30
0.0
  0
POINT
  5
1FB
330
1EF
100
AcDbEntity
  8
Defpoints
100
AcDbPoint
 10
2093.4
 20
-1028.0
 30
0.0
  0
POINT
  5
1FC
330
1EF
100
AcDbEntity
  8
Defpoints
100
AcDbPoint
 10
2093.4
 20
-577.7
 30
0.0
  0
ENDBLK
  5
1F1
330
1EF
100
AcDbEntity
  8
0
100
AcDbBlockEnd
  0
BLOCK
  5
1FF
330
1FE
100
AcDbEntity
  8
0
100
AcDbBlockBegin
  2
*D18
 70
1
 10
0.0
 20
0.0
 30
0.0
  3
*D18
  1

  0
LINE
  5
201
330
1FE
100
AcDbEntity
  8
0
100
AcDbLine
 10
1287.875
 20
-1028.0
 30
0.0
 11
1287.625
 21
-1028.0
 31
0.0
  0
LINE
  5
202
330
1FE
100
AcDbEntity
  8
0
100
AcDbLine
 10
1287.875
 20
-917.7
 30
0.0
 11
1287.625
 21
-917.7
 31
0.0
  0
INSERT
  5
203
330
1FE
100
AcDbEntity
  8
DIM
100
AcDbBlockReference
  2
_ARCHTICK
 10
1288.0
 20
-1028.0
 30
0.0
 41
0.175
 42
0.175
 50
270.0
  0
INSERT
  5
205
330
1FE
100
AcDbEntity
  8
DIM
100
AcDbBlockReference
  2
_ARCHTICK
 10
1288.0
 20
-917.7
 30
0.0
 41
0.175
 42
0.175
 50
90.0
  0
LINE
  5
207
330
1FE
100
AcDbEntity
  8
0
100
AcDbLine
 10
1288.0
 20
-1028.0
 30
0.0
 11
1288.0
 21
-917.7
 31
0.0
  0
MTEXT
  5
208
330
1FE
100
AcDbEntity
  8
DIM
100
AcDbMText
 10
1287.775
 20
-972.85
 30
0.0
 40
0.25
 71
5
  1
lift-out clearance 110 mm [4.34"]
  7
OpenSansCondensed-Light
 50
90.0
  0
POINT
  5
209
330
1FE
100
AcDbEntity
  8
Defpoints
100
AcDbPoint
 10
1288.0
 20
-1028.0
 30
0.0
  0
POINT
  5
20A
330
1FE
100
AcDbEntity
  8
Defpoints
100
AcDbPoint
 10
1288.0
 20
-1028.0
 30
0.0
  0
POINT
  5
20B
330
1FE
100
AcDbEntity
  8
Defpoints
100
AcDbPoint
 10
1288.0
 20
-917.7
 30
0.0
  0
ENDBLK
  5
200
330
1FE
100
AcDbEntity
  8
0
100
AcDbBlockEnd
  0
ENDSEC
  0
SECTION
  2
ENTITIES
  0
TEXT
  5
8F
330
17
100
AcDbEntity
  8
TEXT
100
AcDbText
 10
-227.7
 20
820.0
 30
0.0
 40
18.0
  1
SIDE VIEW (front left, pan slides out REAR -> right)
 11
-227.7
 21
820.0
 31
0.0
100
AcDbText
  0
LWPOLYLINE
  5
90
330
17
100
AcDbEntity
  8
OUTLINE
100
AcDbPolyline
 90
4
 70
1
 10
-227.7
 20
260.0
 10
-202.29999999999998
 20
260.0
 10
-202.29999999999998
 20
712.7
 10
-227.7
 20
712.7
  0
LWPOLYLINE
  5
91
330
17
100
AcDbEntity
  8
OUTLINE
100
AcDbPolyline
 90
4
 70
1
 10
-226.0
 20
30.0
 10
-204.0
 20
30.0
 10
-204.0
 20
370.0
 10
-226.0
 20
370.0
  0
LWPOLYLINE
  5
92
330
17
100
AcDbEntity
  8
OUTLINE
100
AcDbPolyline
 90
4
 70
1
 10
-235.0
 20
0.0
 10
-195.0
 20
0.0
 10
-195.0
 20
30.0
 10
-235.0
 20
30.0
  0
CIRCLE
  5
93
330
17
100
AcDbEntity
  8
OUTLINE
100
AcDbCircle
 10
-215.0
 20
270.0
 30
0.0
 40
4.0
  0
CIRCLE
  5
94
330
17
100
AcDbEntity
  8
OUTLINE
100
AcDbCircle
 10
-215.0
 20
295.0
 30
0.0
 40
4.0
  0
CIRCLE
  5
95
330
17
100
AcDbEntity
  8
OUTLINE
100
AcDbCircle
 10
-215.0
 20
320.0
 30
0.0
 40
4.0
  0
CIRCLE
  5
96
330
17
100
AcDbEntity
  8
OUTLINE
100
AcDbCircle
 10
-215.0
 20
345.0
 30
0.0
 40
4.0
  0
CIRCLE
  5
97
330
17
100
AcDbEntity
  8
OUTLINE
100
AcDbCircle
 10
-215.0
 20
370.0
 30
0.0
 40
4.0
  0
LWPOLYLINE
  5
98
330
17
100
AcDbEntity
  8
OUTLINE
100
AcDbPolyline
 90
4
 70
1
 10
202.3
 20
260.0
 10
227.70000000000002
 20
260.0
 10
227.70000000000002
 20
712.7
 10
202.3
 20
712.7
  0
LWPOLYLINE
  5
99
330
17
100
AcDbEntity
  8
OUTLINE
100
AcDbPolyline
 90
4
 70
1
 10
204.0
 20
30.0
 10
226.0
 20
30.0
 10
226.0
 20
370.0
 10
204.0
 20
370.0
  0
LWPOLYLINE
  5
9A
330
17
100
AcDbEntity
  8
OUTLINE
100
AcDbPolyline
 90
4
 70
1
 10
195.0
 20
0.0
 10
235.0
 20
0.0
 10
235.0
 20
30.0
 10
195.0
 20
30.0
  0
CIRCLE
  5
9B
330
17
100
AcDbEntity
  8
OUTLINE
100
AcDbCircle
 10
215.0
 20
270.0
 30
0.0
 40
4.0
  0
CIRCLE
  5
9C
330
17
100
AcDbEntity
  8
OUTLINE
100
AcDbCircle
 10
215.0
 20
295.0
 30
0.0
 40
4.0
  0
CIRCLE
  5
9D
330
17
100
AcDbEntity
  8
OUTLINE
100
AcDbCircle
 10
215.0
 20
320.0
 30
0.0
 40
4.0
  0
CIRCLE
  5
9E
330
17
100
AcDbEntity
  8
OUTLINE
100
AcDbCircle
 10
215.0
 20
345.0
 30
0.0
 40
4.0
  0
CIRCLE
  5
9F
330
17
100
AcDbEntity
  8
OUTLINE
100
AcDbCircle
 10
215.0
 20
370.0
 30
0.0
 40
4.0
  0
LWPOLYLINE
  5
A0
330
17
100
AcDbEntity
  8
OUTLINE
100
AcDbPolyline
 90
4
 70
1
 10
-215.0
 20
687.3
 10
215.0
 20
687.3
 10
215.0
 20
712.6999999999999
 10
-215.0
 20
712.6999999999999
  0
LWPOLYLINE
  5
A1
330
17
100
AcDbEntity
  8
OUTLINE
100
AcDbPolyline
 90
28
 70
1
 10
140.0
 20
727.0
 10
139.7955549577344
 20
728.5529142706151
 10
139.19615242270663
 20
730.0
 10
138.2426406871193
 20
731.2426406871193
 10
137.0
 20
732.1961524227066
 10
135.55291427061513
 20
732.7955549577345
 10
134.0
 20
733.0
 10
-134.0
 20
733.0
 10
-135.55291427061513
 20
732.7955549577345
 10
-137.0
 20
732.1961524227066
 10
-138.2426406871193
 20
731.2426406871193
 10
-139.19615242270663
 20
730.0
 10
-139.7955549577344
 20
728.5529142706151
 10
-140.0
 20
727.0
 10
-140.0
 20
711.0
 10
-139.7955549577344
 20
709.4470857293849
 10
-139.19615242270663
 20
708.0
 10
-138.2426406871193
 20
706.7573593128807
 10
-137.0
 20
705.8038475772934
 10
-135.55291427061513
 20
705.2044450422655
 10
-134.0
 20
705.0
 10
134.0
 20
705.0
 10
135.55291427061513
 20
705.2044450422655
 10
137.0
 20
705.8038475772934
 10
138.2426406871193
 20
706.7573593128807
 10
139.19615242270663
 20
708.0
 10
139.7955549577344
 20
709.4470857293849
 10
140.0
 20
711.0
  0
LWPOLYLINE
  5
A2
330
17
100
AcDbEntity
  8
OUTLINE
100
AcDbPolyline
 90
4
 70
1
 10
-215.0
 20
167.3
 10
215.0
 20
167.3
 10
215.0
 20
192.70000000000002
 10
-215.0
 20
192.70000000000002
  0
CIRCLE
  5
A3
330
17
100
AcDbEntity
  8
OUTLINE
100
AcDbCircle
 10
-215.0
 20
440.0
 30
0.0
 40
12.7
  0
CIRCLE
  5
A4
330
17
100
AcDbEntity
  8
OUTLINE
100
AcDbCircle
 10
-215.0
 20
440.0
 30
0.0
 40
15.7
  0
LWPOLYLINE
  5
A5
330
17
100
AcDbEntity
  8
OUTLINE
100
AcDbPolyline
 90
4
 70
1
 10
-230.7
 20
420.0
 10
-199.29999999999998
 20
420.0
 10
-199.29999999999998
 20
440.0
 10
-230.7
 20
440.0
  0
CIRCLE
  5
A6
330
17
100
AcDbEntity
  8
OUTLINE
100
AcDbCircle
 10
215.0
 20
440.0
 30
0.0
 40
12.7
  0
CIRCLE
  5
A7
330
17
100
AcDbEntity
  8
OUTLINE
100
AcDbCircle
 10
215.0
 20
440.0
 30
0.0
 40
15.7
  0
LWPOLYLINE
  5
A8
330
17
100
AcDbEntity
  8
OUTLINE
100
AcDbPolyline
 90
4
 70
1
 10
199.3
 20
420.0
 10
230.70000000000002
 20
420.0
 10
230.70000000000002
 20
440.0
 10
199.3
 20
440.0
  0
CIRCLE
  5
A9
330
17
100
AcDbEntity
  8
OUTLINE
100
AcDbCircle
 10
215.0
 20
640.0
 30
0.0
 40
12.7
  0
LWPOLYLINE
  5
AA
330
17
100
AcDbEntity
  8
OUTLINE
100
AcDbPolyline
 90
28
 70
1
 10
208.3
 20
730.0
 10
207.9592582628907
 20
732.5881904510252
 10
206.9602540378444
 20
735.0
 10
205.3710678118655
 20
737.0710678118654
 10
203.3
 20
738.6602540378444
 10
200.88819045102522
 20
739.6592582628907
 10
198.3
 20
740.0
 10
173.3
 20
740.0
 10
170.7118095489748
 20
739.6592582628907
 10
168.3
 20
738.6602540378444
 10
166.22893218813454
 20
737.0710678118655
 10
164.63974596215562
 20
735.0
 10
163.64074173710932
 20
732.5881904510252
 10
163.3
 20
730.0
 10
163.3
 20
550.0
 10
163.64074173710932
 20
547.4118095489748
 10
164.63974596215562
 20
545.0
 10
166.22893218813454
 20
542.9289321881346
 10
168.3
 20
541.3397459621556
 10
170.7118095489748
 20
540.3407417371093
 10
173.3
 20
540.0
 10
198.3
 20
540.0
 10
200.88819045102522
 20
540.3407417371093
 10
203.3
 20
541.3397459621556
 10
205.3710678118655
 20
542.9289321881345
 10
206.9602540378444
 20
545.0
 10
207.9592582628907
 20
547.4118095489748
 10
208.3
 20
550.0
  0
TEXT
  5
AB
330
17
100
AcDbEntity
  8
TEXT
100
AcDbText
 10
287.7
 20
630.0
 30
0.0
 40
11.700000000000001
  1
<- BACKREST PAD SP-05
 11
287.7
 21
630.0
 31
0.0
100
AcDbText
  0
TEXT
  5
AC
330
17
100
AcDbEntity
  8
TEXT
100
AcDbText
 10
287.7
 20
611.28
 30
0.0
 40
11.700000000000001
  1
    (in FRONT of back bar)
 11
287.7
 21
611.28
 31
0.0
100
AcDbText
  0
LWPOLYLINE
  5
AD
330
17
100
AcDbEntity
  8
OUTLINE
100
AcDbPolyline
 90
28
 70
1
 10
220.0
 20
462.0
 10
219.72740661031256
 20
464.07055236082016
 10
218.9282032302755
 20
466.0
 10
217.65685424949237
 20
467.65685424949237
 10
216.0
 20
468.9282032302755
 10
214.07055236082016
 20
469.7274066103125
 10
212.0
 20
470.0
 10
-212.0
 20
470.0
 10
-214.07055236082016
 20
469.7274066103125
 10
-216.0
 20
468.9282032302755
 10
-217.65685424949237
 20
467.65685424949237
 10
-218.9282032302755
 20
466.0
 10
-219.72740661031256
 20
464.07055236082016
 10
-220.0
 20
462.0
 10
-220.0
 20
456.0
 10
-219.72740661031256
 20
453.92944763917984
 10
-218.9282032302755
 20
452.0
 10
-217.65685424949237
 20
450.34314575050763
 10
-216.0
 20
449.0717967697245
 10
-214.07055236082016
 20
448.2725933896875
 10
-212.0
 20
448.0
 10
212.0
 20
448.0
 10
214.07055236082016
 20
448.2725933896875
 10
216.0
 20
449.0717967697245
 10
217.65685424949237
 20
450.34314575050763
 10
218.9282032302755
 20
452.0
 10
219.72740661031256
 20
453.92944763917984
 10
220.0
 20
456.0
  0
LWPOLYLINE
  5
AE
330
17
100
AcDbEntity
  8
OUTLINE
100
AcDbPolyline
 90
4
 70
1
 10
-254.0
 20
375.0
 10
254.0
 20
375.0
 10
254.0
 20
420.0
 10
-254.0
 20
420.0
  0
LWPOLYLINE
  5
AF
330
17
100
AcDbEntity
  8
OUTLINE
100
AcDbPolyline
 90
4
 70
1
 10
-200.0
 20
420.0
 10
200.0
 20
420.0
 10
200.0
 20
426.0
 10
-200.0
 20
426.0
  0
LWPOLYLINE
  5
B0
330
17
100
AcDbEntity
  8
OUTLINE
100
AcDbPolyline
 90
28
 70
1
 10
252.0
 20
426.0
 10
251.8977774788672
 20
426.77645713530757
 10
251.59807621135332
 20
427.5
 10
251.12132034355963
 20
428.12132034355966
 10
250.5
 20
428.5980762113533
 10
249.77645713530757
 20
428.8977774788672
 10
249.0
 20
429.0
 10
211.0
 20
429.0
 10
210.22354286469243
 20
428.8977774788672
 10
209.5
 20
428.5980762113533
 10
208.87867965644037
 20
428.12132034355966
 10
208.40192378864668
 20
427.5
 10
208.1022225211328
 20
426.77645713530757
 10
208.0
 20
426.0
 10
208.0
 20
420.0
 10
208.1022225211328
 20
419.22354286469243
 10
208.40192378864668
 20
418.5
 10
208.87867965644037
 20
417.87867965644034
 10
209.5
 20
417.4019237886467
 10
210.22354286469243
 20
417.1022225211328
 10
211.0
 20
417.0
 10
249.0
 20
417.0
 10
249.77645713530757
 20
417.1022225211328
 10
250.5
 20
417.4019237886467
 10
251.12132034355963
 20
417.87867965644034
 10
251.59807621135332
 20
418.5
 10
251.8977774788672
 20
419.22354286469243
 10
252.0
 20
420.0
  0
LINE
  5
B1
330
17
100
AcDbEntity
  8
OUTLINE
100
AcDbLine
 10
-155.0
 20
426.0
 30
0.0
 11
-125.0
 21
276.0
 31
0.0
  0
LINE
  5
B2
330
17
100
AcDbEntity
  8
OUTLINE
100
AcDbLine
 10
155.0
 20
426.0
 30
0.0
 11
125.0
 21
276.0
 31
0.0
  0
LINE
  5
B3
330
17
100
AcDbEntity
  8
OUTLINE
100
AcDbLine
 10
-125.0
 20
276.0
 30
0.0
 11
125.0
 21
276.0
 31
0.0
  0
LWPOLYLINE
  5
B4
330
17
100
AcDbEntity
  8
OUTLINE
100
AcDbPolyline
 90
4
 70
1
 10
-170.0
 20
426.0
 10
170.0
 20
426.0
 10
170.0
 20
428.5
 10
-170.0
 20
428.5
  0
LINE
  5
B5
330
17
100
AcDbEntity
  8
HIDDEN
100
AcDbLine
 10
353.0
 20
426.0
 30
0.0
 11
383.0
 21
276.0
 31
0.0
  0
LINE
  5
B6
330
17
100
AcDbEntity
  8
HIDDEN
100
AcDbLine
 10
663.0
 20
426.0
 30
0.0
 11
633.0
 21
276.0
 31
0.0
  0
LINE
  5
B7
330
17
100
AcDbEntity
  8
HIDDEN
100
AcDbLine
 10
383.0
 20
276.0
 30
0.0
 11
633.0
 21
276.0
 31
0.0
  0
LWPOLYLINE
  5
B8
330
17
100
AcDbEntity
  8
HIDDEN
100
AcDbPolyline
 90
4
 70
1
 10
338.0
 20
426.0
 10
678.0
 20
426.0
 10
678.0
 20
428.5
 10
338.0
 20
428.5
  0
LWPOLYLINE
  5
B9
330
17
100
AcDbEntity
  8
HIDDEN
100
AcDbPolyline
 90
4
 70
1
 10
308.0
 20
420.0
 10
708.0
 20
420.0
 10
708.0
 20
426.0
 10
308.0
 20
426.0
  0
LWPOLYLINE
  5
BA
330
17
100
AcDbEntity
  8
HIDDEN
100
AcDbPolyline
 90
4
 70
1
 10
254.0
 20
378.0
 10
762.0
 20
378.0
 10
762.0
 20
417.0
 10
254.0
 20
417.0
  0
TEXT
  5
BB
330
17
100
AcDbEntity
  8
TEXT
100
AcDbText
 10
568.0
 20
236.0
 30
0.0
 40
13.5
  1
PAN SHOWN EXTENDED (dashed)
 11
568.0
 21
236.0
 31
0.0
100
AcDbText
  0
TEXT
  5
BC
330
17
100
AcDbEntity
  8
TEXT
100
AcDbText
 10
568.0
 20
214.4
 30
0.0
 40
13.5
  1
clears rear legs -> lift straight up
 11
568.0
 21
214.4
 31
0.0
100
AcDbText
  0
LINE
  5
BD
330
17
100
AcDbEntity
  8
OUTLINE
100
AcDbLine
 10
210.0
 20
470.0
 30
0.0
 11
282.93223462011076
 21
883.6192562651274
 31
0.0
  0
LINE
  5
BE
330
17
100
AcDbEntity
  8
OUTLINE
100
AcDbLine
 10
195.2278837048169
 20
472.604722665004
 30
0.0
 11
268.1601183249276
 21
886.2239789301314
 31
0.0
  0
DIMENSION
  5
BF
330
17
100
AcDbEntity
  8
DIM
100
AcDbDimension
280
0
  2
*D1
  3
EZDXF
 10
-227.7
 20
-70.0
 30
0.0
 11
0.0
 21
-69.775
 31
0.0
 70
32
 71
5
  1
OVERALL DEPTH 455 mm [17.93"]
100
AcDbAlignedDimension
 13
-227.7
 23
0.0
 33
0.0
 14
227.7
 24
0.0
 34
0.0
 50
0.0
100
AcDbRotatedDimension
  0
DIMENSION
  5
CE
330
17
100
AcDbEntity
  8
DIM
100
AcDbDimension
280
0
  2
*D2
  3
EZDXF
 10
-215.0
 20
-40.0
 30
0.0
 11
0.0
 21
-39.775
 31
0.0
 70
32
 71
5
  1
LEG C/C 430 mm [16.93"]
100
AcDbAlignedDimension
 13
-215.0
 23
0.0
 33
0.0
 14
215.0
 24
0.0
 34
0.0
 50
0.0
100
AcDbRotatedDimension
  0
DIMENSION
  5
DD
330
17
100
AcDbEntity
  8
DIM
100
AcDbDimension
280
0
  2
*D3
  3
EZDXF
 10
-267.7
 20
0.0
 30
0.0
 11
-267.925
 21
235.0
 31
0.0
 70
32
 71
5
  1
SEAT HEIGHT 470 mm [18.50"] (adj. 16.5"-22.5")
100
AcDbAlignedDimension
 13
-267.7
 23
0.0
 33
0.0
 14
-267.7
 24
470.0
 34
0.0
 50
90.0
100
AcDbRotatedDimension
  0
DIMENSION
  5
EC
330
17
100
AcDbEntity
  8
DIM
100
AcDbDimension
280
0
  2
*D4
  3
EZDXF
 10
-397.7
 20
0.0
 30
0.0
 11
-397.925
 21
138.0
 31
0.0
 70
32
 71
5
  1
PAN CLEARANCE TO FLOOR 276 mm [10.87"]
100
AcDbAlignedDimension
 13
-397.7
 23
0.0
 33
0.0
 14
-397.7
 24
276.0
 34
0.0
 50
90.0
100
AcDbRotatedDimension
  0
DIMENSION
  5
FB
330
17
100
AcDbEntity
  8
DIM
100
AcDbDimension
280
0
  2
*D5
  3
EZDXF
 10
-527.7
 20
0.0
 30
0.0
 11
-527.9250000000001
 21
187.5
 31
0.0
 70
32
 71
5
  1
SLIDE UNDERSIDE 375 mm [14.76"]
100
AcDbAlignedDimension
 13
-527.7
 23
0.0
 33
0.0
 14
-527.7
 24
375.0
 34
0.0
 50
90.0
100
AcDbRotatedDimension
  0
DIMENSION
  5
10A
330
17
100
AcDbEntity
  8
DIM
100
AcDbDimension
280
0
  2
*D6
  3
EZDXF
 10
0.0
 20
740.0
 30
0.0
 11
254.0
 21
740.225
 31
0.0
 70
32
 71
5
  1
SLIDE TRAVEL 508 mm [20.00"] (to REAR)
100
AcDbAlignedDimension
 13
0.0
 23
740.0
 33
0.0
 14
508.0
 24
740.0
 34
0.0
 50
0.0
100
AcDbRotatedDimension
  0
DIMENSION
  5
119
330
17
100
AcDbEntity
  8
DIM
100
AcDbDimension
280
0
  2
*D7
  3
EZDXF
 10
227.7
 20
216.0
 30
0.0
 11
282.85
 21
216.225
 31
0.0
 70
32
 71
5
  1
lift-out clearance 110 mm [4.34"]
100
AcDbAlignedDimension
 13
227.7
 23
216.0
 33
0.0
 14
338.0
 24
216.0
 34
0.0
 50
0.0
100
AcDbRotatedDimension
  0
DIMENSION
  5
128
330
17
100
AcDbEntity
  8
DIM
100
AcDbDimension
280
0
  2
*D8
  3
EZDXF
 10
718.0
 20
426.0
 30
0.0
 11
717.775
 21
437.0
 31
0.0
 70
32
 71
5
  1
GAP 22 mm [0.87"]
100
AcDbAlignedDimension
 13
718.0
 23
426.0
 33
0.0
 14
718.0
 24
448.0
 34
0.0
 50
90.0
100
AcDbRotatedDimension
  0
TEXT
  5
137
330
17
100
AcDbEntity
  8
TEXT
100
AcDbText
 10
1098.0
 20
820.0
 30
0.0
 40
18.0
  1
FRONT VIEW (slides on side rails, section through pan)
 11
1098.0
 21
820.0
 31
0.0
100
AcDbText
  0
LWPOLYLINE
  5
138
330
17
100
AcDbEntity
  8
OUTLINE
100
AcDbPolyline
 90
4
 70
1
 10
1098.0
 20
260.0
 10
1123.4
 20
260.0
 10
1123.4
 20
712.7
 10
1098.0
 20
712.7
  0
LWPOLYLINE
  5
139
330
17
100
AcDbEntity
  8
OUTLINE
100
AcDbPolyline
 90
4
 70
1
 10
1099.7
 20
30.0
 10
1121.7
 20
30.0
 10
1121.7
 20
370.0
 10
1099.7
 20
370.0
  0
LWPOLYLINE
  5
13A
330
17
100
AcDbEntity
  8
OUTLINE
100
AcDbPolyline
 90
4
 70
1
 10
1090.7
 20
0.0
 10
1130.7
 20
0.0
 10
1130.7
 20
30.0
 10
1090.7
 20
30.0
  0
LWPOLYLINE
  5
13B
330
17
100
AcDbEntity
  8
OUTLINE
100
AcDbPolyline
 90
28
 70
1
 10
1135.7
 20
727.0
 10
1135.4955549577344
 20
728.5529142706151
 10
1134.8961524227066
 20
730.0
 10
1133.9426406871194
 20
731.2426406871193
 10
1132.7
 20
732.1961524227066
 10
1131.252914270615
 20
732.7955549577345
 10
1129.7
 20
733.0
 10
1091.7
 20
733.0
 10
1090.147085729385
 20
732.7955549577345
 10
1088.7
 20
732.1961524227066
 10
1087.4573593128807
 20
731.2426406871193
 10
1086.5038475772935
 20
730.0
 10
1085.9044450422657
 20
728.5529142706151
 10
1085.7
 20
727.0
 10
1085.7
 20
711.0
 10
1085.9044450422657
 20
709.4470857293849
 10
1086.5038475772935
 20
708.0
 10
1087.4573593128807
 20
706.7573593128807
 10
1088.7
 20
705.8038475772934
 10
1090.147085729385
 20
705.2044450422655
 10
1091.7
 20
705.0
 10
1129.7
 20
705.0
 10
1131.252914270615
 20
705.2044450422655
 10
1132.7
 20
705.8038475772934
 10
1133.9426406871194
 20
706.7573593128807
 10
1134.8961524227066
 20
708.0
 10
1135.4955549577344
 20
709.4470857293849
 10
1135.7
 20
711.0
  0
LWPOLYLINE
  5
13C
330
17
100
AcDbEntity
  8
OUTLINE
100
AcDbPolyline
 90
4
 70
1
 10
1658.0
 20
260.0
 10
1683.4
 20
260.0
 10
1683.4
 20
712.7
 10
1658.0
 20
712.7
  0
LWPOLYLINE
  5
13D
330
17
100
AcDbEntity
  8
OUTLINE
100
AcDbPolyline
 90
4
 70
1
 10
1659.7
 20
30.0
 10
1681.7
 20
30.0
 10
1681.7
 20
370.0
 10
1659.7
 20
370.0
  0
LWPOLYLINE
  5
13E
330
17
100
AcDbEntity
  8
OUTLINE
100
AcDbPolyline
 90
4
 70
1
 10
1650.7
 20
0.0
 10
1690.7
 20
0.0
 10
1690.7
 20
30.0
 10
1650.7
 20
30.0
  0
LWPOLYLINE
  5
13F
330
17
100
AcDbEntity
  8
OUTLINE
100
AcDbPolyline
 90
28
 70
1
 10
1695.7
 20
727.0
 10
1695.4955549577344
 20
728.5529142706151
 10
1694.8961524227066
 20
730.0
 10
1693.9426406871194
 20
731.2426406871193
 10
1692.7
 20
732.1961524227066
 10
1691.252914270615
 20
732.7955549577345
 10
1689.7
 20
733.0
 10
1651.7
 20
733.0
 10
1650.147085729385
 20
732.7955549577345
 10
1648.7
 20
732.1961524227066
 10
1647.4573593128807
 20
731.2426406871193
 10
1646.5038475772935
 20
730.0
 10
1645.9044450422657
 20
728.5529142706151
 10
1645.7
 20
727.0
 10
1645.7
 20
711.0
 10
1645.9044450422657
 20
709.4470857293849
 10
1646.5038475772935
 20
708.0
 10
1647.4573593128807
 20
706.7573593128807
 10
1648.7
 20
705.8038475772934
 10
1650.147085729385
 20
705.2044450422655
 10
1651.7
 20
705.0
 10
1689.7
 20
705.0
 10
1691.252914270615
 20
705.2044450422655
 10
1692.7
 20
705.8038475772934
 10
1693.9426406871194
 20
706.7573593128807
 10
1694.8961524227066
 20
708.0
 10
1695.4955549577344
 20
709.4470857293849
 10
1695.7
 20
711.0
  0
LWPOLYLINE
  5
140
330
17
100
AcDbEntity
  8
OUTLINE
100
AcDbPolyline
 90
4
 70
1
 10
1110.7
 20
427.3
 10
1670.7
 20
427.3
 10
1670.7
 20
452.7
 10
1110.7
 20
452.7
  0
LWPOLYLINE
  5
141
330
17
100
AcDbEntity
  8
HIDDEN
100
AcDbPolyline
 90
4
 70
1
 10
1110.7
 20
627.3
 10
1670.7
 20
627.3
 10
1670.7
 20
652.6999999999999
 10
1110.7
 20
652.6999999999999
  0
LWPOLYLINE
  5
142
330
17
100
AcDbEntity
  8
OUTLINE
100
AcDbPolyline
 90
28
 70
1
 10
1620.7
 20
722.0
 10
1620.0866648732033
 20
726.6587428118454
 10
1618.28845726812
 20
731.0
 10
1615.427922061358
 20
734.7279220613578
 10
1611.7
 20
737.5884572681199
 10
1607.3587428118453
 20
739.3866648732032
 10
1602.7
 20
740.0
 10
1178.7
 20
740.0
 10
1174.0412571881548
 20
739.3866648732032
 10
1169.7
 20
737.5884572681199
 10
1165.972077938642
 20
734.7279220613578
 10
1163.11154273188
 20
731.0
 10
1161.3133351267968
 20
726.6587428118454
 10
1160.7
 20
722.0
 10
1160.7
 20
558.0
 10
1161.3133351267968
 20
553.3412571881546
 10
1163.1115427318803
 20
549.0
 10
1165.972077938642
 20
545.2720779386422
 10
1169.7
 20
542.4115427318801
 10
1174.0412571881548
 20
540.6133351267968
 10
1178.7
 20
540.0
 10
1602.7
 20
540.0
 10
1607.3587428118453
 20
540.6133351267968
 10
1611.7
 20
542.4115427318801
 10
1615.427922061358
 20
545.2720779386422
 10
1618.2884572681198
 20
549.0
 10
1620.0866648732033
 20
553.3412571881546
 10
1620.7
 20
558.0
  0
LWPOLYLINE
  5
143
330
17
100
AcDbEntity
  8
OUTLINE
100
AcDbPolyline
 90
28
 70
1
 10
1610.7
 20
462.0
 10
1610.4274066103126
 20
464.07055236082016
 10
1609.6282032302756
 20
466.0
 10
1608.3568542494925
 20
467.65685424949237
 10
1606.7
 20
468.9282032302755
 10
1604.7705523608201
 20
469.7274066103125
 10
1602.7
 20
470.0
 10
1178.7
 20
470.0
 10
1176.62944763918
 20
469.7274066103125
 10
1174.7
 20
468.9282032302755
 10
1173.0431457505076
 20
467.65685424949237
 10
1171.7717967697245
 20
466.0
 10
1170.9725933896875
 20
464.07055236082016
 10
1170.7
 20
462.0
 10
1170.7
 20
456.0
 10
1170.9725933896875
 20
453.92944763917984
 10
1171.7717967697245
 20
452.0
 10
1173.0431457505076
 20
450.34314575050763
 10
1174.7
 20
449.0717967697245
 10
1176.62944763918
 20
448.2725933896875
 10
1178.7
 20
448.0
 10
1602.7
 20
448.0
 10
1604.7705523608201
 20
448.2725933896875
 10
1606.7
 20
449.0717967697245
 10
1608.3568542494925
 20
450.34314575050763
 10
1609.6282032302756
 20
452.0
 10
1610.4274066103126
 20
453.92944763917984
 10
1610.7
 20
456.0
  0
LWPOLYLINE
  5
144
330
17
100
AcDbEntity
  8
OUTLINE
100
AcDbPolyline
 90
4
 70
1
 10
1187.7
 20
375.0
 10
1190.7
 20
375.0
 10
1190.7
 20
420.0
 10
1187.7
 20
420.0
  0
LWPOLYLINE
  5
145
330
17
100
AcDbEntity
  8
OUTLINE
100
AcDbPolyline
 90
4
 70
1
 10
1150.7
 20
417.0
 10
1190.7
 20
417.0
 10
1190.7
 20
420.0
 10
1150.7
 20
420.0
  0
LWPOLYLINE
  5
146
330
17
100
AcDbEntity
  8
OUTLINE
100
AcDbPolyline
 90
4
 70
1
 10
1190.7
 20
375.0
 10
1203.4
 20
375.0
 10
1203.4
 20
420.0
 10
1190.7
 20
420.0
  0
LWPOLYLINE
  5
147
330
17
100
AcDbEntity
  8
OUTLINE
100
AcDbPolyline
 90
4
 70
1
 10
1155.7
 20
420.0
 10
1185.7
 20
420.0
 10
1185.7
 20
440.0
 10
1155.7
 20
440.0
  0
LWPOLYLINE
  5
148
330
17
100
AcDbEntity
  8
OUTLINE
100
AcDbPolyline
 90
4
 70
1
 10
1155.7
 20
424.3
 10
1185.7
 20
424.3
 10
1185.7
 20
455.7
 10
1155.7
 20
455.7
  0
LWPOLYLINE
  5
149
330
17
100
AcDbEntity
  8
OUTLINE
100
AcDbPolyline
 90
4
 70
1
 10
1590.7
 20
375.0
 10
1593.7
 20
375.0
 10
1593.7
 20
420.0
 10
1590.7
 20
420.0
  0
LWPOLYLINE
  5
14A
330
17
100
AcDbEntity
  8
OUTLINE
100
AcDbPolyline
 90
4
 70
1
 10
1590.7
 20
417.0
 10
1630.7
 20
417.0
 10
1630.7
 20
420.0
 10
1590.7
 20
420.0
  0
LWPOLYLINE
  5
14B
330
17
100
AcDbEntity
  8
OUTLINE
100
AcDbPolyline
 90
4
 70
1
 10
1578.0
 20
375.0
 10
1590.7
 20
375.0
 10
1590.7
 20
420.0
 10
1578.0
 20
420.0
  0
LWPOLYLINE
  5
14C
330
17
100
AcDbEntity
  8
OUTLINE
100
AcDbPolyline
 90
4
 70
1
 10
1595.7
 20
420.0
 10
1625.7
 20
420.0
 10
1625.7
 20
440.0
 10
1595.7
 20
440.0
  0
LWPOLYLINE
  5
14D
330
17
100
AcDbEntity
  8
OUTLINE
100
AcDbPolyline
 90
4
 70
1
 10
1595.7
 20
424.3
 10
1625.7
 20
424.3
 10
1625.7
 20
455.7
 10
1595.7
 20
455.7
  0
LWPOLYLINE
  5
14E
330
17
100
AcDbEntity
  8
OUTLINE
100
AcDbPolyline
 90
4
 70
1
 10
1203.4
 20
420.0
 10
1578.0
 20
420.0
 10
1578.0
 20
426.0
 10
1203.4
 20
426.0
  0
LINE
  5
14F
330
17
100
AcDbEntity
  8
OUTLINE
100
AcDbLine
 10
1235.7
 20
426.0
 30
0.0
 11
1265.7
 21
276.0
 31
0.0
  0
LINE
  5
150
330
17
100
AcDbEntity
  8
OUTLINE
100
AcDbLine
 10
1545.7
 20
426.0
 30
0.0
 11
1515.7
 21
276.0
 31
0.0
  0
LINE
  5
151
330
17
100
AcDbEntity
  8
OUTLINE
100
AcDbLine
 10
1265.7
 20
276.0
 30
0.0
 11
1515.7
 21
276.0
 31
0.0
  0
LWPOLYLINE
  5
152
330
17
100
AcDbEntity
  8
OUTLINE
100
AcDbPolyline
 90
4
 70
1
 10
1220.7
 20
426.0
 10
1560.7
 20
426.0
 10
1560.7
 20
428.5
 10
1220.7
 20
428.5
  0
DIMENSION
  5
153
330
17
100
AcDbEntity
  8
DIM
100
AcDbDimension
280
0
  2
*D9
  3
EZDXF
 10
1098.0
 20
-70.0
 30
0.0
 11
1390.7
 21
-69.775
 31
0.0
 70
32
 71
5
  1
OVERALL WIDTH 585 mm [23.05"]
100
AcDbAlignedDimension
 13
1098.0
 23
0.0
 33
0.0
 14
1683.4
 24
0.0
 34
0.0
 50
0.0
100
AcDbRotatedDimension
  0
DIMENSION
  5
162
330
17
100
AcDbEntity
  8
DIM
100
AcDbDimension
280
0
  2
*D10
  3
EZDXF
 10
1110.7
 20
-40.0
 30
0.0
 11
1390.7
 21
-39.775
 31
0.0
 70
32
 71
5
  1
LEG C/C 560 mm [22.05"]
100
AcDbAlignedDimension
 13
1110.7
 23
0.0
 33
0.0
 14
1670.7
 24
0.0
 34
0.0
 50
0.0
100
AcDbRotatedDimension
  0
DIMENSION
  5
171
330
17
100
AcDbEntity
  8
DIM
100
AcDbDimension
280
0
  2
*D11
  3
EZDXF
 10
1190.7
 20
315.0
 30
0.0
 11
1390.7
 21
315.225
 31
0.0
 70
32
 71
5
  1
RAIL C/C 400 mm [15.75"]
100
AcDbAlignedDimension
 13
1190.7
 23
345.0
 33
0.0
 14
1590.7
 24
345.0
 34
0.0
 50
0.0
100
AcDbRotatedDimension
  0
DIMENSION
  5
180
330
17
100
AcDbEntity
  8
DIM
100
AcDbDimension
280
0
  2
*D12
  3
EZDXF
 10
1203.4
 20
480.0
 30
0.0
 11
1390.7
 21
480.225
 31
0.0
 70
32
 71
5
  1
CARRIER WIDTH 375 mm [14.75"]
100
AcDbAlignedDimension
 13
1203.4
 23
480.0
 33
0.0
 14
1578.0
 24
480.0
 34
0.0
 50
0.0
100
AcDbRotatedDimension
  0
DIMENSION
  5
18F
330
17
100
AcDbEntity
  8
DIM
100
AcDbDimension
280
0
  2
*D13
  3
EZDXF
 10
1713.4
 20
0.0
 30
0.0
 11
1713.1750000000002
 21
220.0
 31
0.0
 70
32
 71
5
  1
CROSS BAR C/L 440 mm [17.32"]
100
AcDbAlignedDimension
 13
1713.4
 23
0.0
 33
0.0
 14
1713.4
 24
440.0
 34
0.0
 50
90.0
100
AcDbRotatedDimension
  0
DIMENSION
  5
19E
330
17
100
AcDbEntity
  8
DIM
100
AcDbDimension
280
0
  2
*D14
  3
EZDXF
 10
1783.4
 20
0.0
 30
0.0
 11
1783.1750000000002
 21
366.5
 31
0.0
 70
32
 71
5
  1
OVERALL HEIGHT 733 mm [28.86"]
100
AcDbAlignedDimension
 13
1783.4
 23
0.0
 33
0.0
 14
1783.4
 24
733.0
 34
0.0
 50
90.0
100
AcDbRotatedDimension
  0
TEXT
  5
1AD
330
17
100
AcDbEntity
  8
TEXT
100
AcDbText
 10
1318.0
 20
-260.0
 30
0.0
 40
18.0
  1
TOP VIEW (seat & lid removed) - pan closed, extended (rear) position dashed
 11
1318.0
 21
-260.0
 31
0.0
100
AcDbText
  0
CIRCLE
  5
1AE
330
17
100
AcDbEntity
  8
OUTLINE
100
AcDbCircle
 10
1410.7
 20
-1470.7
 30
0.0
 40
12.7
  0
CIRCLE
  5
1AF
330
17
100
AcDbEntity
  8
OUTLINE
100
AcDbCircle
 10
1410.7
 20
-1470.7
 30
0.0
 40
11.0
  0
CIRCLE
  5
1B0
330
17
100
AcDbEntity
  8
OUTLINE
100
AcDbCircle
 10
1410.7
 20
-1040.7
 30
0.0
 40
12.7
  0
CIRCLE
  5
1B1
330
17
100
AcDbEntity
  8
OUTLINE
100
AcDbCircle
 10
1410.7
 20
-1040.7
 30
0.0
 40
11.0
  0
LWPOLYLINE
  5
1B2
330
17
100
AcDbEntity
  8
OUTLINE
100
AcDbPolyline
 90
4
 70
1
 10
1398.0
 20
-1470.7
 10
1423.4
 20
-1470.7
 10
1423.4
 20
-1040.7
 10
1398.0
 20
-1040.7
  0
LWPOLYLINE
  5
1B3
330
17
100
AcDbEntity
  8
OUTLINE
100
AcDbPolyline
 90
4
 70
1
 10
1450.7
 20
-1509.7
 10
1490.7
 20
-1509.7
 10
1490.7
 20
-1001.7
 10
1450.7
 20
-1001.7
  0
LWPOLYLINE
  5
1B4
330
17
100
AcDbEntity
  8
OUTLINE
100
AcDbPolyline
 90
4
 70
1
 10
1490.7
 20
-1509.7
 10
1503.4
 20
-1509.7
 10
1503.4
 20
-1001.7
 10
1490.7
 20
-1001.7
  0
LWPOLYLINE
  5
1B5
330
17
100
AcDbEntity
  8
OUTLINE
100
AcDbPolyline
 90
4
 70
1
 10
1455.7
 20
-1486.4
 10
1485.7
 20
-1486.4
 10
1485.7
 20
-1455.0
 10
1455.7
 20
-1455.0
  0
LWPOLYLINE
  5
1B6
330
17
100
AcDbEntity
  8
OUTLINE
100
AcDbPolyline
 90
4
 70
1
 10
1455.7
 20
-1056.4
 10
1485.7
 20
-1056.4
 10
1485.7
 20
-1025.0
 10
1455.7
 20
-1025.0
  0
CIRCLE
  5
1B7
330
17
100
AcDbEntity
  8
OUTLINE
100
AcDbCircle
 10
1970.7
 20
-1470.7
 30
0.0
 40
12.7
  0
CIRCLE
  5
1B8
330
17
100
AcDbEntity
  8
OUTLINE
100
AcDbCircle
 10
1970.7
 20
-1470.7
 30
0.0
 40
11.0
  0
CIRCLE
  5
1B9
330
17
100
AcDbEntity
  8
OUTLINE
100
AcDbCircle
 10
1970.7
 20
-1040.7
 30
0.0
 40
12.7
  0
CIRCLE
  5
1BA
330
17
100
AcDbEntity
  8
OUTLINE
100
AcDbCircle
 10
1970.7
 20
-1040.7
 30
0.0
 40
11.0
  0
LWPOLYLINE
  5
1BB
330
17
100
AcDbEntity
  8
OUTLINE
100
AcDbPolyline
 90
4
 70
1
 10
1958.0
 20
-1470.7
 10
1983.4
 20
-1470.7
 10
1983.4
 20
-1040.7
 10
1958.0
 20
-1040.7
  0
LWPOLYLINE
  5
1BC
330
17
100
AcDbEntity
  8
OUTLINE
100
AcDbPolyline
 90
4
 70
1
 10
1890.7
 20
-1509.7
 10
1930.7
 20
-1509.7
 10
1930.7
 20
-1001.7
 10
1890.7
 20
-1001.7
  0
LWPOLYLINE
  5
1BD
330
17
100
AcDbEntity
  8
OUTLINE
100
AcDbPolyline
 90
4
 70
1
 10
1878.0
 20
-1509.7
 10
1890.7
 20
-1509.7
 10
1890.7
 20
-1001.7
 10
1878.0
 20
-1001.7
  0
LWPOLYLINE
  5
1BE
330
17
100
AcDbEntity
  8
OUTLINE
100
AcDbPolyline
 90
4
 70
1
 10
1895.7
 20
-1486.4
 10
1925.7
 20
-1486.4
 10
1925.7
 20
-1455.0
 10
1895.7
 20
-1455.0
  0
LWPOLYLINE
  5
1BF
330
17
100
AcDbEntity
  8
OUTLINE
100
AcDbPolyline
 90
4
 70
1
 10
1895.7
 20
-1056.4
 10
1925.7
 20
-1056.4
 10
1925.7
 20
-1025.0
 10
1895.7
 20
-1025.0
  0
LWPOLYLINE
  5
1C0
330
17
100
AcDbEntity
  8
OUTLINE
100
AcDbPolyline
 90
4
 70
1
 10
1410.7
 20
-1483.4
 10
1970.7
 20
-1483.4
 10
1970.7
 20
-1458.0
 10
1410.7
 20
-1458.0
  0
LWPOLYLINE
  5
1C1
330
17
100
AcDbEntity
  8
OUTLINE
100
AcDbPolyline
 90
4
 70
1
 10
1410.7
 20
-1053.4
 10
1970.7
 20
-1053.4
 10
1970.7
 20
-1028.0
 10
1410.7
 20
-1028.0
  0
LWPOLYLINE
  5
1C2
330
17
100
AcDbEntity
  8
OUTLINE
100
AcDbPolyline
 90
28
 70
1
 10
1878.0
 20
-1115.7
 10
1875.955549577344
 20
-1100.1708572938487
 10
1869.9615242270663
 20
-1085.7
 10
1860.4264068711927
 20
-1073.2735931288073
 10
1848.0
 20
-1063.7384757729337
 10
1833.5291427061513
 20
-1057.744450422656
 10
1818.0
 20
-1055.7
 10
1563.4
 20
-1055.7
 10
1547.8708572938488
 20
-1057.744450422656
 10
1533.4
 20
-1063.7384757729337
 10
1520.9735931288074
 20
-1073.273593128807
 10
1511.4384757729338
 20
-1085.7
 10
1505.444450422656
 20
-1100.1708572938487
 10
1503.4
 20
-1115.7
 10
1503.4
 20
-1395.7
 10
1505.444450422656
 20
-1411.2291427061514
 10
1511.4384757729338
 20
-1425.7
 10
1520.9735931288071
 20
-1438.1264068711928
 10
1533.4
 20
-1447.6615242270664
 10
1547.8708572938488
 20
-1453.6555495773441
 10
1563.4
 20
-1455.7
 10
1818.0
 20
-1455.7
 10
1833.529142706151
 20
-1453.6555495773441
 10
1848.0
 20
-1447.6615242270664
 10
1860.4264068711927
 20
-1438.126406871193
 10
1869.9615242270663
 20
-1425.7
 10
1875.955549577344
 20
-1411.2291427061514
 10
1878.0
 20
-1395.7
  0
CIRCLE
  5
1C3
330
17
100
AcDbEntity
  8
OUTLINE
100
AcDbCircle
 10
1690.7
 20
-1255.7
 30
0.0
 40
160.0
  0
CIRCLE
  5
1C4
330
17
100
AcDbEntity
  8
OUTLINE
100
AcDbCircle
 10
1690.7
 20
-1255.7
 30
0.0
 40
170.0
  0
LWPOLYLINE
  5
1C5
330
17
100
AcDbEntity
  8
OUTLINE
100
AcDbPolyline
 90
28
 70
1
 10
1750.7
 20
-1014.7
 10
1750.5296291314453
 20
-1013.4059047744875
 10
1750.0301270189223
 20
-1012.2
 10
1749.2355339059327
 20
-1011.1644660940673
 10
1748.2
 20
-1010.3698729810778
 10
1746.9940952255126
 20
-1009.8703708685547
 10
1745.7
 20
-1009.7
 10
1635.7
 20
-1009.7
 10
1634.4059047744875
 20
-1009.8703708685547
 10
1633.2
 20
-1010.3698729810778
 10
1632.1644660940674
 20
-1011.1644660940673
 10
1631.3698729810778
 20
-1012.2
 10
1630.8703708685548
 20
-1013.4059047744875
 10
1630.7
 20
-1014.7
 10
1630.7
 20
-1050.7
 10
1630.8703708685548
 20
-1051.9940952255126
 10
1631.3698729810778
 20
-1053.2
 10
1632.1644660940674
 20
-1054.2355339059327
 10
1633.2
 20
-1055.0301270189223
 10
1634.4059047744875
 20
-1055.5296291314453
 10
1635.7
 20
-1055.7
 10
1745.7
 20
-1055.7
 10
1746.9940952255126
 20
-1055.5296291314453
 10
1748.2
 20
-1055.0301270189223
 10
1749.2355339059327
 20
-1054.2355339059327
 10
1750.0301270189223
 20
-1053.2
 10
1750.5296291314453
 20
-1051.9940952255126
 10
1750.7
 20
-1050.7
  0
ELLIPSE
  5
1C6
330
17
100
AcDbEntity
  8
OUTLINE
100
AcDbEllipse
 10
1690.7
 20
-1255.7
 30
0.0
 11
150.0
 21
0.0
 31
0.0
 40
0.7333333333333333
 41
0.0
 42
6.283185307179586
  0
TEXT
  5
1C7
330
17
100
AcDbEntity
  8
TEXT
100
AcDbText
 10
1630.7
 20
-1137.7
 30
0.0
 40
12.6
  1
seat aperture (ref.)
 11
1630.7
 21
-1137.7
 31
0.0
100
AcDbText
  0
CIRCLE
  5
1C8
330
17
100
AcDbEntity
  8
HIDDEN
100
AcDbCircle
 10
1690.7
 20
-1255.7
 30
0.0
 40
220.0
  0
TEXT
  5
1C9
330
17
100
AcDbEntity
  8
TEXT
100
AcDbText
 10
1460.7
 20
-1505.7
 30
0.0
 40
12.6
  1
ROUND SEAT dia 440 mm [17.32"] (dashed, ref.)
 11
1460.7
 21
-1505.7
 31
0.0
100
AcDbText
  0
LWPOLYLINE
  5
1CA
330
17
100
AcDbEntity
  8
HIDDEN
100
AcDbPolyline
 90
28
 70
1
 10
1878.0
 20
-607.7
 10
1875.955549577344
 20
-592.1708572938488
 10
1869.9615242270663
 20
-577.7
 10
1860.4264068711927
 20
-565.2735931288072
 10
1848.0
 20
-555.7384757729337
 10
1833.5291427061513
 20
-549.744450422656
 10
1818.0
 20
-547.7
 10
1563.4
 20
-547.7
 10
1547.8708572938488
 20
-549.744450422656
 10
1533.4
 20
-555.7384757729337
 10
1520.9735931288074
 20
-565.2735931288072
 10
1511.4384757729338
 20
-577.7
 10
1505.444450422656
 20
-592.1708572938488
 10
1503.4
 20
-607.7
 10
1503.4
 20
-887.7
 10
1505.444450422656
 20
-903.2291427061513
 10
1511.4384757729338
 20
-917.7
 10
1520.9735931288071
 20
-930.1264068711929
 10
1533.4
 20
-939.6615242270664
 10
1547.8708572938488
 20
-945.6555495773441
 10
1563.4
 20
-947.7
 10
1818.0
 20
-947.7
 10
1833.529142706151
 20
-945.6555495773441
 10
1848.0
 20
-939.6615242270664
 10
1860.4264068711927
 20
-930.1264068711929
 10
1869.9615242270663
 20
-917.7
 10
1875.955549577344
 20
-903.2291427061513
 10
1878.0
 20
-887.7
  0
CIRCLE
  5
1CB
330
17
100
AcDbEntity
  8
HIDDEN
100
AcDbCircle
 10
1690.7
 20
-747.7
 30
0.0
 40
170.0
  0
CIRCLE
  5
1CC
330
17
100
AcDbEntity
  8
HIDDEN
100
AcDbCircle
 10
1690.7
 20
-747.7
 30
0.0
 40
125.0
  0
LINE
  5
1CD
330
17
100
AcDbEntity
  8
CENTER
100
AcDbLine
 10
1690.7
 20
-1543.4
 30
0.0
 11
1690.7
 21
-447.70000000000005
 31
0.0
  0
TEXT
  5
1CE
330
17
100
AcDbEntity
  8
TEXT
100
AcDbText
 10
1710.7
 20
-487.70000000000005
 30
0.0
 40
14.4
  1
REAR / CAREGIVER SIDE  
 11
1710.7
 21
-487.70000000000005
 31
0.0
100
AcDbText
  0
TEXT
  5
1CF
330
17
100
AcDbEntity
  8
TEXT
100
AcDbText
 10
1710.7
 20
-1573.4
 30
0.0
 40
14.4
  1
FRONT (user's knees)
 11
1710.7
 21
-1573.4
 31
0.0
100
AcDbText
  0
DIMENSION
  5
1D0
330
17
100
AcDbEntity
  8
DIM
100
AcDbDimension
280
0
  2
*D15
  3
EZDXF
 10
2183.4
 20
-1509.7
 30
0.0
 11
2183.175
 21
-1255.7
 31
0.0
 70
32
 71
5
  1
SLIDE / RAIL LENGTH 508 mm [20.00"] (20 in, 100 lb/pair)
100
AcDbAlignedDimension
 13
2183.4
 23
-1509.7
 33
0.0
 14
2183.4
 24
-1001.7
 34
0.0
 50
90.0
100
AcDbRotatedDimension
  0
DIMENSION
  5
1DF
330
17
100
AcDbEntity
  8
DIM
100
AcDbDimension
280
0
  2
*D16
  3
EZDXF
 10
2033.4
 20
-1455.7
 30
0.0
 11
2033.1750000000002
 21
-1255.7
 31
0.0
 70
32
 71
5
  1
CARRIER LENGTH 400 mm [15.75"]
100
AcDbAlignedDimension
 13
2003.4
 23
-1455.7
 33
0.0
 14
2003.4
 24
-1055.7
 34
0.0
 50
90.0
100
AcDbRotatedDimension
  0
DIMENSION
  5
1EE
330
17
100
AcDbEntity
  8
DIM
100
AcDbDimension
280
0
  2
*D17
  3
EZDXF
 10
2093.4
 20
-1028.0
 30
0.0
 11
2093.175
 21
-802.85
 31
0.0
 70
32
 71
5
  1
pan overhang past rear leg 450 mm [17.73"]
100
AcDbAlignedDimension
 13
2093.4
 23
-1028.0
 33
0.0
 14
2093.4
 24
-577.7
 34
0.0
 50
90.0
100
AcDbRotatedDimension
  0
DIMENSION
  5
1FD
330
17
100
AcDbEntity
  8
DIM
100
AcDbDimension
280
0
  2
*D18
  3
EZDXF
 10
1288.0
 20
-1028.0
 30
0.0
 11
1287.775
 21
-972.85
 31
0.0
 70
32
 71
5
  1
lift-out clearance 110 mm [4.34"]
100
AcDbAlignedDimension
 13
1288.0
 23
-1028.0
 33
0.0
 14
1288.0
 24
-917.7
 34
0.0
 50
90.0
100
AcDbRotatedDimension
  0
TEXT
  5
20C
330
17
100
AcDbEntity
  8
TEXT
100
AcDbText
 10
-527.7
 20
-1783.4
 30
0.0
 40
12.6
  1
NOTES
 11
-527.7
 21
-1783.4
 31
0.0
100
AcDbText
  0
TEXT
  5
20D
330
17
100
AcDbEntity
  8
TEXT
100
AcDbText
 10
-527.7
 20
-1803.5600000000002
 30
0.0
 40
12.6
  1
1. Base chair: standard folding aluminium commode, 1" (25.4 mm) x 1.5 mm wall tube, telescoping legs, 5-position height adjust.
 11
-527.7
 21
-1803.5600000000002
 31
0.0
100
AcDbText
  0
TEXT
  5
20E
330
17
100
AcDbEntity
  8
TEXT
100
AcDbText
 10
-527.7
 20
-1823.72
 30
0.0
 40
12.6
  1
2. Slide-out pan module: two 40x40x3 aluminium angle rails (P/N SP-06) run front-to-back under the seat and clamp to the
 11
-527.7
 21
-1823.72
 31
0.0
100
AcDbText
  0
TEXT
  5
20F
330
17
100
AcDbEntity
  8
TEXT
100
AcDbText
 10
-527.7
 20
-1843.88
 30
0.0
 40
12.6
  1
   existing front & rear cross bars with 4x tube clamps (2 per rail) - no welding, retrofit-able.
 11
-527.7
 21
-1843.88
 31
0.0
100
AcDbText
  0
TEXT
  5
210
330
17
100
AcDbEntity
  8
TEXT
100
AcDbText
 10
-527.7
 20
-1864.0400000000002
 30
0.0
 40
12.6
  1
3. Two 20" full-extension ball-bearing drawer slides, 45 mm x 12.7 mm, stainless or zinc-plated, min. 100 lb (45 kg) rated
 11
-527.7
 21
-1864.0400000000002
 31
0.0
100
AcDbText
  0
TEXT
  5
211
330
17
100
AcDbEntity
  8
TEXT
100
AcDbText
 10
-527.7
 20
-1884.2
 30
0.0
 40
12.6
  1
   per pair, with soft-close/detent, bolted to the rail webs.
 11
-527.7
 21
-1884.2
 31
0.0
100
AcDbText
  0
TEXT
  5
212
330
17
100
AcDbEntity
  8
TEXT
100
AcDbText
 10
-527.7
 20
-1904.3600000000001
 30
0.0
 40
12.6
  1
4. Carrier plate (blue) rides on slides; pan hangs by its rim in the round cutout and lifts straight out when extended.
 11
-527.7
 21
-1904.3600000000001
 31
0.0
100
AcDbText
  0
TEXT
  5
213
330
17
100
AcDbEntity
  8
TEXT
100
AcDbText
 10
-527.7
 20
-1924.52
 30
0.0
 40
12.6
  1
5. Pan slides out to the REAR of the seated user - caregiver stands behind the chair. Backrest pad (SP-05) and back bar are
 11
-527.7
 21
-1924.52
 31
0.0
100
AcDbText
  0
TEXT
  5
214
330
17
100
AcDbEntity
  8
TEXT
100
AcDbText
 10
-527.7
 20
-1944.68
 30
0.0
 40
12.6
  1
   above the pan path; rear cross bar sits above the rails so nothing obstructs travel.
 11
-527.7
 21
-1944.68
 31
0.0
100
AcDbText
  0
TEXT
  5
215
330
17
100
AcDbEntity
  8
TEXT
100
AcDbText
 10
-527.7
 20
-1964.8400000000001
 30
0.0
 40
12.6
  1
6. Spring latch / magnetic catch holds carrier in CLOSED position; positive stop at full extension.
 11
-527.7
 21
-1964.8400000000001
 31
0.0
100
AcDbText
  0
TEXT
  5
216
330
17
100
AcDbEntity
  8
TEXT
100
AcDbText
 10
-527.7
 20
-1985.0
 30
0.0
 40
12.6
  1
7. All edges deburred. Static load: 300 lb (136 kg) user. Materials in Sheet 4 BOM.
 11
-527.7
 21
-1985.0
 31
0.0
100
AcDbText
  0
ENDSEC
  0
SECTION
  2
OBJECTS
  0
DICTIONARY
  5
A
330
0
100
AcDbDictionary
281
1
  3
ACAD_COLOR
350
B
  3
ACAD_GROUP
350
C
  3
ACAD_LAYOUT
350
D
  3
ACAD_MATERIAL
350
E
  3
ACAD_MLEADERSTYLE
350
F
  3
ACAD_MLINESTYLE
350
10
  3
ACAD_PLOTSETTINGS
350
11
  3
ACAD_PLOTSTYLENAME
350
12
  3
ACAD_SCALELIST
350
14
  3
ACAD_TABLESTYLE
350
15
  3
ACAD_VISUALSTYLE
350
16
  3
EZDXF_META
350
2D
  0
DICTIONARY
  5
B
330
A
100
AcDbDictionary
281
1
  0
DICTIONARY
  5
C
330
A
100
AcDbDictionary
281
1
  0
DICTIONARY
  5
D
330
A
100
AcDbDictionary
281
1
  3
Model
350
1A
  3
Layout1
350
1E
  0
DICTIONARY
  5
E
330
A
100
AcDbDictionary
281
1
  3
ByBlock
350
1F
  3
ByLayer
350
20
  3
Global
350
21
  0
DICTIONARY
  5
F
330
A
100
AcDbDictionary
281
1
  3
Standard
350
2C
  0
DICTIONARY
  5
10
330
A
100
AcDbDictionary
281
1
  3
Standard
350
22
  0
DICTIONARY
  5
11
330
A
100
AcDbDictionary
281
1
  0
ACDBDICTIONARYWDFLT
  5
12
330
A
100
AcDbDictionary
281
1
  3
Normal
350
13
100
AcDbDictionaryWithDefault
340
13
  0
ACDBPLACEHOLDER
  5
13
330
12
  0
DICTIONARY
  5
14
330
A
100
AcDbDictionary
281
1
  0
DICTIONARY
  5
15
330
A
100
AcDbDictionary
281
1
  0
DICTIONARY
  5
16
330
A
100
AcDbDictionary
281
1
  3
2dWireframe
350
5A
  3
Basic
350
5B
  3
Brighten
350
5C
  3
ColorChange
350
5D
  3
Conceptual
350
5E
  3
Dim
350
5F
  3
EdgeColorOff
350
60
  3
Facepattern
350
61
  3
Flat
350
62
  3
FlatWithEdges
350
63
  3
Gouraud
350
64
  3
GouraudWithEdges
350
65
  3
Hidden
350
66
  3
JitterOff
350
67
  3
Linepattern
350
68
  3
Modeling
350
69
  3
OverhangOff
350
6A
  3
Realistic
350
6B
  3
Shaded
350
6C
  3
Shaded with edges
350
6D
  3
Shades of Gray
350
6E
  3
Sketchy
350
6F
  3
Thicken
350
70
  3
Wireframe
350
71
  3
X-Ray
350
72
  0
LAYOUT
  5
1A
330
D
100
AcDbPlotSettings
  1

  4
A3
  6

 40
7.5
 41
20.0
 42
7.5
 43
20.0
 44
420.0
 45
297.0
 46
0.0
 47
0.0
 48
0.0
 49
0.0
140
0.0
141
0.0
142
1.0
143
1.0
 70
1024
 72
1
 73
0
 74
5
  7

 75
16
 76
0
 77
2
 78
300
147
1.0
148
0.0
149
0.0
100
AcDbLayout
  1
Model
 70
1
 71
0
 10
0.0
 20
0.0
 11
420.0
 21
297.0
 12
0.0
 22
0.0
 32
0.0
 14
1e+20
 24
1e+20
 34
1e+20
 15
-1e+20
 25
-1e+20
 35
-1e+20
146
0.0
 13
0.0
 23
0.0
 33
0.0
 16
1.0
 26
0.0
 36
0.0
 17
0.0
 27
1.0
 37
0.0
 76
1
330
17
  0
LAYOUT
  5
1E
330
D
100
AcDbPlotSettings
  1

  4
A3
  6

 40
7.5
 41
20.0
 42
7.5
 43
20.0
 44
420.0
 45
297.0
 46
0.0
 47
0.0
 48
0.0
 49
0.0
140
0.0
141
0.0
142
1.0
143
1.0
 70
0
 72
1
 73
0
 74
5
  7

 75
16
 76
0
 77
2
 78
300
147
1.0
148
0.0
149
0.0
100
AcDbLayout
  1
Layout1
 70
1
 71
1
 10
0.0
 20
0.0
 11
420.0
 21
297.0
 12
0.0
 22
0.0
 32
0.0
 14
1e+20
 24
1e+20
 34
1e+20
 15
-1e+20
 25
-1e+20
 35
-1e+20
146
0.0
 13
0.0
 23
0.0
 33
0.0
 16
1.0
 26
0.0
 36
0.0
 17
0.0
 27
1.0
 37
0.0
 76
1
330
1B
  0
MATERIAL
  5
1F
102
{ACAD_REACTORS
330
E
102
}
330
E
100
AcDbMaterial
  1
ByBlock
  2

 70
0
 40
1.0
 71
1
 41
1.0
 91
-1023410177
 42
1.0
 72
1
  3

 73
1
 74
1
 75
1
 44
0.5
 73
0
 45
1.0
 46
1.0
 77
1
  4

 78
1
 79
1
170
1
 48
1.0
171
1
  6

172
1
173
1
174
1
140
1.0
141
1.0
175
1
  7

176
1
177
1
178
1
143
1.0
179
1
  8

270
1
271
1
272
1
145
1.0
146
1.0
273
1
  9

274
1
275
1
276
1
 42
1.0
 72
1
  3

 73
1
 74
1
 75
1
 94
63
  0
MATERIAL
  5
20
102
{ACAD_REACTORS
330
E
102
}
330
E
100
AcDbMaterial
  1
ByLayer
  2

 70
0
 40
1.0
 71
1
 41
1.0
 91
-1023410177
 42
1.0
 72
1
  3

 73
1
 74
1
 75
1
 44
0.5
 73
0
 45
1.0
 46
1.0
 77
1
  4

 78
1
 79
1
170
1
 48
1.0
171
1
  6

172
1
173
1
174
1
140
1.0
141
1.0
175
1
  7

176
1
177
1
178
1
143
1.0
179
1
  8

270
1
271
1
272
1
145
1.0
146
1.0
273
1
  9

274
1
275
1
276
1
 42
1.0
 72
1
  3

 73
1
 74
1
 75
1
 94
63
  0
MATERIAL
  5
21
102
{ACAD_REACTORS
330
E
102
}
330
E
100
AcDbMaterial
  1
Global
  2

 70
0
 40
1.0
 71
1
 41
1.0
 91
-1023410177
 42
1.0
 72
1
  3

 73
1
 74
1
 75
1
 44
0.5
 73
0
 45
1.0
 46
1.0
 77
1
  4

 78
1
 79
1
170
1
 48
1.0
171
1
  6

172
1
173
1
174
1
140
1.0
141
1.0
175
1
  7

176
1
177
1
178
1
143
1.0
179
1
  8

270
1
271
1
272
1
145
1.0
146
1.0
273
1
  9

274
1
275
1
276
1
 42
1.0
 72
1
  3

 73
1
 74
1
 75
1
 94
63
  0
MLINESTYLE
  5
22
102
{ACAD_REACTORS
330
10
102
}
330
10
100
AcDbMlineStyle
  2
Standard
 70
0
  3

 62
256
 51
90.0
 52
90.0
 71
2
 49
0.5
 62
256
  6
BYLAYER
 49
-0.5
 62
256
  6
BYLAYER
  0
MLEADERSTYLE
  5
2C
102
{ACAD_REACTORS
330
F
102
}
330
F
100
AcDbMLeaderStyle
179
2
170
2
171
1
172
0
 90
2
 40
0.0
 41
0.0
173
1
 91
-1056964608
 92
-2
290
1
 42
2.0
291
1
 43
8.0
  3
Standard
 44
4.0
300

342
29
174
1
175
1
176
0
178
1
 93
-1056964608
 45
4.0
292
0
297
0
 46
4.0
 94
-1056964608
 47
1.0
 49
1.0
140
1.0
294
1
141
0.0
177
0
142
1.0
295
0
296
0
143
3.75
271
0
272
9
273
9
  0
DICTIONARY
  5
2D
330
A
100
AcDbDictionary
280
1
281
1
  3
CREATED_BY_EZDXF
350
2E
  3
WRITTEN_BY_EZDXF
350
219
  0
DICTIONARYVAR
  5
2E
330
2D
100
DictionaryVariables
280
0
  1
1.4.4 @ 2026-09-13T01:26:41.014401+00:00
  0
VISUALSTYLE
  5
5A
102
{ACAD_REACTORS
330
16
102
}
330
16
100
AcDbVisualStyle
  2
2dWireframe
 70
4
 90
0
 40
0.6
 62
7
290
0
291
0
  0
VISUALSTYLE
  5
5B
102
{ACAD_REACTORS
330
16
102
}
330
16
100
AcDbVisualStyle
  2
Basic
 70
7
 90
1
 40
0.6
 62
7
290
0
291
1
  0
VISUALSTYLE
  5
5C
102
{ACAD_REACTORS
330
16
102
}
330
16
100
AcDbVisualStyle
  2
Brighten
 70
12
 90
2
 40
0.6
 62
7
290
0
291
1
  0
VISUALSTYLE
  5
5D
102
{ACAD_REACTORS
330
16
102
}
330
16
100
AcDbVisualStyle
  2
ColorChange
 70
16
 90
2
 40
0.6
 62
8
290
0
291
1
  0
VISUALSTYLE
  5
5E
102
{ACAD_REACTORS
330
16
102
}
330
16
100
AcDbVisualStyle
  2
Conceptual
 70
9
 90
3
 40
0.6
 62
7
290
0
291
0
  0
VISUALSTYLE
  5
5F
102
{ACAD_REACTORS
330
16
102
}
330
16
100
AcDbVisualStyle
  2
Dim
 70
11
 90
2
 40
0.6
 62
7
290
0
291
1
  0
VISUALSTYLE
  5
60
102
{ACAD_REACTORS
330
16
102
}
330
16
100
AcDbVisualStyle
  2
EdgeColorOff
 70
22
 90
2
 40
0.6
 62
7
290
0
291
1
  0
VISUALSTYLE
  5
61
102
{ACAD_REACTORS
330
16
102
}
330
16
100
AcDbVisualStyle
  2
Facepattern
 70
15
 90
2
 40
0.6
 62
7
290
0
291
1
  0
VISUALSTYLE
  5
62
102
{ACAD_REACTORS
330
16
102
}
330
16
100
AcDbVisualStyle
  2
Flat
 70
0
 90
2
 40
0.6
 62
7
290
0
291
1
  0
VISUALSTYLE
  5
63
102
{ACAD_REACTORS
330
16
102
}
330
16
100
AcDbVisualStyle
  2
FlatWithEdges
 70
1
 90
2
 40
0.6
 62
7
290
0
291
1
  0
VISUALSTYLE
  5
64
102
{ACAD_REACTORS
330
16
102
}
330
16
100
AcDbVisualStyle
  2
Gouraud
 70
2
 90
2
 40
0.6
 62
7
290
0
291
1
  0
VISUALSTYLE
  5
65
102
{ACAD_REACTORS
330
16
102
}
330
16
100
AcDbVisualStyle
  2
GouraudWithEdges
 70
3
 90
2
 40
0.6
 62
7
290
0
291
1
  0
VISUALSTYLE
  5
66
102
{ACAD_REACTORS
330
16
102
}
330
16
100
AcDbVisualStyle
  2
Hidden
 70
6
 90
1
 40
0.6
 62
7
290
0
291
0
  0
VISUALSTYLE
  5
67
102
{ACAD_REACTORS
330
16
102
}
330
16
100
AcDbVisualStyle
  2
JitterOff
 70
20
 90
2
 40
0.6
 62
7
290
0
291
1
  0
VISUALSTYLE
  5
68
102
{ACAD_REACTORS
330
16
102
}
330
16
100
AcDbVisualStyle
  2
Linepattern
 70
14
 90
2
 40
0.6
 62
7
290
0
291
1
  0
VISUALSTYLE
  5
69
102
{ACAD_REACTORS
330
16
102
}
330
16
100
AcDbVisualStyle
  2
Modeling
 70
10
 90
2
 40
0.6
 62
7
290
0
291
0
  0
VISUALSTYLE
  5
6A
102
{ACAD_REACTORS
330
16
102
}
330
16
100
AcDbVisualStyle
  2
OverhangOff
 70
21
 90
2
 40
0.6
 62
7
290
0
291
1
  0
VISUALSTYLE
  5
6B
102
{ACAD_REACTORS
330
16
102
}
330
16
100
AcDbVisualStyle
  2
Realistic
 70
8
 90
2
 40
0.6
 62
7
290
0
291
0
  0
VISUALSTYLE
  5
6C
102
{ACAD_REACTORS
330
16
102
}
330
16
100
AcDbVisualStyle
  2
Shaded
 70
27
 90
2
 40
0.6
 62
7
290
0
291
0
  0
VISUALSTYLE
  5
6D
102
{ACAD_REACTORS
330
16
102
}
330
16
100
AcDbVisualStyle
  2
Shaded with edges
 70
26
 90
2
 40
0.6
 62
7
290
0
291
0
  0
VISUALSTYLE
  5
6E
102
{ACAD_REACTORS
330
16
102
}
330
16
100
AcDbVisualStyle
  2
Shades of Gray
 70
23
 90
2
 40
0.6
 62
7
290
0
291
0
  0
VISUALSTYLE
  5
6F
102
{ACAD_REACTORS
330
16
102
}
330
16
100
AcDbVisualStyle
  2
Sketchy
 70
24
 90
1
 40
0.6
 62
7
290
0
291
0
  0
VISUALSTYLE
  5
70
102
{ACAD_REACTORS
330
16
102
}
330
16
100
AcDbVisualStyle
  2
Thicken
 70
13
 90
2
 40
0.6
 62
7
290
0
291
1
  0
VISUALSTYLE
  5
71
102
{ACAD_REACTORS
330
16
102
}
330
16
100
AcDbVisualStyle
  2
Wireframe
 70
5
 90
0
 40
0.6
 62
7
290
0
291
0
  0
VISUALSTYLE
  5
72
102
{ACAD_REACTORS
330
16
102
}
330
16
100
AcDbVisualStyle
  2
X-Ray
 70
25
 90
2
 40
0.5
 62
7
290
0
291
0
  0
DICTIONARYVAR
  5
219
330
2D
100
DictionaryVariables
280
0
  1
1.4.4 @ 2026-09-13T01:26:41.631559+00:00
  0
ENDSEC
  0
EOF
