  0
SECTION
  2
HEADER
  9
$ACADVER
  1
AC1024
  9
$ACADMAINTVER
 70
6
  9
$DWGCODEPAGE
  3
ANSI_1252
  9
$LASTSAVEDBY
  1
ezdxf
  9
$INSBASE
 10
0.0
 20
0.0
 30
0.0
  9
$EXTMIN
 10
1e+20
 20
1e+20
 30
1e+20
  9
$EXTMAX
 10
-1e+20
 20
-1e+20
 30
-1e+20
  9
$LIMMIN
 10
0.0
 20
0.0
  9
$LIMMAX
 10
420.0
 20
297.0
  9
$ORTHOMODE
 70
0
  9
$REGENMODE
 70
1
  9
$FILLMODE
 70
1
  9
$QTEXTMODE
 70
0
  9
$MIRRTEXT
 70
1
  9
$LTSCALE
 40
1.0
  9
$ATTMODE
 70
1
  9
$TEXTSIZE
 40
2.5
  9
$TRACEWID
 40
1.0
  9
$TEXTSTYLE
  7
OpenSans
  9
$CLAYER
  8
0
  9
$CELTYPE
  6
ByLayer
  9
$CECOLOR
 62
256
  9
$CELTSCALE
 40
1.0
  9
$DISPSILH
 70
0
  9
$DIMSCALE
 40
1.0
  9
$DIMASZ
 40
0.175
  9
$DIMEXO
 40
0.125
  9
$DIMDLI
 40
3.75
  9
$DIMRND
 40
0.0
  9
$DIMDLE
 40
0.0
  9
$DIMEXE
 40
0.375
  9
$DIMTP
 40
0.0
  9
$DIMTM
 40
0.0
  9
$DIMTXT
 40
0.25
  9
$DIMCEN
 40
2.5
  9
$DIMTSZ
 40
0.0
  9
$DIMTOL
 70
0
  9
$DIMLIM
 70
0
  9
$DIMTIH
 70
0
  9
$DIMTOH
 70
0
  9
$DIMSE1
 70
0
  9
$DIMSE2
 70
0
  9
$DIMTAD
 70
1
  9
$DIMZIN
 70
12
  9
$DIMBLK
  1
ARCHTICK
  9
$DIMASO
 70
1
  9
$DIMSHO
 70
1
  9
$DIMPOST
  1

  9
$DIMAPOST
  1

  9
$DIMALT
 70
0
  9
$DIMALTD
 70
3
  9
$DIMALTF
 40
0.03937007874
  9
$DIMLFAC
 40
100.0
  9
$DIMTOFL
 70
1
  9
$DIMTVP
 40
0.0
  9
$DIMTIX
 70
0
  9
$DIMSOXD
 70
0
  9
$DIMSAH
 70
0
  9
$DIMBLK1
  1

  9
$DIMBLK2
  1

  9
$DIMSTYLE
  2
EZDXF
  9
$DIMCLRD
 70
0
  9
$DIMCLRE
 70
0
  9
$DIMCLRT
 70
0
  9
$DIMTFAC
 40
0.5
  9
$DIMGAP
 40
0.1
  9
$DIMJUST
 70
0
  9
$DIMSD1
 70
0
  9
$DIMSD2
 70
0
  9
$DIMTOLJ
 70
0
  9
$DIMTZIN
 70
8
  9
$DIMALTZ
 70
0
  9
$DIMALTTZ
 70
0
  9
$DIMUPT
 70
1
  9
$DIMDEC
 70
2
  9
$DIMTDEC
 70
2
  9
$DIMALTU
 70
2
  9
$DIMALTTD
 70
3
  9
$DIMTXSTY
  7
OpenSansCondensed-Light
  9
$DIMAUNIT
 70
0
  9
$DIMADEC
 70
2
  9
$DIMALTRND
 40
0.0
  9
$DIMAZIN
 70
3
  9
$DIMDSEP
 70
46
  9
$DIMATFIT
 70
3
  9
$DIMFRAC
 70
0
  9
$DIMLDRBLK
  1

  9
$DIMLUNIT
 70
2
  9
$DIMLWD
 70
-2
  9
$DIMLWE
 70
-2
  9
$DIMTMOVE
 70
2
  9
$DIMFXL
 40
1.0
  9
$DIMFXLON
 70
0
  9
$DIMJOGANG
 40
0.785398163397
  9
$DIMTFILL
 70
0
  9
$DIMTFILLCLR
 70
0
  9
$DIMARCSYM
 70
0
  9
$DIMLTYPE
  6

  9
$DIMLTEX1
  6

  9
$DIMLTEX2
  6

  9
$DIMTXTDIRECTION
 70
0
  9
$LUNITS
 70
2
  9
$LUPREC
 70
4
  9
$SKETCHINC
 40
1.0
  9
$FILLETRAD
 40
10.0
  9
$AUNITS
 70
0
  9
$AUPREC
 70
2
  9
$MENU
  1
.
  9
$ELEVATION
 40
0.0
  9
$PELEVATION
 40
0.0
  9
$THICKNESS
 40
0.0
  9
$LIMCHECK
 70
0
  9
$CHAMFERA
 40
0.0
  9
$CHAMFERB
 40
0.0
  9
$CHAMFERC
 40
0.0
  9
$CHAMFERD
 40
0.0
  9
$SKPOLY
 70
0
  9
$TDCREATE
 40
2461290.0554166664
  9
$TDUCREATE
 40
2458532.153996898
  9
$TDUPDATE
 40
2461290.0554166664
  9
$TDUUPDATE
 40
2458532.1544311
  9
$TDINDWG
 40
0.0
  9
$TDUSRTIMER
 40
0.0
  9
$USRTIMER
 70
1
  9
$ANGBASE
 50
0.0
  9
$ANGDIR
 70
0
  9
$PDMODE
 70
0
  9
$PDSIZE
 40
0.0
  9
$PLINEWID
 40
0.0
  9
$SPLFRAME
 70
0
  9
$SPLINETYPE
 70
6
  9
$SPLINESEGS
 70
8
  9
$HANDSEED
  5
1FD
  9
$SURFTAB1
 70
6
  9
$SURFTAB2
 70
6
  9
$SURFTYPE
 70
6
  9
$SURFU
 70
6
  9
$SURFV
 70
6
  9
$UCSBASE
  2

  9
$UCSNAME
  2

  9
$UCSORG
 10
0.0
 20
0.0
 30
0.0
  9
$UCSXDIR
 10
1.0
 20
0.0
 30
0.0
  9
$UCSYDIR
 10
0.0
 20
1.0
 30
0.0
  9
$UCSORTHOREF
  2

  9
$UCSORTHOVIEW
 70
0
  9
$UCSORGTOP
 10
0.0
 20
0.0
 30
0.0
  9
$UCSORGBOTTOM
 10
0.0
 20
0.0
 30
0.0
  9
$UCSORGLEFT
 10
0.0
 20
0.0
 30
0.0
  9
$UCSORGRIGHT
 10
0.0
 20
0.0
 30
0.0
  9
$UCSORGFRONT
 10
0.0
 20
0.0
 30
0.0
  9
$UCSORGBACK
 10
0.0
 20
0.0
 30
0.0
  9
$PUCSBASE
  2

  9
$PUCSNAME
  2

  9
$PUCSORG
 10
0.0
 20
0.0
 30
0.0
  9
$PUCSXDIR
 10
1.0
 20
0.0
 30
0.0
  9
$PUCSYDIR
 10
0.0
 20
1.0
 30
0.0
  9
$PUCSORTHOREF
  2

  9
$PUCSORTHOVIEW
 70
0
  9
$PUCSORGTOP
 10
0.0
 20
0.0
 30
0.0
  9
$PUCSORGBOTTOM
 10
0.0
 20
0.0
 30
0.0
  9
$PUCSORGLEFT
 10
0.0
 20
0.0
 30
0.0
  9
$PUCSORGRIGHT
 10
0.0
 20
0.0
 30
0.0
  9
$PUCSORGFRONT
 10
0.0
 20
0.0
 30
0.0
  9
$PUCSORGBACK
 10
0.0
 20
0.0
 30
0.0
  9
$USERI1
 70
0
  9
$USERI2
 70
0
  9
$USERI3
 70
0
  9
$USERI4
 70
0
  9
$USERI5
 70
0
  9
$USERR1
 40
0.0
  9
$USERR2
 40
0.0
  9
$USERR3
 40
0.0
  9
$USERR4
 40
0.0
  9
$USERR5
 40
0.0
  9
$WORLDVIEW
 70
1
  9
$SHADEDGE
 70
3
  9
$SHADEDIF
 70
70
  9
$TILEMODE
 70
1
  9
$MAXACTVP
 70
64
  9
$PINSBASE
 10
0.0
 20
0.0
 30
0.0
  9
$PLIMCHECK
 70
0
  9
$PEXTMIN
 10
1e+20
 20
1e+20
 30
1e+20
  9
$PEXTMAX
 10
-1e+20
 20
-1e+20
 30
-1e+20
  9
$PLIMMIN
 10
0.0
 20
0.0
  9
$PLIMMAX
 10
420.0
 20
297.0
  9
$UNITMODE
 70
0
  9
$VISRETAIN
 70
1
  9
$PLINEGEN
 70
0
  9
$PSLTSCALE
 70
1
  9
$TREEDEPTH
 70
3020
  9
$CMLSTYLE
  2
Standard
  9
$CMLJUST
 70
0
  9
$CMLSCALE
 40
20.0
  9
$PROXYGRAPHICS
 70
1
  9
$MEASUREMENT
 70
1
  9
$CELWEIGHT
370
-1
  9
$ENDCAPS
280
0
  9
$JOINSTYLE
280
0
  9
$LWDISPLAY
290
0
  9
$INSUNITS
 70
4
  9
$HYPERLINKBASE
  1

  9
$STYLESHEET
  1

  9
$XEDIT
290
1
  9
$CEPSNTYPE
380
0
  9
$PSTYLEMODE
290
1
  9
$FINGERPRINTGUID
  2
{0F8E7854-E70C-446E-BA0E-B01D4EAF5257}
  9
$VERSIONGUID
  2
{F034CA72-83DC-4F38-A2EB-BD913DFA1133}
  9
$EXTNAMES
290
1
  9
$PSVPSCALE
 40
0.0
  9
$OLESTARTUP
290
0
  9
$SORTENTS
280
127
  9
$INDEXCTL
280
0
  9
$HIDETEXT
280
1
  9
$XCLIPFRAME
280
1
  9
$HALOGAP
280
0
  9
$OBSCOLOR
 70
257
  9
$OBSLTYPE
280
0
  9
$INTERSECTIONDISPLAY
280
0
  9
$INTERSECTIONCOLOR
 70
257
  9
$DIMASSOC
280
2
  9
$PROJECTNAME
  1

  9
$CAMERADISPLAY
290
0
  9
$LENSLENGTH
 40
50.0
  9
$CAMERAHEIGHT
 40
0.0
  9
$STEPSPERSEC
 40
24.0
  9
$STEPSIZE
 40
100.0
  9
$3DDWFPREC
 40
2.0
  9
$PSOLWIDTH
 40
0.005
  9
$PSOLHEIGHT
 40
0.08
  9
$LOFTANG1
 40
1.570796326795
  9
$LOFTANG2
 40
1.570796326795
  9
$LOFTMAG1
 40
0.0
  9
$LOFTMAG2
 40
0.0
  9
$LOFTPARAM
 70
7
  9
$LOFTNORMALS
280
1
  9
$LATITUDE
 40
37.795
  9
$LONGITUDE
 40
-122.394
  9
$NORTHDIRECTION
 40
0.0
  9
$TIMEZONE
 70
-8000
  9
$LIGHTGLYPHDISPLAY
280
1
  9
$TILEMODELIGHTSYNCH
280
1
  9
$CMATERIAL
347
20
  9
$SOLIDHIST
280
0
  9
$SHOWHIST
280
1
  9
$DWFFRAME
280
2
  9
$DGNFRAME
280
2
  9
$REALWORLDSCALE
290
1
  9
$INTERFERECOLOR
 62
256
  9
$CSHADOW
280
0
  9
$SHADOWPLANELOCATION
 40
0.0
  0
ENDSEC
  0
SECTION
  2
CLASSES
  0
CLASS
  1
ACDBDICTIONARYWDFLT
  2
AcDbDictionaryWithDefault
  3
ObjectDBX Classes
 90
0
 91
0
280
0
281
0
  0
CLASS
  1
SUN
  2
AcDbSun
  3
SCENEOE
 90
1153
 91
0
280
0
281
0
  0
CLASS
  1
VISUALSTYLE
  2
AcDbVisualStyle
  3
ObjectDBX Classes
 90
4095
 91
0
280
0
281
0
  0
CLASS
  1
MATERIAL
  2
AcDbMaterial
  3
ObjectDBX Classes
 90
1153
 91
0
280
0
281
0
  0
CLASS
  1
SCALE
  2
AcDbScale
  3
ObjectDBX Classes
 90
1153
 91
0
280
0
281
0
  0
CLASS
  1
TABLESTYLE
  2
AcDbTableStyle
  3
ObjectDBX Classes
 90
4095
 91
0
280
0
281
0
  0
CLASS
  1
MLEADERSTYLE
  2
AcDbMLeaderStyle
  3
ACDB_MLEADERSTYLE_CLASS
 90
4095
 91
0
280
0
281
0
  0
CLASS
  1
DICTIONARYVAR
  2
AcDbDictionaryVar
  3
ObjectDBX Classes
 90
0
 91
0
280
0
281
0
  0
CLASS
  1
CELLSTYLEMAP
  2
AcDbCellStyleMap
  3
ObjectDBX Classes
 90
1152
 91
0
280
0
281
0
  0
CLASS
  1
MENTALRAYRENDERSETTINGS
  2
AcDbMentalRayRenderSettings
  3
SCENEOE
 90
1024
 91
0
280
0
281
0
  0
CLASS
  1
ACDBDETAILVIEWSTYLE
  2
AcDbDetailViewStyle
  3
ObjectDBX Classes
 90
1025
 91
0
280
0
281
0
  0
CLASS
  1
ACDBSECTIONVIEWSTYLE
  2
AcDbSectionViewStyle
  3
ObjectDBX Classes
 90
1025
 91
0
280
0
281
0
  0
CLASS
  1
RASTERVARIABLES
  2
AcDbRasterVariables
  3
ISM
 90
0
 91
0
280
0
281
0
  0
CLASS
  1
LAYOUT
  2
AcDbLayout
  3
ObjectDBX Classes
 90
0
 91
0
280
0
281
0
  0
CLASS
  1
ACDBPLACEHOLDER
  2
AcDbPlaceHolder
  3
ObjectDBX Classes
 90
0
 91
0
280
0
281
0
  0
ENDSEC
  0
SECTION
  2
TABLES
  0
TABLE
  2
VPORT
  5
8
330
0
100
AcDbSymbolTable
 70
1
  0
VPORT
  5
23
330
8
100
AcDbSymbolTableRecord
100
AcDbViewportTableRecord
  2
*Active
 70
0
 10
0.0
 20
0.0
 11
1.0
 21
1.0
 12
0.0
 22
0.0
 13
0.0
 23
0.0
 14
0.5
 24
0.5
 15
0.5
 25
0.5
 16
0.0
 26
0.0
 36
1.0
 17
0.0
 27
0.0
 37
0.0
 40
1000.0
 41
1.34
 42
50.0
 43
0.0
 44
0.0
 50
0.0
 51
0.0
 71
0
 72
1000
 73
1
 74
3
 75
0
 76
0
 77
0
 78
0
281
0
 65
0
146
0.0
  0
ENDTAB
  0
TABLE
  2
LTYPE
  5
2
330
0
100
AcDbSymbolTable
 70
21
  0
LTYPE
  5
24
330
2
100
AcDbSymbolTableRecord
100
AcDbLinetypeTableRecord
  2
ByBlock
 70
0
  3

 72
65
 73
0
 40
0.0
  0
LTYPE
  5
25
330
2
100
AcDbSymbolTableRecord
100
AcDbLinetypeTableRecord
  2
ByLayer
 70
0
  3

 72
65
 73
0
 40
0.0
  0
LTYPE
  5
26
330
2
100
AcDbSymbolTableRecord
100
AcDbLinetypeTableRecord
  2
Continuous
 70
0
  3

 72
65
 73
0
 40
0.0
  0
LTYPE
  5
2F
330
2
100
AcDbSymbolTableRecord
100
AcDbLinetypeTableRecord
  2
CENTER
 70
0
  3
Center ____ _ ____ _ ____ _ ____ _ ____ _ ____
 72
65
 73
4
 40
5.08
 49
3.175
 74
0
 49
-0.635
 74
0
 49
0.635
 74
0
 49
-0.635
 74
0
  0
LTYPE
  5
30
330
2
100
AcDbSymbolTableRecord
100
AcDbLinetypeTableRecord
  2
CENTERX2
 70
0
  3
Center (2x) ________  __  ________  __  ________
 72
65
 73
4
 40
8.89
 49
6.35
 74
0
 49
-0.635
 74
0
 49
1.27
 74
0
 49
-0.635
 74
0
  0
LTYPE
  5
31
330
2
100
AcDbSymbolTableRecord
100
AcDbLinetypeTableRecord
  2
CENTER2
 70
0
  3
Center (.5x) ____ _ ____ _ ____ _ ____ _ ____
 72
65
 73
4
 40
2.54
 49
1.587
 74
0
 49
-0.318
 74
0
 49
0.318
 74
0
 49
-0.318
 74
0
  0
LTYPE
  5
32
330
2
100
AcDbSymbolTableRecord
100
AcDbLinetypeTableRecord
  2
DASHED
 70
0
  3
Dashed __ __ __ __ __ __ __ __ __ __ __ __ __ _
 72
65
 73
2
 40
1.524
 49
1.27
 74
0
 49
-0.254
 74
0
  0
LTYPE
  5
33
330
2
100
AcDbSymbolTableRecord
100
AcDbLinetypeTableRecord
  2
DASHEDX2
 70
0
  3
Dashed (2x) ____  ____  ____  ____  ____  ____
 72
65
 73
2
 40
3.048
 49
2.54
 74
0
 49
-0.508
 74
0
  0
LTYPE
  5
34
330
2
100
AcDbSymbolTableRecord
100
AcDbLinetypeTableRecord
  2
DASHED2
 70
0
  3
Dashed (.5x) _ _ _ _ _ _ _ _ _ _ _ _ _ _
 72
65
 73
2
 40
0.762
 49
0.635
 74
0
 49
-0.127
 74
0
  0
LTYPE
  5
35
330
2
100
AcDbSymbolTableRecord
100
AcDbLinetypeTableRecord
  2
PHANTOM
 70
0
  3
Phantom ______  __  __  ______  __  __  ______
 72
65
 73
6
 40
6.35
 49
3.175
 74
0
 49
-0.635
 74
0
 49
0.635
 74
0
 49
-0.635
 74
0
 49
0.635
 74
0
 49
-0.635
 74
0
  0
LTYPE
  5
36
330
2
100
AcDbSymbolTableRecord
100
AcDbLinetypeTableRecord
  2
PHANTOMX2
 70
0
  3
Phantom (2x)____________    ____    ____    ____________
 72
65
 73
6
 40
10.795
 49
6.35
 74
0
 49
-0.635
 74
0
 49
1.27
 74
0
 49
-0.635
 74
0
 49
1.27
 74
0
 49
-0.635
 74
0
  0
LTYPE
  5
37
330
2
100
AcDbSymbolTableRecord
100
AcDbLinetypeTableRecord
  2
PHANTOM2
 70
0
  3
Phantom (.5x) ___ _ _ ___ _ _ ___ _ _ ___ _ _ ___
 72
65
 73
6
 40
3.175
 49
1.587
 74
0
 49
-0.318
 74
0
 49
0.318
 74
0
 49
-0.318
 74
0
 49
0.318
 74
0
 49
-0.318
 74
0
  0
LTYPE
  5
38
330
2
100
AcDbSymbolTableRecord
100
AcDbLinetypeTableRecord
  2
DASHDOT
 70
0
  3
Dash dot __ . __ . __ . __ . __ . __ . __ . __
 72
65
 73
4
 40
3.556
 49
2.54
 74
0
 49
-0.508
 74
0
 49
0.0
 74
0
 49
-0.508
 74
0
  0
LTYPE
  5
39
330
2
100
AcDbSymbolTableRecord
100
AcDbLinetypeTableRecord
  2
DASHDOTX2
 70
0
  3
Dash dot (2x) ____  .  ____  .  ____  .  ____
 72
65
 73
4
 40
6.096
 49
5.08
 74
0
 49
-0.508
 74
0
 49
0.0
 74
0
 49
-0.508
 74
0
  0
LTYPE
  5
3A
330
2
100
AcDbSymbolTableRecord
100
AcDbLinetypeTableRecord
  2
DASHDOT2
 70
0
  3
Dash dot (.5x) _ . _ . _ . _ . _ . _ . _ . _
 72
65
 73
4
 40
1.778
 49
1.27
 74
0
 49
-0.254
 74
0
 49
0.0
 74
0
 49
-0.254
 74
0
  0
LTYPE
  5
3B
330
2
100
AcDbSymbolTableRecord
100
AcDbLinetypeTableRecord
  2
DOT
 70
0
  3
Dot .  .  .  .  .  .  .  .  .  .  .  .  .  .  .  .
 72
65
 73
2
 40
0.508
 49
0.0
 74
0
 49
-0.508
 74
0
  0
LTYPE
  5
3C
330
2
100
AcDbSymbolTableRecord
100
AcDbLinetypeTableRecord
  2
DOTX2
 70
0
  3
Dot (2x) .    .    .    .    .    .    .    . 
 72
65
 73
2
 40
1.016
 49
0.0
 74
0
 49
-1.016
 74
0
  0
LTYPE
  5
3D
330
2
100
AcDbSymbolTableRecord
100
AcDbLinetypeTableRecord
  2
DOT2
 70
0
  3
Dot (.5) . . . . . . . . . . . . . . . . . . . 
 72
65
 73
2
 40
0.254
 49
0.0
 74
0
 49
-0.254
 74
0
  0
LTYPE
  5
3E
330
2
100
AcDbSymbolTableRecord
100
AcDbLinetypeTableRecord
  2
DIVIDE
 70
0
  3
Divide __ . . __ . . __ . . __ . . __ . . __
 72
65
 73
6
 40
4.064
 49
2.54
 74
0
 49
-0.508
 74
0
 49
0.0
 74
0
 49
-0.508
 74
0
 49
0.0
 74
0
 49
-0.508
 74
0
  0
LTYPE
  5
3F
330
2
100
AcDbSymbolTableRecord
100
AcDbLinetypeTableRecord
  2
DIVIDEX2
 70
0
  3
Divide (2x) ____  . .  ____  . .  ____  . .  ____
 72
65
 73
6
 40
6.604
 49
5.08
 74
0
 49
-0.508
 74
0
 49
0.0
 74
0
 49
-0.508
 74
0
 49
0.0
 74
0
 49
-0.508
 74
0
  0
LTYPE
  5
40
330
2
100
AcDbSymbolTableRecord
100
AcDbLinetypeTableRecord
  2
DIVIDE2
 70
0
  3
Divide(.5x) _ . _ . _ . _ . _ . _ . _ . _
 72
65
 73
6
 40
2.032
 49
1.27
 74
0
 49
-0.254
 74
0
 49
0.0
 74
0
 49
-0.254
 74
0
 49
0.0
 74
0
 49
-0.254
 74
0
  0
ENDTAB
  0
TABLE
  2
LAYER
  5
1
330
0
100
AcDbSymbolTable
 70
7
  0
LAYER
  5
27
330
1
100
AcDbSymbolTableRecord
100
AcDbLayerTableRecord
  2
0
 70
0
 62
7
  6
Continuous
370
-3
390
13
347
21
  0
LAYER
  5
28
330
1
100
AcDbSymbolTableRecord
100
AcDbLayerTableRecord
  2
Defpoints
 70
0
 62
7
  6
Continuous
290
0
370
-3
390
13
347
21
  0
LAYER
  5
8A
330
1
100
AcDbSymbolTableRecord
100
AcDbLayerTableRecord
  2
OUTLINE
 70
0
 62
7
  6
Continuous
370
-3
390
13
347
21
  0
LAYER
  5
8B
330
1
100
AcDbSymbolTableRecord
100
AcDbLayerTableRecord
  2
HIDDEN
 70
0
 62
8
  6
DASHED
370
-3
390
13
347
21
  0
LAYER
  5
8C
330
1
100
AcDbSymbolTableRecord
100
AcDbLayerTableRecord
  2
DIM
 70
0
 62
1
  6
Continuous
370
-3
390
13
347
21
  0
LAYER
  5
8D
330
1
100
AcDbSymbolTableRecord
100
AcDbLayerTableRecord
  2
TEXT
 70
0
 62
3
  6
Continuous
370
-3
390
13
347
21
  0
LAYER
  5
8E
330
1
100
AcDbSymbolTableRecord
100
AcDbLayerTableRecord
  2
CENTER
 70
0
 62
4
  6
CENTER
370
-3
390
13
347
21
  0
ENDTAB
  0
TABLE
  2
STYLE
  5
5
330
0
100
AcDbSymbolTable
 70
26
  0
STYLE
  5
29
330
5
100
AcDbSymbolTableRecord
100
AcDbTextStyleTableRecord
  2
Standard
 70
0
 40
0.0
 41
1.0
 50
0.0
 71
0
 42
2.5
  3
txt
  4

  0
STYLE
  5
41
330
5
100
AcDbSymbolTableRecord
100
AcDbTextStyleTableRecord
  2
OpenSans-Light
 70
0
 40
0.0
 41
1.0
 50
0.0
 71
0
 42
2.5
  3
OpenSans-Light.ttf
  4

  0
STYLE
  5
42
330
5
100
AcDbSymbolTableRecord
100
AcDbTextStyleTableRecord
  2
OpenSans-Light-Italic
 70
0
 40
0.0
 41
1.0
 50
0.0
 71
0
 42
2.5
  3
OpenSans-LightItalic.ttf
  4

  0
STYLE
  5
43
330
5
100
AcDbSymbolTableRecord
100
AcDbTextStyleTableRecord
  2
OpenSans
 70
0
 40
0.0
 41
1.0
 50
0.0
 71
0
 42
2.5
  3
OpenSans-Regular.ttf
  4

  0
STYLE
  5
44
330
5
100
AcDbSymbolTableRecord
100
AcDbTextStyleTableRecord
  2
OpenSans-Italic
 70
0
 40
0.0
 41
1.0
 50
0.0
 71
0
 42
2.5
  3
OpenSans-Italic.ttf
  4

  0
STYLE
  5
45
330
5
100
AcDbSymbolTableRecord
100
AcDbTextStyleTableRecord
  2
OpenSans-SemiBold
 70
0
 40
0.0
 41
1.0
 50
0.0
 71
0
 42
2.5
  3
OpenSans-SemiBold.ttf
  4

  0
STYLE
  5
46
330
5
100
AcDbSymbolTableRecord
100
AcDbTextStyleTableRecord
  2
OpenSans-SemiBoldItalic
 70
0
 40
0.0
 41
1.0
 50
0.0
 71
0
 42
2.5
  3
OpenSans-SemiBoldItalic.ttf
  4

  0
STYLE
  5
47
330
5
100
AcDbSymbolTableRecord
100
AcDbTextStyleTableRecord
  2
OpenSans-Bold
 70
0
 40
0.0
 41
1.0
 50
0.0
 71
0
 42
2.5
  3
OpenSans-Bold.ttf
  4

  0
STYLE
  5
48
330
5
100
AcDbSymbolTableRecord
100
AcDbTextStyleTableRecord
  2
OpenSans-BoldItalic
 70
0
 40
0.0
 41
1.0
 50
0.0
 71
0
 42
2.5
  3
OpenSans-BoldItalic.ttf
  4

  0
STYLE
  5
49
330
5
100
AcDbSymbolTableRecord
100
AcDbTextStyleTableRecord
  2
OpenSans-ExtraBold
 70
0
 40
0.0
 41
1.0
 50
0.0
 71
0
 42
2.5
  3
OpenSans-ExtraBold.ttf
  4

  0
STYLE
  5
4A
330
5
100
AcDbSymbolTableRecord
100
AcDbTextStyleTableRecord
  2
OpenSans-ExtraBoldItalic
 70
0
 40
0.0
 41
1.0
 50
0.0
 71
0
 42
2.5
  3
OpenSans-ExtraBoldItalic.ttf
  4

  0
STYLE
  5
4B
330
5
100
AcDbSymbolTableRecord
100
AcDbTextStyleTableRecord
  2
OpenSansCondensed-Bold
 70
0
 40
0.0
 41
1.0
 50
0.0
 71
0
 42
2.5
  3
OpenSansCondensed-Bold.ttf
  4

  0
STYLE
  5
4C
330
5
100
AcDbSymbolTableRecord
100
AcDbTextStyleTableRecord
  2
OpenSansCondensed-Light
 70
0
 40
0.0
 41
1.0
 50
0.0
 71
0
 42
2.5
  3
OpenSansCondensed-Light.ttf
  4

  0
STYLE
  5
4D
330
5
100
AcDbSymbolTableRecord
100
AcDbTextStyleTableRecord
  2
OpenSansCondensed-Italic
 70
0
 40
0.0
 41
1.0
 50
0.0
 71
0
 42
2.5
  3
OpenSansCondensed-LightItalic.ttf
  4

  0
STYLE
  5
4E
330
5
100
AcDbSymbolTableRecord
100
AcDbTextStyleTableRecord
  2
LiberationSans
 70
0
 40
0.0
 41
1.0
 50
0.0
 71
0
 42
2.5
  3
LiberationSans-Regular.ttf
  4

  0
STYLE
  5
4F
330
5
100
AcDbSymbolTableRecord
100
AcDbTextStyleTableRecord
  2
LiberationSans-Bold
 70
0
 40
0.0
 41
1.0
 50
0.0
 71
0
 42
2.5
  3
LiberationSans-Bold.ttf
  4

  0
STYLE
  5
50
330
5
100
AcDbSymbolTableRecord
100
AcDbTextStyleTableRecord
  2
LiberationSans-BoldItalic
 70
0
 40
0.0
 41
1.0
 50
0.0
 71
0
 42
2.5
  3
LiberationSans-BoldItalic.ttf
  4

  0
STYLE
  5
51
330
5
100
AcDbSymbolTableRecord
100
AcDbTextStyleTableRecord
  2
LiberationSans-Italic
 70
0
 40
0.0
 41
1.0
 50
0.0
 71
0
 42
2.5
  3
LiberationSans-Italic.ttf
  4

  0
STYLE
  5
52
330
5
100
AcDbSymbolTableRecord
100
AcDbTextStyleTableRecord
  2
LiberationSerif
 70
0
 40
0.0
 41
1.0
 50
0.0
 71
0
 42
2.5
  3
LiberationSerif-Regular.ttf
  4

  0
STYLE
  5
53
330
5
100
AcDbSymbolTableRecord
100
AcDbTextStyleTableRecord
  2
LiberationSerif-Bold
 70
0
 40
0.0
 41
1.0
 50
0.0
 71
0
 42
2.5
  3
LiberationSerif-Bold.ttf
  4

  0
STYLE
  5
54
330
5
100
AcDbSymbolTableRecord
100
AcDbTextStyleTableRecord
  2
LiberationSerif-BoldItalic
 70
0
 40
0.0
 41
1.0
 50
0.0
 71
0
 42
2.5
  3
LiberationSerif-BoldItalic.ttf
  4

  0
STYLE
  5
55
330
5
100
AcDbSymbolTableRecord
100
AcDbTextStyleTableRecord
  2
LiberationSerif-Italic
 70
0
 40
0.0
 41
1.0
 50
0.0
 71
0
 42
2.5
  3
LiberationSerif-Italic.ttf
  4

  0
STYLE
  5
56
330
5
100
AcDbSymbolTableRecord
100
AcDbTextStyleTableRecord
  2
LiberationMono
 70
0
 40
0.0
 41
1.0
 50
0.0
 71
0
 42
2.5
  3
LiberationMono-Regular.ttf
  4

  0
STYLE
  5
57
330
5
100
AcDbSymbolTableRecord
100
AcDbTextStyleTableRecord
  2
LiberationMono-Bold
 70
0
 40
0.0
 41
1.0
 50
0.0
 71
0
 42
2.5
  3
LiberationMono-Bold.ttf
  4

  0
STYLE
  5
58
330
5
100
AcDbSymbolTableRecord
100
AcDbTextStyleTableRecord
  2
LiberationMono-BoldItalic
 70
0
 40
0.0
 41
1.0
 50
0.0
 71
0
 42
2.5
  3
LiberationMono-BoldItalic.ttf
  4

  0
STYLE
  5
59
330
5
100
AcDbSymbolTableRecord
100
AcDbTextStyleTableRecord
  2
LiberationMono-Italic
 70
0
 40
0.0
 41
1.0
 50
0.0
 71
0
 42
2.5
  3
LiberationMono-Italic.ttf
  4

  0
ENDTAB
  0
TABLE
  2
VIEW
  5
7
330
0
100
AcDbSymbolTable
 70
0
  0
ENDTAB
  0
TABLE
  2
UCS
  5
6
330
0
100
AcDbSymbolTable
 70
0
  0
ENDTAB
  0
TABLE
  2
APPID
  5
3
330
0
100
AcDbSymbolTable
 70
3
  0
APPID
  5
2A
330
3
100
AcDbSymbolTableRecord
100
AcDbRegAppTableRecord
  2
ACAD
 70
0
  0
APPID
  5
1FA
330
3
100
AcDbSymbolTableRecord
100
AcDbRegAppTableRecord
  2
HATCHBACKGROUNDCOLOR
 70
0
  0
APPID
  5
1FB
330
3
100
AcDbSymbolTableRecord
100
AcDbRegAppTableRecord
  2
EZDXF
 70
0
  0
ENDTAB
  0
TABLE
  2
DIMSTYLE
  5
4
330
0
100
AcDbSymbolTable
 70
12
100
AcDbDimStyleTable
  0
DIMSTYLE
105
2B
330
4
100
AcDbSymbolTableRecord
100
AcDbDimStyleTableRecord
  2
Standard
 70
0
 40
1.0
 41
2.5
 42
0.625
 43
3.75
 44
1.25
 45
0.0
 46
0.0
 47
0.0
 48
0.0
 49
2.5
140
2.5
141
2.5
142
0.0
143
0.03937007874
144
1.0
145
0.0
146
1.0
147
0.625
148
0.0
 69
0
 70
0
 71
0
 72
0
 73
0
 74
0
 75
0
 76
0
 77
1
 78
8
 79
3
170
0
171
3
172
1
173
0
174
0
175
0
176
0
177
0
178
0
179
2
271
2
272
2
273
2
274
3
275
0
276
0
277
2
278
44
279
0
280
0
281
0
282
0
283
0
284
8
285
0
286
0
288
0
289
3
290
0
371
-2
372
-2
  0
DIMSTYLE
105
73
330
4
100
AcDbSymbolTableRecord
100
AcDbDimStyleTableRecord
  2
EZDXF
 70
0
 40
1.0
 41
0.175
 42
0.125
 43
3.75
 44
0.375
 45
0.0
 46
0.0
 47
0.0
 48
0.0
 49
2.5
140
0.25
141
2.5
142
0.0
143
0.03937007874
144
100.0
145
0.0
146
0.5
147
0.1
148
0.0
 69
0
 70
0
 71
0
 72
0
 73
0
 74
0
 75
0
 76
0
 77
1
 78
12
 79
3
170
0
171
3
172
1
173
0
174
0
175
0
176
0
177
0
178
0
179
2
271
2
272
2
273
2
274
3
275
0
276
0
277
2
278
46
279
2
280
0
281
0
282
0
283
0
284
8
285
0
286
0
288
1
289
3
290
0
340
4C
342
74
371
-2
372
-2
  0
DIMSTYLE
105
7C
330
4
100
AcDbSymbolTableRecord
100
AcDbDimStyleTableRecord
  2
EZ_M_100_H25_CM
 70
0
 40
1.0
 41
0.25
 42
0.125
 43
3.75
 44
0.375
 45
0.0
 46
0.0
 47
0.0
 48
0.0
 49
2.5
140
0.25
141
2.5
142
0.125
143
0.03937007874
144
100.0
145
0.0
146
0.5
147
0.1
148
0.0
 69
0
 70
0
 71
0
 72
0
 73
0
 74
0
 75
0
 76
0
 77
1
 78
12
 79
3
170
0
171
3
172
1
173
0
174
0
175
0
176
0
177
0
178
0
179
2
271
2
272
2
273
2
274
3
275
0
276
0
277
2
278
46
279
2
280
0
281
0
282
0
283
0
284
8
285
0
286
0
288
1
289
3
290
0
340
4C
371
-2
372
-2
  0
DIMSTYLE
105
7D
330
4
100
AcDbSymbolTableRecord
100
AcDbDimStyleTableRecord
  2
EZ_M_50_H25_CM
 70
0
 40
1.0
 41
0.125
 42
0.0625
 43
3.75
 44
0.1875
 45
0.0
 46
0.0
 47
0.0
 48
0.0
 49
2.5
140
0.125
141
2.5
142
0.0625
143
0.03937007874
144
100.0
145
0.0
146
0.5
147
0.05
148
0.0
 69
0
 70
0
 71
0
 72
0
 73
0
 74
0
 75
0
 76
0
 77
1
 78
12
 79
3
170
0
171
3
172
1
173
0
174
0
175
0
176
0
177
0
178
0
179
2
271
2
272
2
273
2
274
3
275
0
276
0
277
2
278
46
279
2
280
0
281
0
282
0
283
0
284
8
285
0
286
0
288
1
289
3
290
0
340
4C
371
-2
372
-2
  0
DIMSTYLE
105
7E
330
4
100
AcDbSymbolTableRecord
100
AcDbDimStyleTableRecord
  2
EZ_M_25_H25_CM
 70
0
 40
1.0
 41
0.0625
 42
0.03125
 43
3.75
 44
0.09375
 45
0.0
 46
0.0
 47
0.0
 48
0.0
 49
2.5
140
0.0625
141
2.5
142
0.03125
143
0.03937007874
144
100.0
145
0.0
146
0.5
147
0.025
148
0.0
 69
0
 70
0
 71
0
 72
0
 73
0
 74
0
 75
0
 76
0
 77
1
 78
12
 79
3
170
0
171
3
172
1
173
0
174
0
175
0
176
0
177
0
178
0
179
2
271
2
272
2
273
2
274
3
275
0
276
0
277
2
278
46
279
2
280
0
281
0
282
0
283
0
284
8
285
0
286
0
288
1
289
3
290
0
340
4C
371
-2
372
-2
  0
DIMSTYLE
105
7F
330
4
100
AcDbSymbolTableRecord
100
AcDbDimStyleTableRecord
  2
EZ_M_20_H25_CM
 70
0
 40
1.0
 41
0.05
 42
0.025
 43
3.75
 44
0.07500000000000001
 45
0.0
 46
0.0
 47
0.0
 48
0.0
 49
2.5
140
0.05
141
2.5
142
0.025
143
0.03937007874
144
100.0
145
0.0
146
0.5
147
0.020000000000000004
148
0.0
 69
0
 70
0
 71
0
 72
0
 73
0
 74
0
 75
0
 76
0
 77
1
 78
12
 79
3
170
0
171
3
172
1
173
0
174
0
175
0
176
0
177
0
178
0
179
2
271
2
272
2
273
2
274
3
275
0
276
0
277
2
278
46
279
2
280
0
281
0
282
0
283
0
284
8
285
0
286
0
288
1
289
3
290
0
340
4C
371
-2
372
-2
  0
DIMSTYLE
105
80
330
4
100
AcDbSymbolTableRecord
100
AcDbDimStyleTableRecord
  2
EZ_M_10_H25_CM
 70
0
 40
1.0
 41
0.025
 42
0.0125
 43
3.75
 44
0.037500000000000006
 45
0.0
 46
0.0
 47
0.0
 48
0.0
 49
2.5
140
0.025
141
2.5
142
0.0125
143
0.03937007874
144
100.0
145
0.0
146
0.5
147
0.010000000000000002
148
0.0
 69
0
 70
0
 71
0
 72
0
 73
0
 74
0
 75
0
 76
0
 77
1
 78
12
 79
3
170
0
171
3
172
1
173
0
174
0
175
0
176
0
177
0
178
0
179
2
271
2
272
2
273
2
274
3
275
0
276
0
277
2
278
46
279
2
280
0
281
0
282
0
283
0
284
8
285
0
286
0
288
1
289
3
290
0
340
4C
371
-2
372
-2
  0
DIMSTYLE
105
81
330
4
100
AcDbSymbolTableRecord
100
AcDbDimStyleTableRecord
  2
EZ_M_5_H25_CM
 70
0
 40
1.0
 41
0.0125
 42
0.00625
 43
3.75
 44
0.018750000000000003
 45
0.0
 46
0.0
 47
0.0
 48
0.0
 49
2.5
140
0.0125
141
2.5
142
0.00625
143
0.03937007874
144
100.0
145
0.0
146
0.5
147
0.005000000000000001
148
0.0
 69
0
 70
0
 71
0
 72
0
 73
0
 74
0
 75
0
 76
0
 77
1
 78
12
 79
3
170
0
171
3
172
1
173
0
174
0
175
0
176
0
177
0
178
0
179
2
271
2
272
2
273
2
274
3
275
0
276
0
277
2
278
46
279
2
280
0
281
0
282
0
283
0
284
8
285
0
286
0
288
1
289
3
290
0
340
4C
371
-2
372
-2
  0
DIMSTYLE
105
82
330
4
100
AcDbSymbolTableRecord
100
AcDbDimStyleTableRecord
  2
EZ_M_1_H25_CM
 70
0
 40
1.0
 41
0.0025
 42
0.00125
 43
3.75
 44
0.00375
 45
0.0
 46
0.0
 47
0.0
 48
0.0
 49
2.5
140
0.0025
141
2.5
142
0.00125
143
0.03937007874
144
100.0
145
0.0
146
0.5
147
0.001
148
0.0
 69
0
 70
0
 71
0
 72
0
 73
0
 74
0
 75
0
 76
0
 77
1
 78
12
 79
3
170
0
171
3
172
1
173
0
174
0
175
0
176
0
177
0
178
0
179
2
271
2
272
2
273
2
274
3
275
0
276
0
277
2
278
46
279
2
280
0
281
0
282
0
283
0
284
8
285
0
286
0
288
1
289
3
290
0
340
4C
371
-2
372
-2
  0
DIMSTYLE
105
83
330
4
100
AcDbSymbolTableRecord
100
AcDbDimStyleTableRecord
  2
EZ_RADIUS
 70
0
 40
1.0
 41
0.25
 42
0.125
 43
3.75
 44
0.375
 45
0.0
 46
0.0
 47
0.0
 48
0.0
 49
2.5
140
0.25
141
0.0
142
0.0
143
0.03937007874
144
100.0
145
0.0
146
0.5
147
0.1
148
0.0
 69
0
 70
0
 71
0
 72
0
 73
0
 74
0
 75
0
 76
0
 77
1
 78
12
 79
3
170
0
171
3
172
0
173
0
174
0
175
0
176
0
177
0
178
0
179
2
271
2
272
2
273
2
274
3
275
0
276
0
277
2
278
46
279
1
280
0
281
0
282
0
283
0
284
8
285
0
286
0
288
1
289
3
290
0
340
4C
342
84
371
-2
372
-2
  0
DIMSTYLE
105
88
330
4
100
AcDbSymbolTableRecord
100
AcDbDimStyleTableRecord
  2
EZ_RADIUS_INSIDE
 70
0
 40
1.0
 41
0.25
 42
0.125
 43
3.75
 44
0.375
 45
0.0
 46
0.0
 47
0.0
 48
0.0
 49
2.5
140
0.25
141
0.0
142
0.0
143
0.03937007874
144
100.0
145
0.0
146
0.5
147
0.1
148
0.0
 69
0
 70
0
 71
0
 72
0
 73
0
 74
0
 75
0
 76
0
 77
0
 78
12
 79
3
170
0
171
3
172
0
173
0
174
1
175
0
176
0
177
0
178
0
179
2
271
2
272
2
273
2
274
3
275
0
276
0
277
2
278
46
279
0
280
0
281
0
282
0
283
0
284
8
285
0
286
0
288
1
289
0
290
0
340
4C
342
84
371
-2
372
-2
  0
DIMSTYLE
105
89
330
4
100
AcDbSymbolTableRecord
100
AcDbDimStyleTableRecord
  2
EZ_CURVED
 70
0
 40
1.0
 41
0.25
 42
0.125
 43
3.75
 44
0.375
 45
0.0
 46
0.0
 47
0.0
 48
0.0
 49
2.5
140
0.25
141
2.5
142
0.0
143
0.03937007874
144
100.0
145
0.0
146
0.5
147
0.1
148
0.0
 69
0
 70
0
 71
0
 72
0
 73
0
 74
0
 75
0
 76
0
 77
1
 78
12
 79
2
 90
2
170
0
171
3
172
1
173
0
174
0
175
0
176
0
177
0
178
0
179
2
271
2
272
2
273
2
274
3
275
0
276
0
277
2
278
46
279
2
280
0
281
0
282
0
283
0
284
8
285
0
286
0
288
1
289
3
290
0
340
4C
371
-2
372
-2
  0
ENDTAB
  0
TABLE
  2
BLOCK_RECORD
  5
9
330
0
100
AcDbSymbolTable
 70
22
  0
BLOCK_RECORD
  5
17
330
9
100
AcDbSymbolTableRecord
100
AcDbBlockTableRecord
  2
*Model_Space
340
1A
 70
0
280
1
281
0
  0
BLOCK_RECORD
  5
1B
330
9
100
AcDbSymbolTableRecord
100
AcDbBlockTableRecord
  2
*Paper_Space
340
1E
 70
0
280
1
281
0
  0
BLOCK_RECORD
  5
74
330
9
100
AcDbSymbolTableRecord
100
AcDbBlockTableRecord
  2
_ARCHTICK
340
0
 70
0
280
1
281
0
  0
BLOCK_RECORD
  5
78
330
9
100
AcDbSymbolTableRecord
100
AcDbBlockTableRecord
  2
_CLOSEDFILLED
340
0
 70
0
280
1
281
0
  0
BLOCK_RECORD
  5
84
330
9
100
AcDbSymbolTableRecord
100
AcDbBlockTableRecord
  2
_CLOSEDBLANK
340
0
 70
0
280
1
281
0
  0
BLOCK_RECORD
  5
B5
330
9
100
AcDbSymbolTableRecord
100
AcDbBlockTableRecord
  2
*D1
340
0
 70
0
280
1
281
0
  0
BLOCK_RECORD
  5
C4
330
9
100
AcDbSymbolTableRecord
100
AcDbBlockTableRecord
  2
*D2
340
0
 70
0
280
1
281
0
  0
BLOCK_RECORD
  5
D3
330
9
100
AcDbSymbolTableRecord
100
AcDbBlockTableRecord
  2
*D3
340
0
 70
0
280
1
281
0
  0
BLOCK_RECORD
  5
E2
330
9
100
AcDbSymbolTableRecord
100
AcDbBlockTableRecord
  2
*D4
340
0
 70
0
280
1
281
0
  0
BLOCK_RECORD
  5
F1
330
9
100
AcDbSymbolTableRecord
100
AcDbBlockTableRecord
  2
*D5
340
0
 70
0
280
1
281
0
  0
BLOCK_RECORD
  5
100
330
9
100
AcDbSymbolTableRecord
100
AcDbBlockTableRecord
  2
*D6
340
0
 70
0
280
1
281
0
  0
BLOCK_RECORD
  5
10F
330
9
100
AcDbSymbolTableRecord
100
AcDbBlockTableRecord
  2
*D7
340
0
 70
0
280
1
281
0
  0
BLOCK_RECORD
  5
13C
330
9
100
AcDbSymbolTableRecord
100
AcDbBlockTableRecord
  2
*D8
340
0
 70
0
280
1
281
0
  0
BLOCK_RECORD
  5
14B
330
9
100
AcDbSymbolTableRecord
100
AcDbBlockTableRecord
  2
*D9
340
0
 70
0
280
1
281
0
  0
BLOCK_RECORD
  5
15A
330
9
100
AcDbSymbolTableRecord
100
AcDbBlockTableRecord
  2
*D10
340
0
 70
0
280
1
281
0
  0
BLOCK_RECORD
  5
169
330
9
100
AcDbSymbolTableRecord
100
AcDbBlockTableRecord
  2
*D11
340
0
 70
0
280
1
281
0
  0
BLOCK_RECORD
  5
178
330
9
100
AcDbSymbolTableRecord
100
AcDbBlockTableRecord
  2
*D12
340
0
 70
0
280
1
281
0
  0
BLOCK_RECORD
  5
187
330
9
100
AcDbSymbolTableRecord
100
AcDbBlockTableRecord
  2
*D13
340
0
 70
0
280
1
281
0
  0
BLOCK_RECORD
  5
1B7
330
9
100
AcDbSymbolTableRecord
100
AcDbBlockTableRecord
  2
*D14
340
0
 70
0
280
1
281
0
  0
BLOCK_RECORD
  5
1C6
330
9
100
AcDbSymbolTableRecord
100
AcDbBlockTableRecord
  2
*D15
340
0
 70
0
280
1
281
0
  0
BLOCK_RECORD
  5
1D5
330
9
100
AcDbSymbolTableRecord
100
AcDbBlockTableRecord
  2
*D16
340
0
 70
0
280
1
281
0
  0
BLOCK_RECORD
  5
1E4
330
9
100
AcDbSymbolTableRecord
100
AcDbBlockTableRecord
  2
*D17
340
0
 70
0
280
1
281
0
  0
ENDTAB
  0
ENDSEC
  0
SECTION
  2
BLOCKS
  0
BLOCK
  5
18
330
17
100
AcDbEntity
  8
0
100
AcDbBlockBegin
  2
*Model_Space
 70
0
 10
0.0
 20
0.0
 30
0.0
  3
*Model_Space
  1

  0
ENDBLK
  5
19
330
17
100
AcDbEntity
  8
0
100
AcDbBlockEnd
  0
BLOCK
  5
1C
330
1B
100
AcDbEntity
  8
0
100
AcDbBlockBegin
  2
*Paper_Space
 70
0
 10
0.0
 20
0.0
 30
0.0
  3
*Paper_Space
  1

  0
ENDBLK
  5
1D
330
1B
100
AcDbEntity
  8
0
100
AcDbBlockEnd
  0
BLOCK
  5
75
330
74
100
AcDbEntity
  8
0
100
AcDbBlockBegin
  2
_ARCHTICK
 70
0
 10
0.0
 20
0.0
 30
0.0
  3
_ARCHTICK
  1

  0
LWPOLYLINE
  5
77
330
74
100
AcDbEntity
  8
0
  6
BYBLOCK
 62
0
100
AcDbPolyline
 90
2
 70
0
 43
0.15
 10
-0.5
 20
-0.5
 10
0.5
 20
0.5
  0
ENDBLK
  5
76
330
74
100
AcDbEntity
  8
0
100
AcDbBlockEnd
  0
BLOCK
  5
79
330
78
100
AcDbEntity
  8
0
100
AcDbBlockBegin
  2
_CLOSEDFILLED
 70
0
 10
0.0
 20
0.0
 30
0.0
  3
_CLOSEDFILLED
  1

  0
SOLID
  5
7B
330
78
100
AcDbEntity
  8
0
  6
BYBLOCK
 62
0
100
AcDbTrace
 10
-1.0
 20
0.16439898372402537
 30
0.0
 11
0.0
 21
0.0
 31
0.0
 12
-1.0
 22
-0.16439898372402537
 32
0.0
 13
-1.0
 23
-0.16439898372402537
 33
0.0
  0
ENDBLK
  5
7A
330
78
100
AcDbEntity
  8
0
100
AcDbBlockEnd
  0
BLOCK
  5
85
330
84
100
AcDbEntity
  8
0
100
AcDbBlockBegin
  2
_CLOSEDBLANK
 70
0
 10
0.0
 20
0.0
 30
0.0
  3
_CLOSEDBLANK
  1

  0
LWPOLYLINE
  5
87
330
84
100
AcDbEntity
  8
0
  6
BYBLOCK
 62
0
100
AcDbPolyline
 90
3
 70
1
 10
-1.0
 20
0.16439898372402537
 10
0.0
 20
0.0
 10
-1.0
 20
-0.16439898372402537
  0
ENDBLK
  5
86
330
84
100
AcDbEntity
  8
0
100
AcDbBlockEnd
  0
BLOCK
  5
B6
330
B5
100
AcDbEntity
  8
0
100
AcDbBlockBegin
  2
*D1
 70
1
 10
0.0
 20
0.0
 30
0.0
  3
*D1
  1

  0
LINE
  5
B8
330
B5
100
AcDbEntity
  8
0
100
AcDbLine
 10
-292.7
 20
-0.125
 30
0.0
 11
-292.7
 21
-70.375
 31
0.0
  0
LINE
  5
B9
330
B5
100
AcDbEntity
  8
0
100
AcDbLine
 10
292.7
 20
-0.125
 30
0.0
 11
292.7
 21
-70.375
 31
0.0
  0
INSERT
  5
BA
330
B5
100
AcDbEntity
  8
DIM
100
AcDbBlockReference
  2
_ARCHTICK
 10
-292.7
 20
-70.0
 30
0.0
 41
0.175
 42
0.175
 50
180.0
  0
INSERT
  5
BC
330
B5
100
AcDbEntity
  8
DIM
100
AcDbBlockReference
  2
_ARCHTICK
 10
292.7
 20
-70.0
 30
0.0
 41
0.175
 42
0.175
  0
LINE
  5
BE
330
B5
100
AcDbEntity
  8
0
100
AcDbLine
 10
-292.7
 20
-70.0
 30
0.0
 11
292.7
 21
-70.0
 31
0.0
  0
MTEXT
  5
BF
330
B5
100
AcDbEntity
  8
DIM
100
AcDbMText
 10
0.0
 20
-69.775
 30
0.0
 40
0.25
 71
5
  1
OVERALL WIDTH 585 mm [23.05"]
  7
OpenSansCondensed-Light
  0
POINT
  5
C0
330
B5
100
AcDbEntity
  8
Defpoints
100
AcDbPoint
 10
-292.7
 20
-70.0
 30
0.0
  0
POINT
  5
C1
330
B5
100
AcDbEntity
  8
Defpoints
100
AcDbPoint
 10
-292.7
 20
0.0
 30
0.0
  0
POINT
  5
C2
330
B5
100
AcDbEntity
  8
Defpoints
100
AcDbPoint
 10
292.7
 20
0.0
 30
0.0
  0
ENDBLK
  5
B7
330
B5
100
AcDbEntity
  8
0
100
AcDbBlockEnd
  0
BLOCK
  5
C5
330
C4
100
AcDbEntity
  8
0
100
AcDbBlockBegin
  2
*D2
 70
1
 10
0.0
 20
0.0
 30
0.0
  3
*D2
  1

  0
LINE
  5
C7
330
C4
100
AcDbEntity
  8
0
100
AcDbLine
 10
-280.0
 20
-0.125
 30
0.0
 11
-280.0
 21
-40.375
 31
0.0
  0
LINE
  5
C8
330
C4
100
AcDbEntity
  8
0
100
AcDbLine
 10
280.0
 20
-0.125
 30
0.0
 11
280.0
 21
-40.375
 31
0.0
  0
INSERT
  5
C9
330
C4
100
AcDbEntity
  8
DIM
100
AcDbBlockReference
  2
_ARCHTICK
 10
-280.0
 20
-40.0
 30
0.0
 41
0.175
 42
0.175
 50
180.0
  0
INSERT
  5
CB
330
C4
100
AcDbEntity
  8
DIM
100
AcDbBlockReference
  2
_ARCHTICK
 10
280.0
 20
-40.0
 30
0.0
 41
0.175
 42
0.175
  0
LINE
  5
CD
330
C4
100
AcDbEntity
  8
0
100
AcDbLine
 10
-280.0
 20
-40.0
 30
0.0
 11
280.0
 21
-40.0
 31
0.0
  0
MTEXT
  5
CE
330
C4
100
AcDbEntity
  8
DIM
100
AcDbMText
 10
0.0
 20
-39.775
 30
0.0
 40
0.25
 71
5
  1
LEG C/C 560 mm [22.05"]
  7
OpenSansCondensed-Light
  0
POINT
  5
CF
330
C4
100
AcDbEntity
  8
Defpoints
100
AcDbPoint
 10
-280.0
 20
-40.0
 30
0.0
  0
POINT
  5
D0
330
C4
100
AcDbEntity
  8
Defpoints
100
AcDbPoint
 10
-280.0
 20
0.0
 30
0.0
  0
POINT
  5
D1
330
C4
100
AcDbEntity
  8
Defpoints
100
AcDbPoint
 10
280.0
 20
0.0
 30
0.0
  0
ENDBLK
  5
C6
330
C4
100
AcDbEntity
  8
0
100
AcDbBlockEnd
  0
BLOCK
  5
D4
330
D3
100
AcDbEntity
  8
0
100
AcDbBlockBegin
  2
*D3
 70
1
 10
0.0
 20
0.0
 30
0.0
  3
*D3
  1

  0
LINE
  5
D6
330
D3
100
AcDbEntity
  8
0
100
AcDbLine
 10
322.575
 20
1.5308084989341915e-17
 30
0.0
 11
322.325
 21
4.592425496802574e-17
 31
0.0
  0
LINE
  5
D7
330
D3
100
AcDbEntity
  8
0
100
AcDbLine
 10
322.575
 20
470.0
 30
0.0
 11
322.325
 21
470.0
 31
0.0
  0
INSERT
  5
D8
330
D3
100
AcDbEntity
  8
DIM
100
AcDbBlockReference
  2
_ARCHTICK
 10
322.7
 20
0.0
 30
0.0
 41
0.175
 42
0.175
 50
270.0
  0
INSERT
  5
DA
330
D3
100
AcDbEntity
  8
DIM
100
AcDbBlockReference
  2
_ARCHTICK
 10
322.7
 20
470.0
 30
0.0
 41
0.175
 42
0.175
 50
90.0
  0
LINE
  5
DC
330
D3
100
AcDbEntity
  8
0
100
AcDbLine
 10
322.7
 20
0.0
 30
0.0
 11
322.7
 21
470.0
 31
0.0
  0
MTEXT
  5
DD
330
D3
100
AcDbEntity
  8
DIM
100
AcDbMText
 10
322.47499999999997
 20
235.0
 30
0.0
 40
0.25
 71
5
  1
SEAT HEIGHT 470 mm [18.50"] (adj. 16.5"-22.5")
  7
OpenSansCondensed-Light
 50
90.0
  0
POINT
  5
DE
330
D3
100
AcDbEntity
  8
Defpoints
100
AcDbPoint
 10
322.7
 20
0.0
 30
0.0
  0
POINT
  5
DF
330
D3
100
AcDbEntity
  8
Defpoints
100
AcDbPoint
 10
322.7
 20
0.0
 30
0.0
  0
POINT
  5
E0
330
D3
100
AcDbEntity
  8
Defpoints
100
AcDbPoint
 10
322.7
 20
470.0
 30
0.0
  0
ENDBLK
  5
D5
330
D3
100
AcDbEntity
  8
0
100
AcDbBlockEnd
  0
BLOCK
  5
E3
330
E2
100
AcDbEntity
  8
0
100
AcDbBlockBegin
  2
*D4
 70
1
 10
0.0
 20
0.0
 30
0.0
  3
*D4
  1

  0
LINE
  5
E5
330
E2
100
AcDbEntity
  8
0
100
AcDbLine
 10
442.575
 20
1.5308084989341915e-17
 30
0.0
 11
442.325
 21
4.592425496802574e-17
 31
0.0
  0
LINE
  5
E6
330
E2
100
AcDbEntity
  8
0
100
AcDbLine
 10
502.575
 20
733.0
 30
0.0
 11
442.325
 21
733.0
 31
0.0
  0
INSERT
  5
E7
330
E2
100
AcDbEntity
  8
DIM
100
AcDbBlockReference
  2
_ARCHTICK
 10
442.7
 20
0.0
 30
0.0
 41
0.175
 42
0.175
 50
270.0
  0
INSERT
  5
E9
330
E2
100
AcDbEntity
  8
DIM
100
AcDbBlockReference
  2
_ARCHTICK
 10
442.7
 20
733.0
 30
0.0
 41
0.175
 42
0.175
 50
90.0
  0
LINE
  5
EB
330
E2
100
AcDbEntity
  8
0
100
AcDbLine
 10
442.7
 20
0.0
 30
0.0
 11
442.7
 21
733.0
 31
0.0
  0
MTEXT
  5
EC
330
E2
100
AcDbEntity
  8
DIM
100
AcDbMText
 10
442.47499999999997
 20
366.5
 30
0.0
 40
0.25
 71
5
  1
OVERALL HEIGHT 733 mm [28.86"]
  7
OpenSansCondensed-Light
 50
90.0
  0
POINT
  5
ED
330
E2
100
AcDbEntity
  8
Defpoints
100
AcDbPoint
 10
442.7
 20
0.0
 30
0.0
  0
POINT
  5
EE
330
E2
100
AcDbEntity
  8
Defpoints
100
AcDbPoint
 10
442.7
 20
0.0
 30
0.0
  0
POINT
  5
EF
330
E2
100
AcDbEntity
  8
Defpoints
100
AcDbPoint
 10
502.7
 20
733.0
 30
0.0
  0
ENDBLK
  5
E4
330
E2
100
AcDbEntity
  8
0
100
AcDbBlockEnd
  0
BLOCK
  5
F2
330
F1
100
AcDbEntity
  8
0
100
AcDbBlockBegin
  2
*D5
 70
1
 10
0.0
 20
0.0
 30
0.0
  3
*D5
  1

  0
LINE
  5
F4
330
F1
100
AcDbEntity
  8
0
100
AcDbLine
 10
-332.825
 20
1.5308084989341915e-17
 30
0.0
 11
-333.075
 21
4.592425496802574e-17
 31
0.0
  0
LINE
  5
F5
330
F1
100
AcDbEntity
  8
0
100
AcDbLine
 10
-332.825
 20
276.0
 30
0.0
 11
-333.075
 21
276.0
 31
0.0
  0
INSERT
  5
F6
330
F1
100
AcDbEntity
  8
DIM
100
AcDbBlockReference
  2
_ARCHTICK
 10
-332.7
 20
0.0
 30
0.0
 41
0.175
 42
0.175
 50
270.0
  0
INSERT
  5
F8
330
F1
100
AcDbEntity
  8
DIM
100
AcDbBlockReference
  2
_ARCHTICK
 10
-332.7
 20
276.0
 30
0.0
 41
0.175
 42
0.175
 50
90.0
  0
LINE
  5
FA
330
F1
100
AcDbEntity
  8
0
100
AcDbLine
 10
-332.7
 20
0.0
 30
0.0
 11
-332.7
 21
276.0
 31
0.0
  0
MTEXT
  5
FB
330
F1
100
AcDbEntity
  8
DIM
100
AcDbMText
 10
-332.925
 20
138.0
 30
0.0
 40
0.25
 71
5
  1
PAN CLEARANCE TO FLOOR 276 mm [10.87"]
  7
OpenSansCondensed-Light
 50
90.0
  0
POINT
  5
FC
330
F1
100
AcDbEntity
  8
Defpoints
100
AcDbPoint
 10
-332.7
 20
0.0
 30
0.0
  0
POINT
  5
FD
330
F1
100
AcDbEntity
  8
Defpoints
100
AcDbPoint
 10
-332.7
 20
0.0
 30
0.0
  0
POINT
  5
FE
330
F1
100
AcDbEntity
  8
Defpoints
100
AcDbPoint
 10
-332.7
 20
276.0
 30
0.0
  0
ENDBLK
  5
F3
330
F1
100
AcDbEntity
  8
0
100
AcDbBlockEnd
  0
BLOCK
  5
101
330
100
100
AcDbEntity
  8
0
100
AcDbBlockBegin
  2
*D6
 70
1
 10
0.0
 20
0.0
 30
0.0
  3
*D6
  1

  0
LINE
  5
103
330
100
100
AcDbEntity
  8
0
100
AcDbLine
 10
-442.825
 20
1.5308084989341915e-17
 30
0.0
 11
-443.075
 21
4.592425496802574e-17
 31
0.0
  0
LINE
  5
104
330
100
100
AcDbEntity
  8
0
100
AcDbLine
 10
-442.825
 20
375.0
 30
0.0
 11
-443.075
 21
375.0
 31
0.0
  0
INSERT
  5
105
330
100
100
AcDbEntity
  8
DIM
100
AcDbBlockReference
  2
_ARCHTICK
 10
-442.7
 20
0.0
 30
0.0
 41
0.175
 42
0.175
 50
270.0
  0
INSERT
  5
107
330
100
100
AcDbEntity
  8
DIM
100
AcDbBlockReference
  2
_ARCHTICK
 10
-442.7
 20
375.0
 30
0.0
 41
0.175
 42
0.175
 50
90.0
  0
LINE
  5
109
330
100
100
AcDbEntity
  8
0
100
AcDbLine
 10
-442.7
 20
0.0
 30
0.0
 11
-442.7
 21
375.0
 31
0.0
  0
MTEXT
  5
10A
330
100
100
AcDbEntity
  8
DIM
100
AcDbMText
 10
-442.925
 20
187.5
 30
0.0
 40
0.25
 71
5
  1
SLIDE UNDERSIDE 375 mm [14.76"]
  7
OpenSansCondensed-Light
 50
90.0
  0
POINT
  5
10B
330
100
100
AcDbEntity
  8
Defpoints
100
AcDbPoint
 10
-442.7
 20
0.0
 30
0.0
  0
POINT
  5
10C
330
100
100
AcDbEntity
  8
Defpoints
100
AcDbPoint
 10
-442.7
 20
0.0
 30
0.0
  0
POINT
  5
10D
330
100
100
AcDbEntity
  8
Defpoints
100
AcDbPoint
 10
-442.7
 20
375.0
 30
0.0
  0
ENDBLK
  5
102
330
100
100
AcDbEntity
  8
0
100
AcDbBlockEnd
  0
BLOCK
  5
110
330
10F
100
AcDbEntity
  8
0
100
AcDbBlockBegin
  2
*D7
 70
1
 10
0.0
 20
0.0
 30
0.0
  3
*D7
  1

  0
LINE
  5
112
330
10F
100
AcDbEntity
  8
0
100
AcDbLine
 10
7.654042494670958e-18
 20
760.125
 30
0.0
 11
2.296212748401287e-17
 21
760.375
 31
0.0
  0
LINE
  5
113
330
10F
100
AcDbEntity
  8
0
100
AcDbLine
 10
508.0
 20
760.125
 30
0.0
 11
508.0
 21
760.375
 31
0.0
  0
INSERT
  5
114
330
10F
100
AcDbEntity
  8
DIM
100
AcDbBlockReference
  2
_ARCHTICK
 10
0.0
 20
760.0
 30
0.0
 41
0.175
 42
0.175
 50
180.0
  0
INSERT
  5
116
330
10F
100
AcDbEntity
  8
DIM
100
AcDbBlockReference
  2
_ARCHTICK
 10
508.0
 20
760.0
 30
0.0
 41
0.175
 42
0.175
  0
LINE
  5
118
330
10F
100
AcDbEntity
  8
0
100
AcDbLine
 10
0.0
 20
760.0
 30
0.0
 11
508.0
 21
760.0
 31
0.0
  0
MTEXT
  5
119
330
10F
100
AcDbEntity
  8
DIM
100
AcDbMText
 10
254.0
 20
760.225
 30
0.0
 40
0.25
 71
5
  1
SLIDE TRAVEL 508 mm [20.00"]
  7
OpenSansCondensed-Light
  0
POINT
  5
11A
330
10F
100
AcDbEntity
  8
Defpoints
100
AcDbPoint
 10
0.0
 20
760.0
 30
0.0
  0
POINT
  5
11B
330
10F
100
AcDbEntity
  8
Defpoints
100
AcDbPoint
 10
0.0
 20
760.0
 30
0.0
  0
POINT
  5
11C
330
10F
100
AcDbEntity
  8
Defpoints
100
AcDbPoint
 10
508.0
 20
760.0
 30
0.0
  0
ENDBLK
  5
111
330
10F
100
AcDbEntity
  8
0
100
AcDbBlockEnd
  0
BLOCK
  5
13D
330
13C
100
AcDbEntity
  8
0
100
AcDbBlockBegin
  2
*D8
 70
1
 10
0.0
 20
0.0
 30
0.0
  3
*D8
  1

  0
LINE
  5
13F
330
13C
100
AcDbEntity
  8
0
100
AcDbLine
 10
1093.0
 20
-0.125
 30
0.0
 11
1093.0
 21
-70.375
 31
0.0
  0
LINE
  5
140
330
13C
100
AcDbEntity
  8
0
100
AcDbLine
 10
1548.4
 20
-0.125
 30
0.0
 11
1548.4
 21
-70.375
 31
0.0
  0
INSERT
  5
141
330
13C
100
AcDbEntity
  8
DIM
100
AcDbBlockReference
  2
_ARCHTICK
 10
1093.0
 20
-70.0
 30
0.0
 41
0.175
 42
0.175
 50
180.0
  0
INSERT
  5
143
330
13C
100
AcDbEntity
  8
DIM
100
AcDbBlockReference
  2
_ARCHTICK
 10
1548.4
 20
-70.0
 30
0.0
 41
0.175
 42
0.175
  0
LINE
  5
145
330
13C
100
AcDbEntity
  8
0
100
AcDbLine
 10
1093.0
 20
-70.0
 30
0.0
 11
1548.4
 21
-70.0
 31
0.0
  0
MTEXT
  5
146
330
13C
100
AcDbEntity
  8
DIM
100
AcDbMText
 10
1320.7
 20
-69.775
 30
0.0
 40
0.25
 71
5
  1
OVERALL DEPTH 455 mm [17.93"]
  7
OpenSansCondensed-Light
  0
POINT
  5
147
330
13C
100
AcDbEntity
  8
Defpoints
100
AcDbPoint
 10
1093.0
 20
-70.0
 30
0.0
  0
POINT
  5
148
330
13C
100
AcDbEntity
  8
Defpoints
100
AcDbPoint
 10
1093.0
 20
0.0
 30
0.0
  0
POINT
  5
149
330
13C
100
AcDbEntity
  8
Defpoints
100
AcDbPoint
 10
1548.4
 20
0.0
 30
0.0
  0
ENDBLK
  5
13E
330
13C
100
AcDbEntity
  8
0
100
AcDbBlockEnd
  0
BLOCK
  5
14C
330
14B
100
AcDbEntity
  8
0
100
AcDbBlockBegin
  2
*D9
 70
1
 10
0.0
 20
0.0
 30
0.0
  3
*D9
  1

  0
LINE
  5
14E
330
14B
100
AcDbEntity
  8
0
100
AcDbLine
 10
1105.7
 20
-0.125
 30
0.0
 11
1105.7
 21
-40.375
 31
0.0
  0
LINE
  5
14F
330
14B
100
AcDbEntity
  8
0
100
AcDbLine
 10
1535.7
 20
-0.125
 30
0.0
 11
1535.7
 21
-40.375
 31
0.0
  0
INSERT
  5
150
330
14B
100
AcDbEntity
  8
DIM
100
AcDbBlockReference
  2
_ARCHTICK
 10
1105.7
 20
-40.0
 30
0.0
 41
0.175
 42
0.175
 50
180.0
  0
INSERT
  5
152
330
14B
100
AcDbEntity
  8
DIM
100
AcDbBlockReference
  2
_ARCHTICK
 10
1535.7
 20
-40.0
 30
0.0
 41
0.175
 42
0.175
  0
LINE
  5
154
330
14B
100
AcDbEntity
  8
0
100
AcDbLine
 10
1105.7
 20
-40.0
 30
0.0
 11
1535.7
 21
-40.0
 31
0.0
  0
MTEXT
  5
155
330
14B
100
AcDbEntity
  8
DIM
100
AcDbMText
 10
1320.7
 20
-39.775
 30
0.0
 40
0.25
 71
5
  1
LEG C/C 430 mm [16.93"]
  7
OpenSansCondensed-Light
  0
POINT
  5
156
330
14B
100
AcDbEntity
  8
Defpoints
100
AcDbPoint
 10
1105.7
 20
-40.0
 30
0.0
  0
POINT
  5
157
330
14B
100
AcDbEntity
  8
Defpoints
100
AcDbPoint
 10
1105.7
 20
0.0
 30
0.0
  0
POINT
  5
158
330
14B
100
AcDbEntity
  8
Defpoints
100
AcDbPoint
 10
1535.7
 20
0.0
 30
0.0
  0
ENDBLK
  5
14D
330
14B
100
AcDbEntity
  8
0
100
AcDbBlockEnd
  0
BLOCK
  5
15B
330
15A
100
AcDbEntity
  8
0
100
AcDbBlockBegin
  2
*D10
 70
1
 10
0.0
 20
0.0
 30
0.0
  3
*D10
  1

  0
LINE
  5
15D
330
15A
100
AcDbEntity
  8
0
100
AcDbLine
 10
1131.1
 20
480.125
 30
0.0
 11
1131.1
 21
480.375
 31
0.0
  0
LINE
  5
15E
330
15A
100
AcDbEntity
  8
0
100
AcDbLine
 10
1510.3000000000002
 20
480.125
 30
0.0
 11
1510.3000000000002
 21
480.375
 31
0.0
  0
INSERT
  5
15F
330
15A
100
AcDbEntity
  8
DIM
100
AcDbBlockReference
  2
_ARCHTICK
 10
1131.1
 20
480.0
 30
0.0
 41
0.175
 42
0.175
 50
180.0
  0
INSERT
  5
161
330
15A
100
AcDbEntity
  8
DIM
100
AcDbBlockReference
  2
_ARCHTICK
 10
1510.3000000000002
 20
480.0
 30
0.0
 41
0.175
 42
0.175
  0
LINE
  5
163
330
15A
100
AcDbEntity
  8
0
100
AcDbLine
 10
1131.1
 20
480.0
 30
0.0
 11
1510.3000000000002
 21
480.0
 31
0.0
  0
MTEXT
  5
164
330
15A
100
AcDbEntity
  8
DIM
100
AcDbMText
 10
1320.7
 20
480.225
 30
0.0
 40
0.25
 71
5
  1
CARRIER WIDTH 379 mm [14.93"]
  7
OpenSansCondensed-Light
  0
POINT
  5
165
330
15A
100
AcDbEntity
  8
Defpoints
100
AcDbPoint
 10
1131.1
 20
480.0
 30
0.0
  0
POINT
  5
166
330
15A
100
AcDbEntity
  8
Defpoints
100
AcDbPoint
 10
1131.1
 20
480.0
 30
0.0
  0
POINT
  5
167
330
15A
100
AcDbEntity
  8
Defpoints
100
AcDbPoint
 10
1510.3000000000002
 20
480.0
 30
0.0
  0
ENDBLK
  5
15C
330
15A
100
AcDbEntity
  8
0
100
AcDbBlockEnd
  0
BLOCK
  5
16A
330
169
100
AcDbEntity
  8
0
100
AcDbBlockBegin
  2
*D11
 70
1
 10
0.0
 20
0.0
 30
0.0
  3
*D11
  1

  0
LINE
  5
16C
330
169
100
AcDbEntity
  8
0
100
AcDbLine
 10
1578.275
 20
1.5308084989341915e-17
 30
0.0
 11
1578.025
 21
4.592425496802574e-17
 31
0.0
  0
LINE
  5
16D
330
169
100
AcDbEntity
  8
0
100
AcDbLine
 10
1578.275
 20
440.0
 30
0.0
 11
1578.025
 21
440.0
 31
0.0
  0
INSERT
  5
16E
330
169
100
AcDbEntity
  8
DIM
100
AcDbBlockReference
  2
_ARCHTICK
 10
1578.4
 20
0.0
 30
0.0
 41
0.175
 42
0.175
 50
270.0
  0
INSERT
  5
170
330
169
100
AcDbEntity
  8
DIM
100
AcDbBlockReference
  2
_ARCHTICK
 10
1578.4
 20
440.0
 30
0.0
 41
0.175
 42
0.175
 50
90.0
  0
LINE
  5
172
330
169
100
AcDbEntity
  8
0
100
AcDbLine
 10
1578.4
 20
0.0
 30
0.0
 11
1578.4
 21
440.0
 31
0.0
  0
MTEXT
  5
173
330
169
100
AcDbEntity
  8
DIM
100
AcDbMText
 10
1578.1750000000002
 20
220.0
 30
0.0
 40
0.25
 71
5
  1
CROSS BAR C/L 440 mm [17.32"]
  7
OpenSansCondensed-Light
 50
90.0
  0
POINT
  5
174
330
169
100
AcDbEntity
  8
Defpoints
100
AcDbPoint
 10
1578.4
 20
0.0
 30
0.0
  0
POINT
  5
175
330
169
100
AcDbEntity
  8
Defpoints
100
AcDbPoint
 10
1578.4
 20
0.0
 30
0.0
  0
POINT
  5
176
330
169
100
AcDbEntity
  8
Defpoints
100
AcDbPoint
 10
1578.4
 20
440.0
 30
0.0
  0
ENDBLK
  5
16B
330
169
100
AcDbEntity
  8
0
100
AcDbBlockEnd
  0
BLOCK
  5
179
330
178
100
AcDbEntity
  8
0
100
AcDbBlockBegin
  2
*D12
 70
1
 10
0.0
 20
0.0
 30
0.0
  3
*D12
  1

  0
LINE
  5
17B
330
178
100
AcDbEntity
  8
0
100
AcDbLine
 10
1648.275
 20
1.5308084989341915e-17
 30
0.0
 11
1648.025
 21
4.592425496802574e-17
 31
0.0
  0
LINE
  5
17C
330
178
100
AcDbEntity
  8
0
100
AcDbLine
 10
1648.275
 20
180.0
 30
0.0
 11
1648.025
 21
180.0
 31
0.0
  0
INSERT
  5
17D
330
178
100
AcDbEntity
  8
DIM
100
AcDbBlockReference
  2
_ARCHTICK
 10
1648.4
 20
0.0
 30
0.0
 41
0.175
 42
0.175
 50
270.0
  0
INSERT
  5
17F
330
178
100
AcDbEntity
  8
DIM
100
AcDbBlockReference
  2
_ARCHTICK
 10
1648.4
 20
180.0
 30
0.0
 41
0.175
 42
0.175
 50
90.0
  0
LINE
  5
181
330
178
100
AcDbEntity
  8
0
100
AcDbLine
 10
1648.4
 20
0.0
 30
0.0
 11
1648.4
 21
180.0
 31
0.0
  0
MTEXT
  5
182
330
178
100
AcDbEntity
  8
DIM
100
AcDbMText
 10
1648.1750000000002
 20
90.0
 30
0.0
 40
0.25
 71
5
  1
SIDE BRACE C/L 180 mm [7.09"]
  7
OpenSansCondensed-Light
 50
90.0
  0
POINT
  5
183
330
178
100
AcDbEntity
  8
Defpoints
100
AcDbPoint
 10
1648.4
 20
0.0
 30
0.0
  0
POINT
  5
184
330
178
100
AcDbEntity
  8
Defpoints
100
AcDbPoint
 10
1648.4
 20
0.0
 30
0.0
  0
POINT
  5
185
330
178
100
AcDbEntity
  8
Defpoints
100
AcDbPoint
 10
1648.4
 20
180.0
 30
0.0
  0
ENDBLK
  5
17A
330
178
100
AcDbEntity
  8
0
100
AcDbBlockEnd
  0
BLOCK
  5
188
330
187
100
AcDbEntity
  8
0
100
AcDbBlockBegin
  2
*D13
 70
1
 10
0.0
 20
0.0
 30
0.0
  3
*D13
  1

  0
LINE
  5
18A
330
187
100
AcDbEntity
  8
0
100
AcDbLine
 10
1052.875
 20
426.0
 30
0.0
 11
1052.625
 21
426.0
 31
0.0
  0
LINE
  5
18B
330
187
100
AcDbEntity
  8
0
100
AcDbLine
 10
1052.875
 20
448.0
 30
0.0
 11
1052.625
 21
448.0
 31
0.0
  0
INSERT
  5
18C
330
187
100
AcDbEntity
  8
DIM
100
AcDbBlockReference
  2
_ARCHTICK
 10
1053.0
 20
426.0
 30
0.0
 41
0.175
 42
0.175
 50
270.0
  0
INSERT
  5
18E
330
187
100
AcDbEntity
  8
DIM
100
AcDbBlockReference
  2
_ARCHTICK
 10
1053.0
 20
448.0
 30
0.0
 41
0.175
 42
0.175
 50
90.0
  0
LINE
  5
190
330
187
100
AcDbEntity
  8
0
100
AcDbLine
 10
1053.0
 20
426.0
 30
0.0
 11
1053.0
 21
448.0
 31
0.0
  0
MTEXT
  5
191
330
187
100
AcDbEntity
  8
DIM
100
AcDbMText
 10
1052.775
 20
437.0
 30
0.0
 40
0.25
 71
5
  1
GAP 22 mm [0.87"]
  7
OpenSansCondensed-Light
 50
90.0
  0
POINT
  5
192
330
187
100
AcDbEntity
  8
Defpoints
100
AcDbPoint
 10
1053.0
 20
426.0
 30
0.0
  0
POINT
  5
193
330
187
100
AcDbEntity
  8
Defpoints
100
AcDbPoint
 10
1053.0
 20
426.0
 30
0.0
  0
POINT
  5
194
330
187
100
AcDbEntity
  8
Defpoints
100
AcDbPoint
 10
1053.0
 20
448.0
 30
0.0
  0
ENDBLK
  5
189
330
187
100
AcDbEntity
  8
0
100
AcDbBlockEnd
  0
BLOCK
  5
1B8
330
1B7
100
AcDbEntity
  8
0
100
AcDbBlockBegin
  2
*D14
 70
1
 10
0.0
 20
0.0
 30
0.0
  3
*D14
  1

  0
LINE
  5
1BA
330
1B7
100
AcDbEntity
  8
0
100
AcDbLine
 10
-254.0
 20
-895.5250000000001
 30
0.0
 11
-254.0
 21
-925.7750000000001
 31
0.0
  0
LINE
  5
1BB
330
1B7
100
AcDbEntity
  8
0
100
AcDbLine
 10
254.0
 20
-895.5250000000001
 30
0.0
 11
254.0
 21
-925.7750000000001
 31
0.0
  0
INSERT
  5
1BC
330
1B7
100
AcDbEntity
  8
DIM
100
AcDbBlockReference
  2
_ARCHTICK
 10
-254.0
 20
-925.4000000000001
 30
0.0
 41
0.175
 42
0.175
 50
180.0
  0
INSERT
  5
1BE
330
1B7
100
AcDbEntity
  8
DIM
100
AcDbBlockReference
  2
_ARCHTICK
 10
254.0
 20
-925.4000000000001
 30
0.0
 41
0.175
 42
0.175
  0
LINE
  5
1C0
330
1B7
100
AcDbEntity
  8
0
100
AcDbLine
 10
-254.0
 20
-925.4000000000001
 30
0.0
 11
254.0
 21
-925.4000000000001
 31
0.0
  0
MTEXT
  5
1C1
330
1B7
100
AcDbEntity
  8
DIM
100
AcDbMText
 10
0.0
 20
-925.1750000000001
 30
0.0
 40
0.25
 71
5
  1
SLIDE LENGTH 508 mm [20.00"] (20 in full-extension, 100 lb/pair)
  7
OpenSansCondensed-Light
  0
POINT
  5
1C2
330
1B7
100
AcDbEntity
  8
Defpoints
100
AcDbPoint
 10
-254.0
 20
-925.4000000000001
 30
0.0
  0
POINT
  5
1C3
330
1B7
100
AcDbEntity
  8
Defpoints
100
AcDbPoint
 10
-254.0
 20
-895.4000000000001
 30
0.0
  0
POINT
  5
1C4
330
1B7
100
AcDbEntity
  8
Defpoints
100
AcDbPoint
 10
254.0
 20
-895.4000000000001
 30
0.0
  0
ENDBLK
  5
1B9
330
1B7
100
AcDbEntity
  8
0
100
AcDbBlockEnd
  0
BLOCK
  5
1C7
330
1C6
100
AcDbEntity
  8
0
100
AcDbBlockBegin
  2
*D15
 70
1
 10
0.0
 20
0.0
 30
0.0
  3
*D15
  1

  0
LINE
  5
1C9
330
1C6
100
AcDbEntity
  8
0
100
AcDbLine
 10
-200.0
 20
-409.87500000000006
 30
0.0
 11
-200.0
 21
-379.62500000000006
 31
0.0
  0
LINE
  5
1CA
330
1C6
100
AcDbEntity
  8
0
100
AcDbLine
 10
200.0
 20
-409.87500000000006
 30
0.0
 11
200.0
 21
-379.62500000000006
 31
0.0
  0
INSERT
  5
1CB
330
1C6
100
AcDbEntity
  8
DIM
100
AcDbBlockReference
  2
_ARCHTICK
 10
-200.0
 20
-380.00000000000006
 30
0.0
 41
0.175
 42
0.175
 50
180.0
  0
INSERT
  5
1CD
330
1C6
100
AcDbEntity
  8
DIM
100
AcDbBlockReference
  2
_ARCHTICK
 10
200.0
 20
-380.00000000000006
 30
0.0
 41
0.175
 42
0.175
  0
LINE
  5
1CF
330
1C6
100
AcDbEntity
  8
0
100
AcDbLine
 10
-200.0
 20
-380.00000000000006
 30
0.0
 11
200.0
 21
-380.00000000000006
 31
0.0
  0
MTEXT
  5
1D0
330
1C6
100
AcDbEntity
  8
DIM
100
AcDbMText
 10
0.0
 20
-379.77500000000003
 30
0.0
 40
0.25
 71
5
  1
CARRIER LENGTH 400 mm [15.75"]
  7
OpenSansCondensed-Light
  0
POINT
  5
1D1
330
1C6
100
AcDbEntity
  8
Defpoints
100
AcDbPoint
 10
-200.0
 20
-380.00000000000006
 30
0.0
  0
POINT
  5
1D2
330
1C6
100
AcDbEntity
  8
Defpoints
100
AcDbPoint
 10
-200.0
 20
-410.00000000000006
 30
0.0
  0
POINT
  5
1D3
330
1C6
100
AcDbEntity
  8
Defpoints
100
AcDbPoint
 10
200.0
 20
-410.00000000000006
 30
0.0
  0
ENDBLK
  5
1C8
330
1C6
100
AcDbEntity
  8
0
100
AcDbBlockEnd
  0
BLOCK
  5
1D6
330
1D5
100
AcDbEntity
  8
0
100
AcDbBlockBegin
  2
*D16
 70
1
 10
0.0
 20
0.0
 30
0.0
  3
*D16
  1

  0
LINE
  5
1D8
330
1D5
100
AcDbEntity
  8
0
100
AcDbLine
 10
678.0
 20
-895.5250000000001
 30
0.0
 11
678.0
 21
-970.7750000000001
 31
0.0
  0
LINE
  5
1D9
330
1D5
100
AcDbEntity
  8
0
100
AcDbLine
 10
292.7
 20
-895.5250000000001
 30
0.0
 11
292.7
 21
-970.7750000000001
 31
0.0
  0
INSERT
  5
1DA
330
1D5
100
AcDbEntity
  8
DIM
100
AcDbBlockReference
  2
_ARCHTICK
 10
678.0
 20
-970.4000000000001
 30
0.0
 41
0.175
 42
0.175
 50
180.0
  0
INSERT
  5
1DC
330
1D5
100
AcDbEntity
  8
DIM
100
AcDbBlockReference
  2
_ARCHTICK
 10
292.7
 20
-970.4000000000001
 30
0.0
 41
0.175
 42
0.175
  0
LINE
  5
1DE
330
1D5
100
AcDbEntity
  8
0
100
AcDbLine
 10
678.0
 20
-970.4000000000001
 30
0.0
 11
292.7
 21
-970.4000000000001
 31
0.0
  0
MTEXT
  5
1DF
330
1D5
100
AcDbEntity
  8
DIM
100
AcDbMText
 10
485.35
 20
-970.6250000000001
 30
0.0
 40
0.25
 71
5
  1
pan overhang past leg 385 mm [15.17"]
  7
OpenSansCondensed-Light
  0
POINT
  5
1E0
330
1D5
100
AcDbEntity
  8
Defpoints
100
AcDbPoint
 10
678.0
 20
-970.4000000000001
 30
0.0
  0
POINT
  5
1E1
330
1D5
100
AcDbEntity
  8
Defpoints
100
AcDbPoint
 10
678.0
 20
-895.4000000000001
 30
0.0
  0
POINT
  5
1E2
330
1D5
100
AcDbEntity
  8
Defpoints
100
AcDbPoint
 10
292.7
 20
-895.4000000000001
 30
0.0
  0
ENDBLK
  5
1D7
330
1D5
100
AcDbEntity
  8
0
100
AcDbBlockEnd
  0
BLOCK
  5
1E5
330
1E4
100
AcDbEntity
  8
0
100
AcDbBlockBegin
  2
*D17
 70
1
 10
0.0
 20
0.0
 30
0.0
  3
*D17
  1

  0
LINE
  5
1E7
330
1E4
100
AcDbEntity
  8
0
100
AcDbLine
 10
338.0
 20
-409.87500000000006
 30
0.0
 11
338.0
 21
-334.62500000000006
 31
0.0
  0
LINE
  5
1E8
330
1E4
100
AcDbEntity
  8
0
100
AcDbLine
 10
267.3
 20
-409.87500000000006
 30
0.0
 11
267.3
 21
-334.62500000000006
 31
0.0
  0
INSERT
  5
1E9
330
1E4
100
AcDbEntity
  8
DIM
100
AcDbBlockReference
  2
_ARCHTICK
 10
338.0
 20
-335.00000000000006
 30
0.0
 41
0.175
 42
0.175
 50
180.0
  0
INSERT
  5
1EB
330
1E4
100
AcDbEntity
  8
DIM
100
AcDbBlockReference
  2
_ARCHTICK
 10
267.3
 20
-335.00000000000006
 30
0.0
 41
0.175
 42
0.175
  0
LINE
  5
1ED
330
1E4
100
AcDbEntity
  8
0
100
AcDbLine
 10
338.0
 20
-335.00000000000006
 30
0.0
 11
267.3
 21
-335.00000000000006
 31
0.0
  0
MTEXT
  5
1EE
330
1E4
100
AcDbEntity
  8
DIM
100
AcDbMText
 10
302.65
 20
-335.2250000000001
 30
0.0
 40
0.25
 71
5
  1
lift-out clearance 71 mm [2.78"]
  7
OpenSansCondensed-Light
  0
POINT
  5
1EF
330
1E4
100
AcDbEntity
  8
Defpoints
100
AcDbPoint
 10
338.0
 20
-335.00000000000006
 30
0.0
  0
POINT
  5
1F0
330
1E4
100
AcDbEntity
  8
Defpoints
100
AcDbPoint
 10
338.0
 20
-410.00000000000006
 30
0.0
  0
POINT
  5
1F1
330
1E4
100
AcDbEntity
  8
Defpoints
100
AcDbPoint
 10
267.3
 20
-410.00000000000006
 30
0.0
  0
ENDBLK
  5
1E6
330
1E4
100
AcDbEntity
  8
0
100
AcDbBlockEnd
  0
ENDSEC
  0
SECTION
  2
ENTITIES
  0
TEXT
  5
8F
330
17
100
AcDbEntity
  8
TEXT
100
AcDbText
 10
-292.7
 20
790.0
 30
0.0
 40
18.0
  1
FRONT VIEW (caregiver / slide-out side on RIGHT)
 11
-292.7
 21
790.0
 31
0.0
100
AcDbText
  0
LWPOLYLINE
  5
90
330
17
100
AcDbEntity
  8
OUTLINE
100
AcDbPolyline
 90
4
 70
1
 10
-292.7
 20
260.0
 10
-267.3
 20
260.0
 10
-267.3
 20
712.7
 10
-292.7
 20
712.7
  0
LWPOLYLINE
  5
91
330
17
100
AcDbEntity
  8
OUTLINE
100
AcDbPolyline
 90
4
 70
1
 10
-291.0
 20
30.0
 10
-269.0
 20
30.0
 10
-269.0
 20
370.0
 10
-291.0
 20
370.0
  0
LWPOLYLINE
  5
92
330
17
100
AcDbEntity
  8
OUTLINE
100
AcDbPolyline
 90
4
 70
1
 10
-300.0
 20
0.0
 10
-260.0
 20
0.0
 10
-260.0
 20
30.0
 10
-300.0
 20
30.0
  0
LWPOLYLINE
  5
93
330
17
100
AcDbEntity
  8
OUTLINE
100
AcDbPolyline
 90
28
 70
1
 10
-255.0
 20
727.0
 10
-255.2044450422656
 20
728.5529142706151
 10
-255.80384757729337
 20
730.0
 10
-256.75735931288074
 20
731.2426406871193
 10
-258.0
 20
732.1961524227066
 10
-259.44708572938487
 20
732.7955549577345
 10
-261.0
 20
733.0
 10
-299.0
 20
733.0
 10
-300.55291427061513
 20
732.7955549577345
 10
-302.0
 20
732.1961524227066
 10
-303.24264068711926
 20
731.2426406871193
 10
-304.19615242270663
 20
730.0
 10
-304.7955549577344
 20
728.5529142706151
 10
-305.0
 20
727.0
 10
-305.0
 20
711.0
 10
-304.7955549577344
 20
709.4470857293849
 10
-304.19615242270663
 20
708.0
 10
-303.24264068711926
 20
706.7573593128807
 10
-302.0
 20
705.8038475772934
 10
-300.55291427061513
 20
705.2044450422655
 10
-299.0
 20
705.0
 10
-261.0
 20
705.0
 10
-259.44708572938487
 20
705.2044450422655
 10
-258.0
 20
705.8038475772934
 10
-256.75735931288074
 20
706.7573593128807
 10
-255.80384757729337
 20
708.0
 10
-255.2044450422656
 20
709.4470857293849
 10
-255.0
 20
711.0
  0
CIRCLE
  5
94
330
17
100
AcDbEntity
  8
OUTLINE
100
AcDbCircle
 10
-280.0
 20
270.0
 30
0.0
 40
4.0
  0
CIRCLE
  5
95
330
17
100
AcDbEntity
  8
OUTLINE
100
AcDbCircle
 10
-280.0
 20
295.0
 30
0.0
 40
4.0
  0
CIRCLE
  5
96
330
17
100
AcDbEntity
  8
OUTLINE
100
AcDbCircle
 10
-280.0
 20
320.0
 30
0.0
 40
4.0
  0
CIRCLE
  5
97
330
17
100
AcDbEntity
  8
OUTLINE
100
AcDbCircle
 10
-280.0
 20
345.0
 30
0.0
 40
4.0
  0
CIRCLE
  5
98
330
17
100
AcDbEntity
  8
OUTLINE
100
AcDbCircle
 10
-280.0
 20
370.0
 30
0.0
 40
4.0
  0
LWPOLYLINE
  5
99
330
17
100
AcDbEntity
  8
OUTLINE
100
AcDbPolyline
 90
4
 70
1
 10
267.3
 20
260.0
 10
292.7
 20
260.0
 10
292.7
 20
712.7
 10
267.3
 20
712.7
  0
LWPOLYLINE
  5
9A
330
17
100
AcDbEntity
  8
OUTLINE
100
AcDbPolyline
 90
4
 70
1
 10
269.0
 20
30.0
 10
291.0
 20
30.0
 10
291.0
 20
370.0
 10
269.0
 20
370.0
  0
LWPOLYLINE
  5
9B
330
17
100
AcDbEntity
  8
OUTLINE
100
AcDbPolyline
 90
4
 70
1
 10
260.0
 20
0.0
 10
300.0
 20
0.0
 10
300.0
 20
30.0
 10
260.0
 20
30.0
  0
LWPOLYLINE
  5
9C
330
17
100
AcDbEntity
  8
OUTLINE
100
AcDbPolyline
 90
28
 70
1
 10
305.0
 20
727.0
 10
304.7955549577344
 20
728.5529142706151
 10
304.19615242270663
 20
730.0
 10
303.24264068711926
 20
731.2426406871193
 10
302.0
 20
732.1961524227066
 10
300.55291427061513
 20
732.7955549577345
 10
299.0
 20
733.0
 10
261.0
 20
733.0
 10
259.44708572938487
 20
732.7955549577345
 10
258.0
 20
732.1961524227066
 10
256.75735931288074
 20
731.2426406871193
 10
255.80384757729337
 20
730.0
 10
255.2044450422656
 20
728.5529142706151
 10
255.0
 20
727.0
 10
255.0
 20
711.0
 10
255.2044450422656
 20
709.4470857293849
 10
255.80384757729337
 20
708.0
 10
256.75735931288074
 20
706.7573593128807
 10
258.0
 20
705.8038475772934
 10
259.44708572938487
 20
705.2044450422655
 10
261.0
 20
705.0
 10
299.0
 20
705.0
 10
300.55291427061513
 20
705.2044450422655
 10
302.0
 20
705.8038475772934
 10
303.24264068711926
 20
706.7573593128807
 10
304.19615242270663
 20
708.0
 10
304.7955549577344
 20
709.4470857293849
 10
305.0
 20
711.0
  0
CIRCLE
  5
9D
330
17
100
AcDbEntity
  8
OUTLINE
100
AcDbCircle
 10
280.0
 20
270.0
 30
0.0
 40
4.0
  0
CIRCLE
  5
9E
330
17
100
AcDbEntity
  8
OUTLINE
100
AcDbCircle
 10
280.0
 20
295.0
 30
0.0
 40
4.0
  0
CIRCLE
  5
9F
330
17
100
AcDbEntity
  8
OUTLINE
100
AcDbCircle
 10
280.0
 20
320.0
 30
0.0
 40
4.0
  0
CIRCLE
  5
A0
330
17
100
AcDbEntity
  8
OUTLINE
100
AcDbCircle
 10
280.0
 20
345.0
 30
0.0
 40
4.0
  0
CIRCLE
  5
A1
330
17
100
AcDbEntity
  8
OUTLINE
100
AcDbCircle
 10
280.0
 20
370.0
 30
0.0
 40
4.0
  0
LWPOLYLINE
  5
A2
330
17
100
AcDbEntity
  8
OUTLINE
100
AcDbPolyline
 90
4
 70
1
 10
-280.0
 20
427.3
 10
280.0
 20
427.3
 10
280.0
 20
452.7
 10
-280.0
 20
452.7
  0
LWPOLYLINE
  5
A3
330
17
100
AcDbEntity
  8
HIDDEN
100
AcDbPolyline
 90
4
 70
1
 10
-280.0
 20
627.3
 10
280.0
 20
627.3
 10
280.0
 20
652.6999999999999
 10
-280.0
 20
652.6999999999999
  0
LWPOLYLINE
  5
A4
330
17
100
AcDbEntity
  8
OUTLINE
100
AcDbPolyline
 90
28
 70
1
 10
230.0
 20
722.0
 10
229.38666487320324
 20
726.6587428118454
 10
227.5884572681199
 20
731.0
 10
224.72792206135784
 20
734.7279220613578
 10
221.0
 20
737.5884572681199
 10
216.65874281184537
 20
739.3866648732032
 10
212.0
 20
740.0
 10
-212.0
 20
740.0
 10
-216.65874281184537
 20
739.3866648732032
 10
-221.0
 20
737.5884572681199
 10
-224.72792206135784
 20
734.7279220613578
 10
-227.5884572681199
 20
731.0
 10
-229.38666487320322
 20
726.6587428118454
 10
-230.0
 20
722.0
 10
-230.0
 20
558.0
 10
-229.38666487320324
 20
553.3412571881546
 10
-227.5884572681199
 20
549.0
 10
-224.72792206135784
 20
545.2720779386422
 10
-221.0
 20
542.4115427318801
 10
-216.65874281184537
 20
540.6133351267968
 10
-212.0
 20
540.0
 10
212.0
 20
540.0
 10
216.65874281184537
 20
540.6133351267968
 10
221.0
 20
542.4115427318801
 10
224.72792206135784
 20
545.2720779386422
 10
227.5884572681199
 20
549.0
 10
229.38666487320324
 20
553.3412571881546
 10
230.0
 20
558.0
  0
LWPOLYLINE
  5
A5
330
17
100
AcDbEntity
  8
OUTLINE
100
AcDbPolyline
 90
28
 70
1
 10
220.0
 20
462.0
 10
219.72740661031256
 20
464.07055236082016
 10
218.9282032302755
 20
466.0
 10
217.65685424949237
 20
467.65685424949237
 10
216.0
 20
468.9282032302755
 10
214.07055236082016
 20
469.7274066103125
 10
212.0
 20
470.0
 10
-212.0
 20
470.0
 10
-214.07055236082016
 20
469.7274066103125
 10
-216.0
 20
468.9282032302755
 10
-217.65685424949237
 20
467.65685424949237
 10
-218.9282032302755
 20
466.0
 10
-219.72740661031256
 20
464.07055236082016
 10
-220.0
 20
462.0
 10
-220.0
 20
456.0
 10
-219.72740661031256
 20
453.92944763917984
 10
-218.9282032302755
 20
452.0
 10
-217.65685424949237
 20
450.34314575050763
 10
-216.0
 20
449.0717967697245
 10
-214.07055236082016
 20
448.2725933896875
 10
-212.0
 20
448.0
 10
212.0
 20
448.0
 10
214.07055236082016
 20
448.2725933896875
 10
216.0
 20
449.0717967697245
 10
217.65685424949237
 20
450.34314575050763
 10
218.9282032302755
 20
452.0
 10
219.72740661031256
 20
453.92944763917984
 10
220.0
 20
456.0
  0
LWPOLYLINE
  5
A6
330
17
100
AcDbEntity
  8
OUTLINE
100
AcDbPolyline
 90
4
 70
1
 10
-254.0
 20
375.0
 10
254.0
 20
375.0
 10
254.0
 20
420.0
 10
-254.0
 20
420.0
  0
LWPOLYLINE
  5
A7
330
17
100
AcDbEntity
  8
OUTLINE
100
AcDbPolyline
 90
4
 70
1
 10
-200.0
 20
420.0
 10
200.0
 20
420.0
 10
200.0
 20
426.0
 10
-200.0
 20
426.0
  0
LWPOLYLINE
  5
A8
330
17
100
AcDbEntity
  8
OUTLINE
100
AcDbPolyline
 90
28
 70
1
 10
252.0
 20
426.0
 10
251.8977774788672
 20
426.77645713530757
 10
251.59807621135332
 20
427.5
 10
251.12132034355963
 20
428.12132034355966
 10
250.5
 20
428.5980762113533
 10
249.77645713530757
 20
428.8977774788672
 10
249.0
 20
429.0
 10
211.0
 20
429.0
 10
210.22354286469243
 20
428.8977774788672
 10
209.5
 20
428.5980762113533
 10
208.87867965644037
 20
428.12132034355966
 10
208.40192378864668
 20
427.5
 10
208.1022225211328
 20
426.77645713530757
 10
208.0
 20
426.0
 10
208.0
 20
420.0
 10
208.1022225211328
 20
419.22354286469243
 10
208.40192378864668
 20
418.5
 10
208.87867965644037
 20
417.87867965644034
 10
209.5
 20
417.4019237886467
 10
210.22354286469243
 20
417.1022225211328
 10
211.0
 20
417.0
 10
249.0
 20
417.0
 10
249.77645713530757
 20
417.1022225211328
 10
250.5
 20
417.4019237886467
 10
251.12132034355963
 20
417.87867965644034
 10
251.59807621135332
 20
418.5
 10
251.8977774788672
 20
419.22354286469243
 10
252.0
 20
420.0
  0
LINE
  5
A9
330
17
100
AcDbEntity
  8
OUTLINE
100
AcDbLine
 10
-155.0
 20
426.0
 30
0.0
 11
-125.0
 21
276.0
 31
0.0
  0
LINE
  5
AA
330
17
100
AcDbEntity
  8
OUTLINE
100
AcDbLine
 10
155.0
 20
426.0
 30
0.0
 11
125.0
 21
276.0
 31
0.0
  0
LINE
  5
AB
330
17
100
AcDbEntity
  8
OUTLINE
100
AcDbLine
 10
-125.0
 20
276.0
 30
0.0
 11
125.0
 21
276.0
 31
0.0
  0
LWPOLYLINE
  5
AC
330
17
100
AcDbEntity
  8
OUTLINE
100
AcDbPolyline
 90
4
 70
1
 10
-170.0
 20
426.0
 10
170.0
 20
426.0
 10
170.0
 20
428.5
 10
-170.0
 20
428.5
  0
LINE
  5
AD
330
17
100
AcDbEntity
  8
HIDDEN
100
AcDbLine
 10
353.0
 20
426.0
 30
0.0
 11
383.0
 21
276.0
 31
0.0
  0
LINE
  5
AE
330
17
100
AcDbEntity
  8
HIDDEN
100
AcDbLine
 10
663.0
 20
426.0
 30
0.0
 11
633.0
 21
276.0
 31
0.0
  0
LINE
  5
AF
330
17
100
AcDbEntity
  8
HIDDEN
100
AcDbLine
 10
383.0
 20
276.0
 30
0.0
 11
633.0
 21
276.0
 31
0.0
  0
LWPOLYLINE
  5
B0
330
17
100
AcDbEntity
  8
HIDDEN
100
AcDbPolyline
 90
4
 70
1
 10
308.0
 20
420.0
 10
708.0
 20
420.0
 10
708.0
 20
426.0
 10
308.0
 20
426.0
  0
LWPOLYLINE
  5
B1
330
17
100
AcDbEntity
  8
HIDDEN
100
AcDbPolyline
 90
4
 70
1
 10
254.0
 20
378.0
 10
762.0
 20
378.0
 10
762.0
 20
417.0
 10
254.0
 20
417.0
  0
TEXT
  5
B2
330
17
100
AcDbEntity
  8
TEXT
100
AcDbText
 10
548.0
 20
236.0
 30
0.0
 40
13.5
  1
PAN SHOWN EXTENDED (dashed)
 11
548.0
 21
236.0
 31
0.0
100
AcDbText
  0
TEXT
  5
B3
330
17
100
AcDbEntity
  8
TEXT
100
AcDbText
 10
548.0
 20
214.4
 30
0.0
 40
13.5
  1
fully clears legs -> lift straight up
 11
548.0
 21
214.4
 31
0.0
100
AcDbText
  0
DIMENSION
  5
B4
330
17
100
AcDbEntity
  8
DIM
100
AcDbDimension
280
0
  2
*D1
  3
EZDXF
 10
-292.7
 20
-70.0
 30
0.0
 11
0.0
 21
-69.775
 31
0.0
 70
32
 71
5
  1
OVERALL WIDTH 585 mm [23.05"]
100
AcDbAlignedDimension
 13
-292.7
 23
0.0
 33
0.0
 14
292.7
 24
0.0
 34
0.0
 50
0.0
100
AcDbRotatedDimension
  0
DIMENSION
  5
C3
330
17
100
AcDbEntity
  8
DIM
100
AcDbDimension
280
0
  2
*D2
  3
EZDXF
 10
-280.0
 20
-40.0
 30
0.0
 11
0.0
 21
-39.775
 31
0.0
 70
32
 71
5
  1
LEG C/C 560 mm [22.05"]
100
AcDbAlignedDimension
 13
-280.0
 23
0.0
 33
0.0
 14
280.0
 24
0.0
 34
0.0
 50
0.0
100
AcDbRotatedDimension
  0
DIMENSION
  5
D2
330
17
100
AcDbEntity
  8
DIM
100
AcDbDimension
280
0
  2
*D3
  3
EZDXF
 10
322.7
 20
0.0
 30
0.0
 11
322.47499999999997
 21
235.0
 31
0.0
 70
32
 71
5
  1
SEAT HEIGHT 470 mm [18.50"] (adj. 16.5"-22.5")
100
AcDbAlignedDimension
 13
322.7
 23
0.0
 33
0.0
 14
322.7
 24
470.0
 34
0.0
 50
90.0
100
AcDbRotatedDimension
  0
DIMENSION
  5
E1
330
17
100
AcDbEntity
  8
DIM
100
AcDbDimension
280
0
  2
*D4
  3
EZDXF
 10
442.7
 20
0.0
 30
0.0
 11
442.47499999999997
 21
366.5
 31
0.0
 70
32
 71
5
  1
OVERALL HEIGHT 733 mm [28.86"]
100
AcDbAlignedDimension
 13
442.7
 23
0.0
 33
0.0
 14
502.7
 24
733.0
 34
0.0
 50
90.0
100
AcDbRotatedDimension
  0
DIMENSION
  5
F0
330
17
100
AcDbEntity
  8
DIM
100
AcDbDimension
280
0
  2
*D5
  3
EZDXF
 10
-332.7
 20
0.0
 30
0.0
 11
-332.925
 21
138.0
 31
0.0
 70
32
 71
5
  1
PAN CLEARANCE TO FLOOR 276 mm [10.87"]
100
AcDbAlignedDimension
 13
-332.7
 23
0.0
 33
0.0
 14
-332.7
 24
276.0
 34
0.0
 50
90.0
100
AcDbRotatedDimension
  0
DIMENSION
  5
FF
330
17
100
AcDbEntity
  8
DIM
100
AcDbDimension
280
0
  2
*D6
  3
EZDXF
 10
-442.7
 20
0.0
 30
0.0
 11
-442.925
 21
187.5
 31
0.0
 70
32
 71
5
  1
SLIDE UNDERSIDE 375 mm [14.76"]
100
AcDbAlignedDimension
 13
-442.7
 23
0.0
 33
0.0
 14
-442.7
 24
375.0
 34
0.0
 50
90.0
100
AcDbRotatedDimension
  0
DIMENSION
  5
10E
330
17
100
AcDbEntity
  8
DIM
100
AcDbDimension
280
0
  2
*D7
  3
EZDXF
 10
0.0
 20
760.0
 30
0.0
 11
254.0
 21
760.225
 31
0.0
 70
32
 71
5
  1
SLIDE TRAVEL 508 mm [20.00"]
100
AcDbAlignedDimension
 13
0.0
 23
760.0
 33
0.0
 14
508.0
 24
760.0
 34
0.0
 50
0.0
100
AcDbRotatedDimension
  0
TEXT
  5
11D
330
17
100
AcDbEntity
  8
TEXT
100
AcDbText
 10
1093.0
 20
790.0
 30
0.0
 40
18.0
  1
SIDE VIEW (from slide-out side)
 11
1093.0
 21
790.0
 31
0.0
100
AcDbText
  0
LWPOLYLINE
  5
11E
330
17
100
AcDbEntity
  8
OUTLINE
100
AcDbPolyline
 90
4
 70
1
 10
1093.0
 20
260.0
 10
1118.4
 20
260.0
 10
1118.4
 20
712.7
 10
1093.0
 20
712.7
  0
LWPOLYLINE
  5
11F
330
17
100
AcDbEntity
  8
OUTLINE
100
AcDbPolyline
 90
4
 70
1
 10
1094.7
 20
30.0
 10
1116.7
 20
30.0
 10
1116.7
 20
370.0
 10
1094.7
 20
370.0
  0
LWPOLYLINE
  5
120
330
17
100
AcDbEntity
  8
OUTLINE
100
AcDbPolyline
 90
4
 70
1
 10
1085.7
 20
0.0
 10
1125.7
 20
0.0
 10
1125.7
 20
30.0
 10
1085.7
 20
30.0
  0
LWPOLYLINE
  5
121
330
17
100
AcDbEntity
  8
OUTLINE
100
AcDbPolyline
 90
4
 70
1
 10
1523.0
 20
260.0
 10
1548.4
 20
260.0
 10
1548.4
 20
712.7
 10
1523.0
 20
712.7
  0
LWPOLYLINE
  5
122
330
17
100
AcDbEntity
  8
OUTLINE
100
AcDbPolyline
 90
4
 70
1
 10
1524.7
 20
30.0
 10
1546.7
 20
30.0
 10
1546.7
 20
370.0
 10
1524.7
 20
370.0
  0
LWPOLYLINE
  5
123
330
17
100
AcDbEntity
  8
OUTLINE
100
AcDbPolyline
 90
4
 70
1
 10
1515.7
 20
0.0
 10
1555.7
 20
0.0
 10
1555.7
 20
30.0
 10
1515.7
 20
30.0
  0
LWPOLYLINE
  5
124
330
17
100
AcDbEntity
  8
OUTLINE
100
AcDbPolyline
 90
4
 70
1
 10
1105.7
 20
687.3
 10
1535.7
 20
687.3
 10
1535.7
 20
712.6999999999999
 10
1105.7
 20
712.6999999999999
  0
LWPOLYLINE
  5
125
330
17
100
AcDbEntity
  8
OUTLINE
100
AcDbPolyline
 90
28
 70
1
 10
1460.7
 20
727.0
 10
1460.4955549577344
 20
728.5529142706151
 10
1459.8961524227066
 20
730.0
 10
1458.9426406871194
 20
731.2426406871193
 10
1457.7
 20
732.1961524227066
 10
1456.252914270615
 20
732.7955549577345
 10
1454.7
 20
733.0
 10
1186.7
 20
733.0
 10
1185.147085729385
 20
732.7955549577345
 10
1183.7
 20
732.1961524227066
 10
1182.4573593128807
 20
731.2426406871193
 10
1181.5038475772935
 20
730.0
 10
1180.9044450422657
 20
728.5529142706151
 10
1180.7
 20
727.0
 10
1180.7
 20
711.0
 10
1180.9044450422657
 20
709.4470857293849
 10
1181.5038475772935
 20
708.0
 10
1182.4573593128807
 20
706.7573593128807
 10
1183.7
 20
705.8038475772934
 10
1185.147085729385
 20
705.2044450422655
 10
1186.7
 20
705.0
 10
1454.7
 20
705.0
 10
1456.252914270615
 20
705.2044450422655
 10
1457.7
 20
705.8038475772934
 10
1458.9426406871194
 20
706.7573593128807
 10
1459.8961524227066
 20
708.0
 10
1460.4955549577344
 20
709.4470857293849
 10
1460.7
 20
711.0
  0
LWPOLYLINE
  5
126
330
17
100
AcDbEntity
  8
OUTLINE
100
AcDbPolyline
 90
4
 70
1
 10
1105.7
 20
167.3
 10
1535.7
 20
167.3
 10
1535.7
 20
192.70000000000002
 10
1105.7
 20
192.70000000000002
  0
CIRCLE
  5
127
330
17
100
AcDbEntity
  8
OUTLINE
100
AcDbCircle
 10
1105.7
 20
440.0
 30
0.0
 40
12.7
  0
CIRCLE
  5
128
330
17
100
AcDbEntity
  8
OUTLINE
100
AcDbCircle
 10
1105.7
 20
440.0
 30
0.0
 40
15.7
  0
LWPOLYLINE
  5
129
330
17
100
AcDbEntity
  8
OUTLINE
100
AcDbPolyline
 90
4
 70
1
 10
1118.4
 20
375.0
 10
1131.1000000000001
 20
375.0
 10
1131.1000000000001
 20
420.0
 10
1118.4
 20
420.0
  0
LWPOLYLINE
  5
12A
330
17
100
AcDbEntity
  8
OUTLINE
100
AcDbPolyline
 90
4
 70
1
 10
1118.4
 20
375.0
 10
1124.4
 20
375.0
 10
1124.4
 20
440.0
 10
1118.4
 20
440.0
  0
CIRCLE
  5
12B
330
17
100
AcDbEntity
  8
OUTLINE
100
AcDbCircle
 10
1535.7
 20
440.0
 30
0.0
 40
12.7
  0
CIRCLE
  5
12C
330
17
100
AcDbEntity
  8
OUTLINE
100
AcDbCircle
 10
1535.7
 20
440.0
 30
0.0
 40
15.7
  0
LWPOLYLINE
  5
12D
330
17
100
AcDbEntity
  8
OUTLINE
100
AcDbPolyline
 90
4
 70
1
 10
1510.3
 20
375.0
 10
1523.0
 20
375.0
 10
1523.0
 20
420.0
 10
1510.3
 20
420.0
  0
LWPOLYLINE
  5
12E
330
17
100
AcDbEntity
  8
OUTLINE
100
AcDbPolyline
 90
4
 70
1
 10
1517.0
 20
375.0
 10
1523.0
 20
375.0
 10
1523.0
 20
440.0
 10
1517.0
 20
440.0
  0
CIRCLE
  5
12F
330
17
100
AcDbEntity
  8
OUTLINE
100
AcDbCircle
 10
1535.7
 20
640.0
 30
0.0
 40
12.7
  0
LWPOLYLINE
  5
130
330
17
100
AcDbEntity
  8
OUTLINE
100
AcDbPolyline
 90
28
 70
1
 10
1529.0
 20
730.0
 10
1528.6592582628907
 20
732.5881904510252
 10
1527.6602540378444
 20
735.0
 10
1526.0710678118655
 20
737.0710678118654
 10
1524.0
 20
738.6602540378444
 10
1521.5881904510252
 20
739.6592582628907
 10
1519.0
 20
740.0
 10
1494.0
 20
740.0
 10
1491.4118095489748
 20
739.6592582628907
 10
1489.0
 20
738.6602540378444
 10
1486.9289321881345
 20
737.0710678118655
 10
1485.3397459621556
 20
735.0
 10
1484.3407417371093
 20
732.5881904510252
 10
1484.0
 20
730.0
 10
1484.0
 20
550.0
 10
1484.3407417371093
 20
547.4118095489748
 10
1485.3397459621556
 20
545.0
 10
1486.9289321881345
 20
542.9289321881346
 10
1489.0
 20
541.3397459621556
 10
1491.4118095489748
 20
540.3407417371093
 10
1494.0
 20
540.0
 10
1519.0
 20
540.0
 10
1521.5881904510252
 20
540.3407417371093
 10
1524.0
 20
541.3397459621556
 10
1526.0710678118655
 20
542.9289321881345
 10
1527.6602540378444
 20
545.0
 10
1528.6592582628907
 20
547.4118095489748
 10
1529.0
 20
550.0
  0
TEXT
  5
131
330
17
100
AcDbEntity
  8
TEXT
100
AcDbText
 10
1334.0
 20
500.0
 30
0.0
 40
11.700000000000001
  1
BACKREST PAD SP-05
 11
1334.0
 21
500.0
 31
0.0
100
AcDbText
  0
TEXT
  5
132
330
17
100
AcDbEntity
  8
TEXT
100
AcDbText
 10
1334.0
 20
481.28
 30
0.0
 40
11.700000000000001
  1
(in FRONT of back bar)
 11
1334.0
 21
481.28
 31
0.0
100
AcDbText
  0
LWPOLYLINE
  5
133
330
17
100
AcDbEntity
  8
OUTLINE
100
AcDbPolyline
 90
28
 70
1
 10
1540.7
 20
462.0
 10
1540.4274066103126
 20
464.07055236082016
 10
1539.6282032302756
 20
466.0
 10
1538.3568542494925
 20
467.65685424949237
 10
1536.7
 20
468.9282032302755
 10
1534.7705523608201
 20
469.7274066103125
 10
1532.7
 20
470.0
 10
1108.7
 20
470.0
 10
1106.62944763918
 20
469.7274066103125
 10
1104.7
 20
468.9282032302755
 10
1103.0431457505076
 20
467.65685424949237
 10
1101.7717967697245
 20
466.0
 10
1100.9725933896875
 20
464.07055236082016
 10
1100.7
 20
462.0
 10
1100.7
 20
456.0
 10
1100.9725933896875
 20
453.92944763917984
 10
1101.7717967697245
 20
452.0
 10
1103.0431457505076
 20
450.34314575050763
 10
1104.7
 20
449.0717967697245
 10
1106.62944763918
 20
448.2725933896875
 10
1108.7
 20
448.0
 10
1532.7
 20
448.0
 10
1534.7705523608201
 20
448.2725933896875
 10
1536.7
 20
449.0717967697245
 10
1538.3568542494925
 20
450.34314575050763
 10
1539.6282032302756
 20
452.0
 10
1540.4274066103126
 20
453.92944763917984
 10
1540.7
 20
456.0
  0
LWPOLYLINE
  5
134
330
17
100
AcDbEntity
  8
OUTLINE
100
AcDbPolyline
 90
4
 70
1
 10
1131.1
 20
420.0
 10
1510.3
 20
420.0
 10
1510.3
 20
426.0
 10
1131.1
 20
426.0
  0
LINE
  5
135
330
17
100
AcDbEntity
  8
OUTLINE
100
AcDbLine
 10
1165.7
 20
426.0
 30
0.0
 11
1195.7
 21
276.0
 31
0.0
  0
LINE
  5
136
330
17
100
AcDbEntity
  8
OUTLINE
100
AcDbLine
 10
1475.7
 20
426.0
 30
0.0
 11
1445.7
 21
276.0
 31
0.0
  0
LINE
  5
137
330
17
100
AcDbEntity
  8
OUTLINE
100
AcDbLine
 10
1195.7
 20
276.0
 30
0.0
 11
1445.7
 21
276.0
 31
0.0
  0
LWPOLYLINE
  5
138
330
17
100
AcDbEntity
  8
OUTLINE
100
AcDbPolyline
 90
4
 70
1
 10
1150.7
 20
426.0
 10
1490.7
 20
426.0
 10
1490.7
 20
428.5
 10
1150.7
 20
428.5
  0
LINE
  5
139
330
17
100
AcDbEntity
  8
OUTLINE
100
AcDbLine
 10
1530.7
 20
470.0
 30
0.0
 11
1603.632234620111
 21
883.6192562651274
 31
0.0
  0
LINE
  5
13A
330
17
100
AcDbEntity
  8
OUTLINE
100
AcDbLine
 10
1515.9278837048168
 20
472.604722665004
 30
0.0
 11
1588.8601183249277
 21
886.2239789301314
 31
0.0
  0
DIMENSION
  5
13B
330
17
100
AcDbEntity
  8
DIM
100
AcDbDimension
280
0
  2
*D8
  3
EZDXF
 10
1093.0
 20
-70.0
 30
0.0
 11
1320.7
 21
-69.775
 31
0.0
 70
32
 71
5
  1
OVERALL DEPTH 455 mm [17.93"]
100
AcDbAlignedDimension
 13
1093.0
 23
0.0
 33
0.0
 14
1548.4
 24
0.0
 34
0.0
 50
0.0
100
AcDbRotatedDimension
  0
DIMENSION
  5
14A
330
17
100
AcDbEntity
  8
DIM
100
AcDbDimension
280
0
  2
*D9
  3
EZDXF
 10
1105.7
 20
-40.0
 30
0.0
 11
1320.7
 21
-39.775
 31
0.0
 70
32
 71
5
  1
LEG C/C 430 mm [16.93"]
100
AcDbAlignedDimension
 13
1105.7
 23
0.0
 33
0.0
 14
1535.7
 24
0.0
 34
0.0
 50
0.0
100
AcDbRotatedDimension
  0
DIMENSION
  5
159
330
17
100
AcDbEntity
  8
DIM
100
AcDbDimension
280
0
  2
*D10
  3
EZDXF
 10
1131.1
 20
480.0
 30
0.0
 11
1320.7
 21
480.225
 31
0.0
 70
32
 71
5
  1
CARRIER WIDTH 379 mm [14.93"]
100
AcDbAlignedDimension
 13
1131.1
 23
480.0
 33
0.0
 14
1510.3000000000002
 24
480.0
 34
0.0
 50
0.0
100
AcDbRotatedDimension
  0
DIMENSION
  5
168
330
17
100
AcDbEntity
  8
DIM
100
AcDbDimension
280
0
  2
*D11
  3
EZDXF
 10
1578.4
 20
0.0
 30
0.0
 11
1578.1750000000002
 21
220.0
 31
0.0
 70
32
 71
5
  1
CROSS BAR C/L 440 mm [17.32"]
100
AcDbAlignedDimension
 13
1578.4
 23
0.0
 33
0.0
 14
1578.4
 24
440.0
 34
0.0
 50
90.0
100
AcDbRotatedDimension
  0
DIMENSION
  5
177
330
17
100
AcDbEntity
  8
DIM
100
AcDbDimension
280
0
  2
*D12
  3
EZDXF
 10
1648.4
 20
0.0
 30
0.0
 11
1648.1750000000002
 21
90.0
 31
0.0
 70
32
 71
5
  1
SIDE BRACE C/L 180 mm [7.09"]
100
AcDbAlignedDimension
 13
1648.4
 23
0.0
 33
0.0
 14
1648.4
 24
180.0
 34
0.0
 50
90.0
100
AcDbRotatedDimension
  0
DIMENSION
  5
186
330
17
100
AcDbEntity
  8
DIM
100
AcDbDimension
280
0
  2
*D13
  3
EZDXF
 10
1053.0
 20
426.0
 30
0.0
 11
1052.775
 21
437.0
 31
0.0
 70
32
 71
5
  1
GAP 22 mm [0.87"]
100
AcDbAlignedDimension
 13
1053.0
 23
426.0
 33
0.0
 14
1053.0
 24
448.0
 34
0.0
 50
90.0
100
AcDbRotatedDimension
  0
TEXT
  5
195
330
17
100
AcDbEntity
  8
TEXT
100
AcDbText
 10
-292.7
 20
-290.00000000000006
 30
0.0
 40
18.0
  1
TOP VIEW (seat & lid removed) - pan closed, extended position dashed
 11
-292.7
 21
-290.00000000000006
 31
0.0
100
AcDbText
  0
CIRCLE
  5
196
330
17
100
AcDbEntity
  8
OUTLINE
100
AcDbCircle
 10
-280.0
 20
-862.7
 30
0.0
 40
12.7
  0
CIRCLE
  5
197
330
17
100
AcDbEntity
  8
OUTLINE
100
AcDbCircle
 10
-280.0
 20
-862.7
 30
0.0
 40
11.0
  0
CIRCLE
  5
198
330
17
100
AcDbEntity
  8
OUTLINE
100
AcDbCircle
 10
-280.0
 20
-432.70000000000005
 30
0.0
 40
12.7
  0
CIRCLE
  5
199
330
17
100
AcDbEntity
  8
OUTLINE
100
AcDbCircle
 10
-280.0
 20
-432.70000000000005
 30
0.0
 40
11.0
  0
LWPOLYLINE
  5
19A
330
17
100
AcDbEntity
  8
OUTLINE
100
AcDbPolyline
 90
4
 70
1
 10
-292.7
 20
-862.7
 10
-267.3
 20
-862.7
 10
-267.3
 20
-432.70000000000005
 10
-292.7
 20
-432.70000000000005
  0
CIRCLE
  5
19B
330
17
100
AcDbEntity
  8
OUTLINE
100
AcDbCircle
 10
280.0
 20
-862.7
 30
0.0
 40
12.7
  0
CIRCLE
  5
19C
330
17
100
AcDbEntity
  8
OUTLINE
100
AcDbCircle
 10
280.0
 20
-862.7
 30
0.0
 40
11.0
  0
CIRCLE
  5
19D
330
17
100
AcDbEntity
  8
OUTLINE
100
AcDbCircle
 10
280.0
 20
-432.70000000000005
 30
0.0
 40
12.7
  0
CIRCLE
  5
19E
330
17
100
AcDbEntity
  8
OUTLINE
100
AcDbCircle
 10
280.0
 20
-432.70000000000005
 30
0.0
 40
11.0
  0
LWPOLYLINE
  5
19F
330
17
100
AcDbEntity
  8
OUTLINE
100
AcDbPolyline
 90
4
 70
1
 10
267.3
 20
-862.7
 10
292.7
 20
-862.7
 10
292.7
 20
-432.70000000000005
 10
267.3
 20
-432.70000000000005
  0
LWPOLYLINE
  5
1A0
330
17
100
AcDbEntity
  8
OUTLINE
100
AcDbPolyline
 90
4
 70
1
 10
-280.0
 20
-875.4000000000001
 10
280.0
 20
-875.4000000000001
 10
280.0
 20
-850.0000000000001
 10
-280.0
 20
-850.0000000000001
  0
LWPOLYLINE
  5
1A1
330
17
100
AcDbEntity
  8
OUTLINE
100
AcDbPolyline
 90
4
 70
1
 10
-254.0
 20
-850.0
 10
254.0
 20
-850.0
 10
254.0
 20
-837.3
 10
-254.0
 20
-837.3
  0
LWPOLYLINE
  5
1A2
330
17
100
AcDbEntity
  8
OUTLINE
100
AcDbPolyline
 90
4
 70
1
 10
-195.0
 20
-878.4000000000001
 10
-165.0
 20
-878.4000000000001
 10
-165.0
 20
-847.0000000000001
 10
-195.0
 20
-847.0000000000001
  0
LWPOLYLINE
  5
1A3
330
17
100
AcDbEntity
  8
OUTLINE
100
AcDbPolyline
 90
4
 70
1
 10
-15.0
 20
-878.4000000000001
 10
15.0
 20
-878.4000000000001
 10
15.0
 20
-847.0000000000001
 10
-15.0
 20
-847.0000000000001
  0
LWPOLYLINE
  5
1A4
330
17
100
AcDbEntity
  8
OUTLINE
100
AcDbPolyline
 90
4
 70
1
 10
165.0
 20
-878.4000000000001
 10
195.0
 20
-878.4000000000001
 10
195.0
 20
-847.0000000000001
 10
165.0
 20
-847.0000000000001
  0
LWPOLYLINE
  5
1A5
330
17
100
AcDbEntity
  8
OUTLINE
100
AcDbPolyline
 90
4
 70
1
 10
-280.0
 20
-445.40000000000003
 10
280.0
 20
-445.40000000000003
 10
280.0
 20
-420.00000000000006
 10
-280.0
 20
-420.00000000000006
  0
LWPOLYLINE
  5
1A6
330
17
100
AcDbEntity
  8
OUTLINE
100
AcDbPolyline
 90
4
 70
1
 10
-254.0
 20
-458.1
 10
254.0
 20
-458.1
 10
254.0
 20
-445.40000000000003
 10
-254.0
 20
-445.40000000000003
  0
LWPOLYLINE
  5
1A7
330
17
100
AcDbEntity
  8
OUTLINE
100
AcDbPolyline
 90
4
 70
1
 10
-195.0
 20
-448.40000000000003
 10
-165.0
 20
-448.40000000000003
 10
-165.0
 20
-417.00000000000006
 10
-195.0
 20
-417.00000000000006
  0
LWPOLYLINE
  5
1A8
330
17
100
AcDbEntity
  8
OUTLINE
100
AcDbPolyline
 90
4
 70
1
 10
-15.0
 20
-448.40000000000003
 10
15.0
 20
-448.40000000000003
 10
15.0
 20
-417.00000000000006
 10
-15.0
 20
-417.00000000000006
  0
LWPOLYLINE
  5
1A9
330
17
100
AcDbEntity
  8
OUTLINE
100
AcDbPolyline
 90
4
 70
1
 10
165.0
 20
-448.40000000000003
 10
195.0
 20
-448.40000000000003
 10
195.0
 20
-417.00000000000006
 10
165.0
 20
-417.00000000000006
  0
LWPOLYLINE
  5
1AA
330
17
100
AcDbEntity
  8
OUTLINE
100
AcDbPolyline
 90
28
 70
1
 10
200.0
 20
-518.1
 10
197.9555495773441
 20
-502.5708572938488
 10
191.96152422706632
 20
-488.1
 10
182.42640687119285
 20
-475.67359312880717
 10
170.0
 20
-466.1384757729337
 10
155.52914270615125
 20
-460.14445042265595
 10
140.0
 20
-458.1
 10
-140.0
 20
-458.1
 10
-155.52914270615125
 20
-460.14445042265595
 10
-170.0
 20
-466.1384757729337
 10
-182.42640687119285
 20
-475.67359312880717
 10
-191.96152422706632
 20
-488.1
 10
-197.9555495773441
 20
-502.57085729384875
 10
-200.0
 20
-518.1
 10
-200.0
 20
-777.3000000000001
 10
-197.9555495773441
 20
-792.8291427061513
 10
-191.96152422706632
 20
-807.3000000000001
 10
-182.42640687119285
 20
-819.7264068711929
 10
-170.00000000000003
 20
-829.2615242270664
 10
-155.52914270615125
 20
-835.2555495773441
 10
-140.0
 20
-837.3000000000001
 10
140.0
 20
-837.3000000000001
 10
155.52914270615122
 20
-835.2555495773441
 10
170.0
 20
-829.2615242270664
 10
182.42640687119285
 20
-819.7264068711929
 10
191.96152422706632
 20
-807.3000000000001
 10
197.9555495773441
 20
-792.8291427061513
 10
200.0
 20
-777.3000000000001
  0
CIRCLE
  5
1AB
330
17
100
AcDbEntity
  8
OUTLINE
100
AcDbCircle
 10
0.0
 20
-647.7
 30
0.0
 40
160.0
  0
CIRCLE
  5
1AC
330
17
100
AcDbEntity
  8
OUTLINE
100
AcDbCircle
 10
0.0
 20
-647.7
 30
0.0
 40
170.0
  0
LWPOLYLINE
  5
1AD
330
17
100
AcDbEntity
  8
OUTLINE
100
AcDbPolyline
 90
28
 70
1
 10
246.0
 20
-592.7
 10
245.82962913144533
 20
-591.4059047744875
 10
245.33012701892218
 20
-590.2
 10
244.53553390593274
 20
-589.1644660940673
 10
243.5
 20
-588.3698729810778
 10
242.2940952255126
 20
-587.8703708685547
 10
241.0
 20
-587.7
 10
205.0
 20
-587.7
 10
203.7059047744874
 20
-587.8703708685547
 10
202.5
 20
-588.3698729810778
 10
201.46446609406726
 20
-589.1644660940673
 10
200.66987298107782
 20
-590.2
 10
200.17037086855467
 20
-591.4059047744875
 10
200.0
 20
-592.7
 10
200.0
 20
-702.7
 10
200.17037086855467
 20
-703.9940952255126
 10
200.66987298107782
 20
-705.2
 10
201.46446609406726
 20
-706.2355339059328
 10
202.5
 20
-707.0301270189223
 10
203.7059047744874
 20
-707.5296291314454
 10
205.0
 20
-707.7
 10
241.0
 20
-707.7
 10
242.2940952255126
 20
-707.5296291314454
 10
243.5
 20
-707.0301270189223
 10
244.53553390593274
 20
-706.2355339059328
 10
245.33012701892218
 20
-705.2
 10
245.82962913144533
 20
-703.9940952255126
 10
246.0
 20
-702.7
  0
ELLIPSE
  5
1AE
330
17
100
AcDbEntity
  8
OUTLINE
100
AcDbEllipse
 10
0.0
 20
-647.7
 30
0.0
 11
150.0
 21
0.0
 31
0.0
 40
0.7333333333333333
 41
0.0
 42
6.283185307179586
  0
TEXT
  5
1AF
330
17
100
AcDbEntity
  8
TEXT
100
AcDbText
 10
-60.0
 20
-529.7
 30
0.0
 40
12.6
  1
seat aperture (ref.)
 11
-60.0
 21
-529.7
 31
0.0
100
AcDbText
  0
CIRCLE
  5
1B0
330
17
100
AcDbEntity
  8
HIDDEN
100
AcDbCircle
 10
0.0
 20
-647.7
 30
0.0
 40
220.0
  0
TEXT
  5
1B1
330
17
100
AcDbEntity
  8
TEXT
100
AcDbText
 10
-210.0
 20
-457.70000000000005
 30
0.0
 40
12.6
  1
ROUND SEAT dia 440 mm [17.32"] (dashed, ref.)
 11
-210.0
 21
-457.70000000000005
 31
0.0
100
AcDbText
  0
LWPOLYLINE
  5
1B2
330
17
100
AcDbEntity
  8
HIDDEN
100
AcDbPolyline
 90
28
 70
1
 10
708.0
 20
-518.1
 10
705.9555495773441
 20
-502.5708572938488
 10
699.9615242270663
 20
-488.1
 10
690.4264068711929
 20
-475.67359312880717
 10
678.0
 20
-466.1384757729337
 10
663.5291427061512
 20
-460.14445042265595
 10
648.0
 20
-458.1
 10
368.0
 20
-458.1
 10
352.4708572938487
 20
-460.14445042265595
 10
338.0
 20
-466.1384757729337
 10
325.57359312880715
 20
-475.67359312880717
 10
316.0384757729337
 20
-488.1
 10
310.0444504226559
 20
-502.57085729384875
 10
308.0
 20
-518.1
 10
308.0
 20
-777.3000000000001
 10
310.0444504226559
 20
-792.8291427061513
 10
316.0384757729337
 20
-807.3000000000001
 10
325.57359312880715
 20
-819.7264068711929
 10
338.0
 20
-829.2615242270664
 10
352.4708572938488
 20
-835.2555495773441
 10
368.0
 20
-837.3000000000001
 10
648.0
 20
-837.3000000000001
 10
663.5291427061512
 20
-835.2555495773441
 10
678.0
 20
-829.2615242270664
 10
690.4264068711929
 20
-819.7264068711929
 10
699.9615242270663
 20
-807.3000000000001
 10
705.9555495773441
 20
-792.8291427061513
 10
708.0
 20
-777.3000000000001
  0
CIRCLE
  5
1B3
330
17
100
AcDbEntity
  8
HIDDEN
100
AcDbCircle
 10
508.0
 20
-647.7
 30
0.0
 40
170.0
  0
CIRCLE
  5
1B4
330
17
100
AcDbEntity
  8
HIDDEN
100
AcDbCircle
 10
508.0
 20
-647.7
 30
0.0
 40
125.0
  0
LINE
  5
1B5
330
17
100
AcDbEntity
  8
CENTER
100
AcDbLine
 10
-352.7
 20
-647.7
 30
0.0
 11
808.0
 21
-647.7
 31
0.0
  0
DIMENSION
  5
1B6
330
17
100
AcDbEntity
  8
DIM
100
AcDbDimension
280
0
  2
*D14
  3
EZDXF
 10
-254.0
 20
-925.4000000000001
 30
0.0
 11
0.0
 21
-925.1750000000001
 31
0.0
 70
32
 71
5
  1
SLIDE LENGTH 508 mm [20.00"] (20 in full-extension, 100 lb/pair)
100
AcDbAlignedDimension
 13
-254.0
 23
-895.4000000000001
 33
0.0
 14
254.0
 24
-895.4000000000001
 34
0.0
 50
0.0
100
AcDbRotatedDimension
  0
DIMENSION
  5
1C5
330
17
100
AcDbEntity
  8
DIM
100
AcDbDimension
280
0
  2
*D15
  3
EZDXF
 10
-200.0
 20
-380.00000000000006
 30
0.0
 11
0.0
 21
-379.77500000000003
 31
0.0
 70
32
 71
5
  1
CARRIER LENGTH 400 mm [15.75"]
100
AcDbAlignedDimension
 13
-200.0
 23
-410.00000000000006
 33
0.0
 14
200.0
 24
-410.00000000000006
 34
0.0
 50
0.0
100
AcDbRotatedDimension
  0
DIMENSION
  5
1D4
330
17
100
AcDbEntity
  8
DIM
100
AcDbDimension
280
0
  2
*D16
  3
EZDXF
 10
678.0
 20
-970.4000000000001
 30
0.0
 11
485.35
 21
-970.6250000000001
 31
0.0
 70
32
 71
5
  1
pan overhang past leg 385 mm [15.17"]
100
AcDbAlignedDimension
 13
678.0
 23
-895.4000000000001
 33
0.0
 14
292.7
 24
-895.4000000000001
 34
0.0
 50
0.0
100
AcDbRotatedDimension
  0
DIMENSION
  5
1E3
330
17
100
AcDbEntity
  8
DIM
100
AcDbDimension
280
0
  2
*D17
  3
EZDXF
 10
338.0
 20
-335.00000000000006
 30
0.0
 11
302.65
 21
-335.2250000000001
 31
0.0
 70
32
 71
5
  1
lift-out clearance 71 mm [2.78"]
100
AcDbAlignedDimension
 13
338.0
 23
-410.00000000000006
 33
0.0
 14
267.3
 24
-410.00000000000006
 34
0.0
 50
0.0
100
AcDbRotatedDimension
  0
TEXT
  5
1F2
330
17
100
AcDbEntity
  8
TEXT
100
AcDbText
 10
900.7
 20
-420.00000000000006
 30
0.0
 40
13.5
  1
NOTES
 11
900.7
 21
-420.00000000000006
 31
0.0
100
AcDbText
  0
TEXT
  5
1F3
330
17
100
AcDbEntity
  8
TEXT
100
AcDbText
 10
900.7
 20
-441.6000000000001
 30
0.0
 40
13.5
  1
1. Base chair: standard folding aluminium commode, 1" (25.4 mm) x 1.5 mm wall tube, telescoping legs, 5-position height adjust.
 11
900.7
 21
-441.6000000000001
 31
0.0
100
AcDbText
  0
TEXT
  5
1F4
330
17
100
AcDbEntity
  8
TEXT
100
AcDbText
 10
900.7
 20
-463.20000000000005
 30
0.0
 40
13.5
  1
2. Slide-out pan module attaches to existing front & rear cross bars with 6x tube clamps (3 per bar) - no welding, retrofit-able.
 11
900.7
 21
-463.20000000000005
 31
0.0
100
AcDbText
  0
TEXT
  5
1F5
330
17
100
AcDbEntity
  8
TEXT
100
AcDbText
 10
900.7
 20
-484.80000000000007
 30
0.0
 40
13.5
  1
3. Two 20" full-extension ball-bearing drawer slides, 45 mm x 12.7 mm, stainless or zinc-plated, min. 100 lb (45 kg) rated per pair, with soft-close/detent.
 11
900.7
 21
-484.80000000000007
 31
0.0
100
AcDbText
  0
TEXT
  5
1F6
330
17
100
AcDbEntity
  8
TEXT
100
AcDbText
 10
900.7
 20
-506.4000000000001
 30
0.0
 40
13.5
  1
4. Carrier plate (blue) rides on slides; pan hangs by its rim in the carrier cutout and lifts straight out when extended.
 11
900.7
 21
-506.4000000000001
 31
0.0
100
AcDbText
  0
TEXT
  5
1F7
330
17
100
AcDbEntity
  8
TEXT
100
AcDbText
 10
900.7
 20
-528.0
 30
0.0
 40
13.5
  1
5. Pan slides out to the RIGHT of the seated user (caregiver side). Mirror assembly for left-hand version.
 11
900.7
 21
-528.0
 31
0.0
100
AcDbText
  0
TEXT
  5
1F8
330
17
100
AcDbEntity
  8
TEXT
100
AcDbText
 10
900.7
 20
-549.6
 30
0.0
 40
13.5
  1
6. Spring latch / magnetic catch holds carrier in CLOSED position; positive stop at full extension.
 11
900.7
 21
-549.6
 31
0.0
100
AcDbText
  0
TEXT
  5
1F9
330
17
100
AcDbEntity
  8
TEXT
100
AcDbText
 10
900.7
 20
-571.2
 30
0.0
 40
13.5
  1
7. All edges deburred. Static load: 300 lb (136 kg) user. Materials in Sheet 4 BOM.
 11
900.7
 21
-571.2
 31
0.0
100
AcDbText
  0
ENDSEC
  0
SECTION
  2
OBJECTS
  0
DICTIONARY
  5
A
330
0
100
AcDbDictionary
281
1
  3
ACAD_COLOR
350
B
  3
ACAD_GROUP
350
C
  3
ACAD_LAYOUT
350
D
  3
ACAD_MATERIAL
350
E
  3
ACAD_MLEADERSTYLE
350
F
  3
ACAD_MLINESTYLE
350
10
  3
ACAD_PLOTSETTINGS
350
11
  3
ACAD_PLOTSTYLENAME
350
12
  3
ACAD_SCALELIST
350
14
  3
ACAD_TABLESTYLE
350
15
  3
ACAD_VISUALSTYLE
350
16
  3
EZDXF_META
350
2D
  0
DICTIONARY
  5
B
330
A
100
AcDbDictionary
281
1
  0
DICTIONARY
  5
C
330
A
100
AcDbDictionary
281
1
  0
DICTIONARY
  5
D
330
A
100
AcDbDictionary
281
1
  3
Model
350
1A
  3
Layout1
350
1E
  0
DICTIONARY
  5
E
330
A
100
AcDbDictionary
281
1
  3
ByBlock
350
1F
  3
ByLayer
350
20
  3
Global
350
21
  0
DICTIONARY
  5
F
330
A
100
AcDbDictionary
281
1
  3
Standard
350
2C
  0
DICTIONARY
  5
10
330
A
100
AcDbDictionary
281
1
  3
Standard
350
22
  0
DICTIONARY
  5
11
330
A
100
AcDbDictionary
281
1
  0
ACDBDICTIONARYWDFLT
  5
12
330
A
100
AcDbDictionary
281
1
  3
Normal
350
13
100
AcDbDictionaryWithDefault
340
13
  0
ACDBPLACEHOLDER
  5
13
330
12
  0
DICTIONARY
  5
14
330
A
100
AcDbDictionary
281
1
  0
DICTIONARY
  5
15
330
A
100
AcDbDictionary
281
1
  0
DICTIONARY
  5
16
330
A
100
AcDbDictionary
281
1
  3
2dWireframe
350
5A
  3
Basic
350
5B
  3
Brighten
350
5C
  3
ColorChange
350
5D
  3
Conceptual
350
5E
  3
Dim
350
5F
  3
EdgeColorOff
350
60
  3
Facepattern
350
61
  3
Flat
350
62
  3
FlatWithEdges
350
63
  3
Gouraud
350
64
  3
GouraudWithEdges
350
65
  3
Hidden
350
66
  3
JitterOff
350
67
  3
Linepattern
350
68
  3
Modeling
350
69
  3
OverhangOff
350
6A
  3
Realistic
350
6B
  3
Shaded
350
6C
  3
Shaded with edges
350
6D
  3
Shades of Gray
350
6E
  3
Sketchy
350
6F
  3
Thicken
350
70
  3
Wireframe
350
71
  3
X-Ray
350
72
  0
LAYOUT
  5
1A
330
D
100
AcDbPlotSettings
  1

  4
A3
  6

 40
7.5
 41
20.0
 42
7.5
 43
20.0
 44
420.0
 45
297.0
 46
0.0
 47
0.0
 48
0.0
 49
0.0
140
0.0
141
0.0
142
1.0
143
1.0
 70
1024
 72
1
 73
0
 74
5
  7

 75
16
 76
0
 77
2
 78
300
147
1.0
148
0.0
149
0.0
100
AcDbLayout
  1
Model
 70
1
 71
0
 10
0.0
 20
0.0
 11
420.0
 21
297.0
 12
0.0
 22
0.0
 32
0.0
 14
1e+20
 24
1e+20
 34
1e+20
 15
-1e+20
 25
-1e+20
 35
-1e+20
146
0.0
 13
0.0
 23
0.0
 33
0.0
 16
1.0
 26
0.0
 36
0.0
 17
0.0
 27
1.0
 37
0.0
 76
1
330
17
  0
LAYOUT
  5
1E
330
D
100
AcDbPlotSettings
  1

  4
A3
  6

 40
7.5
 41
20.0
 42
7.5
 43
20.0
 44
420.0
 45
297.0
 46
0.0
 47
0.0
 48
0.0
 49
0.0
140
0.0
141
0.0
142
1.0
143
1.0
 70
0
 72
1
 73
0
 74
5
  7

 75
16
 76
0
 77
2
 78
300
147
1.0
148
0.0
149
0.0
100
AcDbLayout
  1
Layout1
 70
1
 71
1
 10
0.0
 20
0.0
 11
420.0
 21
297.0
 12
0.0
 22
0.0
 32
0.0
 14
1e+20
 24
1e+20
 34
1e+20
 15
-1e+20
 25
-1e+20
 35
-1e+20
146
0.0
 13
0.0
 23
0.0
 33
0.0
 16
1.0
 26
0.0
 36
0.0
 17
0.0
 27
1.0
 37
0.0
 76
1
330
1B
  0
MATERIAL
  5
1F
102
{ACAD_REACTORS
330
E
102
}
330
E
100
AcDbMaterial
  1
ByBlock
  2

 70
0
 40
1.0
 71
1
 41
1.0
 91
-1023410177
 42
1.0
 72
1
  3

 73
1
 74
1
 75
1
 44
0.5
 73
0
 45
1.0
 46
1.0
 77
1
  4

 78
1
 79
1
170
1
 48
1.0
171
1
  6

172
1
173
1
174
1
140
1.0
141
1.0
175
1
  7

176
1
177
1
178
1
143
1.0
179
1
  8

270
1
271
1
272
1
145
1.0
146
1.0
273
1
  9

274
1
275
1
276
1
 42
1.0
 72
1
  3

 73
1
 74
1
 75
1
 94
63
  0
MATERIAL
  5
20
102
{ACAD_REACTORS
330
E
102
}
330
E
100
AcDbMaterial
  1
ByLayer
  2

 70
0
 40
1.0
 71
1
 41
1.0
 91
-1023410177
 42
1.0
 72
1
  3

 73
1
 74
1
 75
1
 44
0.5
 73
0
 45
1.0
 46
1.0
 77
1
  4

 78
1
 79
1
170
1
 48
1.0
171
1
  6

172
1
173
1
174
1
140
1.0
141
1.0
175
1
  7

176
1
177
1
178
1
143
1.0
179
1
  8

270
1
271
1
272
1
145
1.0
146
1.0
273
1
  9

274
1
275
1
276
1
 42
1.0
 72
1
  3

 73
1
 74
1
 75
1
 94
63
  0
MATERIAL
  5
21
102
{ACAD_REACTORS
330
E
102
}
330
E
100
AcDbMaterial
  1
Global
  2

 70
0
 40
1.0
 71
1
 41
1.0
 91
-1023410177
 42
1.0
 72
1
  3

 73
1
 74
1
 75
1
 44
0.5
 73
0
 45
1.0
 46
1.0
 77
1
  4

 78
1
 79
1
170
1
 48
1.0
171
1
  6

172
1
173
1
174
1
140
1.0
141
1.0
175
1
  7

176
1
177
1
178
1
143
1.0
179
1
  8

270
1
271
1
272
1
145
1.0
146
1.0
273
1
  9

274
1
275
1
276
1
 42
1.0
 72
1
  3

 73
1
 74
1
 75
1
 94
63
  0
MLINESTYLE
  5
22
102
{ACAD_REACTORS
330
10
102
}
330
10
100
AcDbMlineStyle
  2
Standard
 70
0
  3

 62
256
 51
90.0
 52
90.0
 71
2
 49
0.5
 62
256
  6
BYLAYER
 49
-0.5
 62
256
  6
BYLAYER
  0
MLEADERSTYLE
  5
2C
102
{ACAD_REACTORS
330
F
102
}
330
F
100
AcDbMLeaderStyle
179
2
170
2
171
1
172
0
 90
2
 40
0.0
 41
0.0
173
1
 91
-1056964608
 92
-2
290
1
 42
2.0
291
1
 43
8.0
  3
Standard
 44
4.0
300

342
29
174
1
175
1
176
0
178
1
 93
-1056964608
 45
4.0
292
0
297
0
 46
4.0
 94
-1056964608
 47
1.0
 49
1.0
140
1.0
294
1
141
0.0
177
0
142
1.0
295
0
296
0
143
3.75
271
0
272
9
273
9
  0
DICTIONARY
  5
2D
330
A
100
AcDbDictionary
280
1
281
1
  3
CREATED_BY_EZDXF
350
2E
  3
WRITTEN_BY_EZDXF
350
1FC
  0
DICTIONARYVAR
  5
2E
330
2D
100
DictionaryVariables
280
0
  1
1.4.4 @ 2026-09-06T01:19:48.214165+00:00
  0
VISUALSTYLE
  5
5A
102
{ACAD_REACTORS
330
16
102
}
330
16
100
AcDbVisualStyle
  2
2dWireframe
 70
4
 90
0
 40
0.6
 62
7
290
0
291
0
  0
VISUALSTYLE
  5
5B
102
{ACAD_REACTORS
330
16
102
}
330
16
100
AcDbVisualStyle
  2
Basic
 70
7
 90
1
 40
0.6
 62
7
290
0
291
1
  0
VISUALSTYLE
  5
5C
102
{ACAD_REACTORS
330
16
102
}
330
16
100
AcDbVisualStyle
  2
Brighten
 70
12
 90
2
 40
0.6
 62
7
290
0
291
1
  0
VISUALSTYLE
  5
5D
102
{ACAD_REACTORS
330
16
102
}
330
16
100
AcDbVisualStyle
  2
ColorChange
 70
16
 90
2
 40
0.6
 62
8
290
0
291
1
  0
VISUALSTYLE
  5
5E
102
{ACAD_REACTORS
330
16
102
}
330
16
100
AcDbVisualStyle
  2
Conceptual
 70
9
 90
3
 40
0.6
 62
7
290
0
291
0
  0
VISUALSTYLE
  5
5F
102
{ACAD_REACTORS
330
16
102
}
330
16
100
AcDbVisualStyle
  2
Dim
 70
11
 90
2
 40
0.6
 62
7
290
0
291
1
  0
VISUALSTYLE
  5
60
102
{ACAD_REACTORS
330
16
102
}
330
16
100
AcDbVisualStyle
  2
EdgeColorOff
 70
22
 90
2
 40
0.6
 62
7
290
0
291
1
  0
VISUALSTYLE
  5
61
102
{ACAD_REACTORS
330
16
102
}
330
16
100
AcDbVisualStyle
  2
Facepattern
 70
15
 90
2
 40
0.6
 62
7
290
0
291
1
  0
VISUALSTYLE
  5
62
102
{ACAD_REACTORS
330
16
102
}
330
16
100
AcDbVisualStyle
  2
Flat
 70
0
 90
2
 40
0.6
 62
7
290
0
291
1
  0
VISUALSTYLE
  5
63
102
{ACAD_REACTORS
330
16
102
}
330
16
100
AcDbVisualStyle
  2
FlatWithEdges
 70
1
 90
2
 40
0.6
 62
7
290
0
291
1
  0
VISUALSTYLE
  5
64
102
{ACAD_REACTORS
330
16
102
}
330
16
100
AcDbVisualStyle
  2
Gouraud
 70
2
 90
2
 40
0.6
 62
7
290
0
291
1
  0
VISUALSTYLE
  5
65
102
{ACAD_REACTORS
330
16
102
}
330
16
100
AcDbVisualStyle
  2
GouraudWithEdges
 70
3
 90
2
 40
0.6
 62
7
290
0
291
1
  0
VISUALSTYLE
  5
66
102
{ACAD_REACTORS
330
16
102
}
330
16
100
AcDbVisualStyle
  2
Hidden
 70
6
 90
1
 40
0.6
 62
7
290
0
291
0
  0
VISUALSTYLE
  5
67
102
{ACAD_REACTORS
330
16
102
}
330
16
100
AcDbVisualStyle
  2
JitterOff
 70
20
 90
2
 40
0.6
 62
7
290
0
291
1
  0
VISUALSTYLE
  5
68
102
{ACAD_REACTORS
330
16
102
}
330
16
100
AcDbVisualStyle
  2
Linepattern
 70
14
 90
2
 40
0.6
 62
7
290
0
291
1
  0
VISUALSTYLE
  5
69
102
{ACAD_REACTORS
330
16
102
}
330
16
100
AcDbVisualStyle
  2
Modeling
 70
10
 90
2
 40
0.6
 62
7
290
0
291
0
  0
VISUALSTYLE
  5
6A
102
{ACAD_REACTORS
330
16
102
}
330
16
100
AcDbVisualStyle
  2
OverhangOff
 70
21
 90
2
 40
0.6
 62
7
290
0
291
1
  0
VISUALSTYLE
  5
6B
102
{ACAD_REACTORS
330
16
102
}
330
16
100
AcDbVisualStyle
  2
Realistic
 70
8
 90
2
 40
0.6
 62
7
290
0
291
0
  0
VISUALSTYLE
  5
6C
102
{ACAD_REACTORS
330
16
102
}
330
16
100
AcDbVisualStyle
  2
Shaded
 70
27
 90
2
 40
0.6
 62
7
290
0
291
0
  0
VISUALSTYLE
  5
6D
102
{ACAD_REACTORS
330
16
102
}
330
16
100
AcDbVisualStyle
  2
Shaded with edges
 70
26
 90
2
 40
0.6
 62
7
290
0
291
0
  0
VISUALSTYLE
  5
6E
102
{ACAD_REACTORS
330
16
102
}
330
16
100
AcDbVisualStyle
  2
Shades of Gray
 70
23
 90
2
 40
0.6
 62
7
290
0
291
0
  0
VISUALSTYLE
  5
6F
102
{ACAD_REACTORS
330
16
102
}
330
16
100
AcDbVisualStyle
  2
Sketchy
 70
24
 90
1
 40
0.6
 62
7
290
0
291
0
  0
VISUALSTYLE
  5
70
102
{ACAD_REACTORS
330
16
102
}
330
16
100
AcDbVisualStyle
  2
Thicken
 70
13
 90
2
 40
0.6
 62
7
290
0
291
1
  0
VISUALSTYLE
  5
71
102
{ACAD_REACTORS
330
16
102
}
330
16
100
AcDbVisualStyle
  2
Wireframe
 70
5
 90
0
 40
0.6
 62
7
290
0
291
0
  0
VISUALSTYLE
  5
72
102
{ACAD_REACTORS
330
16
102
}
330
16
100
AcDbVisualStyle
  2
X-Ray
 70
25
 90
2
 40
0.5
 62
7
290
0
291
0
  0
DICTIONARYVAR
  5
1FC
330
2D
100
DictionaryVariables
280
0
  1
1.4.4 @ 2026-09-06T01:19:48.797541+00:00
  0
ENDSEC
  0
EOF
